Orbitron Light.ufo
<glyph name="exclam" format="1">
  <advance width="220"/>
  <unicode hex="0021"/>
  <outline>
    <contour>
      <point x="140" y="0" type="line"/>
      <point x="140" y="82" type="line"/>
      <point x="58" y="82" type="line"/>
      <point x="58" y="0" type="line"/>
    </contour>
    <contour>
      <point x="58" y="203" type="line"/>
      <point x="140" y="203" type="line"/>
      <point x="140" y="720" type="line"/>
      <point x="58" y="720" type="line"/>
    </contour>
  </outline>
</glyph>
<glyph name="quotedbl" format="1">
  <advance width="372"/>
  <unicode hex="0022"/>
  <outline>
    <contour>
      <point x="141" y="720" type="line"/>
      <point x="59" y="720" type="line"/>
      <point x="59" y="580" type="line"/>
      <point x="141" y="580" type="line"/>
    </contour>
    <contour>
      <point x="296" y="720" type="line"/>
      <point x="214" y="720" type="line"/>
      <point x="214" y="580" type="line"/>
      <point x="296" y="580" type="line"/>
    </contour>
  </outline>
</glyph>
<glyph name="numbersign" format="1">
  <advance width="797"/>
  <unicode hex="0023"/>
  <outline>
    <contour>
      <point x="773" y="555" type="line"/>
      <point x="677" y="555" type="line"/>
      <point x="734" y="719" type="line"/>
      <point x="653" y="719" type="line"/>
      <point x="597" y="555" type="line"/>
      <point x="336" y="555" type="line"/>
      <point x="393" y="719" type="line"/>
      <point x="312" y="719" type="line"/>
      <point x="256" y="555" type="line"/>
      <point x="64" y="555" type="line"/>
      <point x="64" y="473" type="line"/>
      <point x="230" y="473" type="line"/>
      <point x="159" y="253" type="line"/>
      <point x="32" y="253" type="line"/>
      <point x="32" y="171" type="line"/>
      <point x="133" y="171" type="line"/>
      <point x="79" y="0" type="line"/>
      <point x="161" y="0" type="line"/>
      <point x="178" y="55"/>
      <point x="198" y="117"/>
      <point x="214" y="171" type="curve"/>
      <point x="474" y="171" type="line"/>
      <point x="420" y="0" type="line"/>
      <point x="502" y="0" type="line"/>
      <point x="519" y="55"/>
      <point x="539" y="117"/>
      <point x="555" y="171" type="curve"/>
      <point x="740" y="171" type="line"/>
      <point x="740" y="253" type="line"/>
      <point x="581" y="253" type="line"/>
      <point x="652" y="473" type="line"/>
      <point x="773" y="473" type="line"/>
    </contour>
    <contour>
      <point x="241" y="253" type="line"/>
      <point x="311" y="473" type="line"/>
      <point x="571" y="473" type="line"/>
      <point x="500" y="253" type="line"/>
    </contour>
  </outline>
</glyph>
<glyph name="dollar" format="1">
  <advance width="788"/>
  <unicode hex="0024"/>
  <outline>
    <contour>
      <point x="762" y="599" type="line" smooth="yes"/>
      <point x="762" y="667"/>
      <point x="708" y="721"/>
      <point x="640" y="721" type="curve" smooth="yes"/>
      <point x="439" y="721" type="line"/>
      <point x="439" y="835" type="line"/>
      <point x="357" y="835" type="line"/>
      <point x="357" y="721" type="line"/>
      <point x="155" y="721" type="line" smooth="yes"/>
      <point x="88" y="721"/>
      <point x="34" y="667"/>
      <point x="34" y="599" type="curve" smooth="yes"/>
      <point x="34" y="441" type="line" smooth="yes"/>
      <point x="34" y="373"/>
      <point x="88" y="320"/>
      <point x="155" y="320" type="curve" smooth="yes"/>
      <point x="357" y="320" type="line"/>
      <point x="357" y="82" type="line"/>
      <point x="155" y="82" type="line" smooth="yes"/>
      <point x="134" y="82"/>
      <point x="116" y="100"/>
      <point x="116" y="121" type="curve" smooth="yes"/>
      <point x="116" y="150" type="line"/>
      <point x="34" y="150" type="line"/>
      <point x="34" y="121" type="line" smooth="yes"/>
      <point x="34" y="54"/>
      <point x="88" y="0"/>
      <point x="155" y="0" type="curve" smooth="yes"/>
      <point x="357" y="0" type="line"/>
      <point x="357" y="-114" type="line"/>
      <point x="439" y="-114" type="line"/>
      <point x="439" y="0" type="line"/>
      <point x="640" y="0" type="line" smooth="yes"/>
      <point x="708" y="0"/>
      <point x="762" y="54"/>
      <point x="762" y="121" type="curve" smooth="yes"/>
      <point x="762" y="281" type="line" smooth="yes"/>
      <point x="762" y="348"/>
      <point x="708" y="402"/>
      <point x="640" y="402" type="curve" smooth="yes"/>
      <point x="439" y="402" type="line"/>
      <point x="439" y="638" type="line"/>
      <point x="640" y="638" type="line" smooth="yes"/>
      <point x="661" y="638"/>
      <point x="679" y="620"/>
      <point x="679" y="599" type="curve" smooth="yes"/>
      <point x="679" y="571" type="line"/>
      <point x="762" y="571" type="line"/>
    </contour>
    <contour>
      <point x="640" y="320" type="line" smooth="yes"/>
      <point x="661" y="320"/>
      <point x="679" y="302"/>
      <point x="679" y="281" type="curve" smooth="yes"/>
      <point x="679" y="121" type="line" smooth="yes"/>
      <point x="679" y="100"/>
      <point x="661" y="82"/>
      <point x="640" y="82" type="curve" smooth="yes"/>
      <point x="439" y="82" type="line"/>
      <point x="439" y="320" type="line"/>
    </contour>
    <contour>
      <point x="357" y="402" type="line"/>
      <point x="155" y="402" type="line" smooth="yes"/>
      <point x="134" y="402"/>
      <point x="116" y="420"/>
      <point x="116" y="441" type="curve" smooth="yes"/>
      <point x="116" y="599" type="line" smooth="yes"/>
      <point x="116" y="620"/>
      <point x="134" y="638"/>
      <point x="155" y="638" type="curve" smooth="yes"/>
      <point x="357" y="638" type="line"/>
    </contour>
  </outline>
</glyph>
<glyph name="percent" format="1">
  <advance width="966"/>
  <unicode hex="0025"/>
  <outline>
    <contour>
      <point x="137" y="0" type="line"/>
      <point x="865" y="614" type="line"/>
      <point x="865" y="721" type="line"/>
      <point x="137" y="108" type="line"/>
    </contour>
    <contour>
      <point x="170" y="720" type="line" smooth="yes"/>
      <point x="102" y="720"/>
      <point x="48" y="666"/>
      <point x="48" y="598" type="curve" smooth="yes"/>
      <point x="48" y="514" type="line" smooth="yes"/>
      <point x="48" y="447"/>
      <point x="102" y="393"/>
      <point x="170" y="393" type="curve" smooth="yes"/>
      <point x="264" y="393" type="line" smooth="yes"/>
      <point x="332" y="393"/>
      <point x="386" y="447"/>
      <point x="386" y="514" type="curve" smooth="yes"/>
      <point x="386" y="598" type="line" smooth="yes"/>
      <point x="386" y="666"/>
      <point x="332" y="720"/>
      <point x="264" y="720" type="curve" smooth="yes"/>
    </contour>
    <contour>
      <point x="148" y="454" type="line" smooth="yes"/>
      <point x="127" y="454"/>
      <point x="109" y="472"/>
      <point x="109" y="493" type="curve" smooth="yes"/>
      <point x="109" y="619" type="line" smooth="yes"/>
      <point x="109" y="641"/>
      <point x="127" y="658"/>
      <point x="148" y="658" type="curve" smooth="yes"/>
      <point x="286" y="658" type="line" smooth="yes"/>
      <point x="307" y="658"/>
      <point x="325" y="641"/>
      <point x="325" y="619" type="curve" smooth="yes"/>
      <point x="325" y="493" type="line" smooth="yes"/>
      <point x="325" y="472"/>
      <point x="307" y="454"/>
      <point x="286" y="454" type="curve" smooth="yes"/>
    </contour>
    <contour>
      <point x="716" y="326" type="line" smooth="yes"/>
      <point x="648" y="326"/>
      <point x="595" y="272"/>
      <point x="595" y="205" type="curve" smooth="yes"/>
      <point x="595" y="120" type="line" smooth="yes"/>
      <point x="595" y="53"/>
      <point x="648" y="-1"/>
      <point x="716" y="-1" type="curve" smooth="yes"/>
      <point x="811" y="-1" type="line" smooth="yes"/>
      <point x="878" y="-1"/>
      <point x="932" y="53"/>
      <point x="932" y="120" type="curve" smooth="yes"/>
      <point x="932" y="205" type="line" smooth="yes"/>
      <point x="932" y="272"/>
      <point x="878" y="326"/>
      <point x="811" y="326" type="curve" smooth="yes"/>
    </contour>
    <contour>
      <point x="695" y="60" type="line" smooth="yes"/>
      <point x="674" y="60"/>
      <point x="656" y="78"/>
      <point x="656" y="99" type="curve" smooth="yes"/>
      <point x="656" y="226" type="line" smooth="yes"/>
      <point x="656" y="247"/>
      <point x="674" y="265"/>
      <point x="695" y="265" type="curve" smooth="yes"/>
      <point x="832" y="265" type="line" smooth="yes"/>
      <point x="853" y="265"/>
      <point x="871" y="247"/>
      <point x="871" y="226" type="curve" smooth="yes"/>
      <point x="871" y="99" type="line" smooth="yes"/>
      <point x="871" y="78"/>
      <point x="853" y="60"/>
      <point x="832" y="60" type="curve" smooth="yes"/>
    </contour>
  </outline>
</glyph>
<glyph name="ampersand" format="1">
  <advance width="938"/>
  <unicode hex="0026"/>
  <outline>
    <contour>
      <point x="780" y="167" type="line"/>
      <point x="780" y="333" type="line"/>
      <point x="698" y="333" type="line"/>
      <point x="698" y="194" type="line"/>
      <point x="177" y="457" type="line"/>
      <point x="177" y="596" type="line" smooth="yes"/>
      <point x="177" y="617"/>
      <point x="195" y="635"/>
      <point x="216" y="635" type="curve" smooth="yes"/>
      <point x="627" y="635" type="line" smooth="yes"/>
      <point x="649" y="635"/>
      <point x="666" y="617"/>
      <point x="666" y="596" type="curve" smooth="yes"/>
      <point x="666" y="562" type="line"/>
      <point x="749" y="562" type="line"/>
      <point x="749" y="617" type="line"/>
      <point x="734" y="669"/>
      <point x="683" y="719"/>
      <point x="627" y="719" type="curve" smooth="yes"/>
      <point x="216" y="719" type="line" smooth="yes"/>
      <point x="149" y="719"/>
      <point x="95" y="665"/>
      <point x="95" y="597" type="curve" smooth="yes"/>
      <point x="95" y="497" type="line" smooth="yes"/>
      <point x="95" y="470"/>
      <point x="104" y="437"/>
      <point x="152" y="401" type="curve"/>
      <point x="86" y="401"/>
      <point x="53" y="360"/>
      <point x="53" y="336" type="curve" smooth="yes"/>
      <point x="53" y="121" type="line" smooth="yes"/>
      <point x="53" y="54"/>
      <point x="107" y="0"/>
      <point x="174" y="0" type="curve" smooth="yes"/>
      <point x="659" y="0" type="line" smooth="yes"/>
      <point x="710" y="0"/>
      <point x="755" y="38"/>
      <point x="777" y="93" type="curve"/>
      <point x="914" y="16" type="line"/>
      <point x="914" y="88" type="line"/>
    </contour>
    <contour>
      <point x="174" y="82" type="line" smooth="yes"/>
      <point x="153" y="82"/>
      <point x="135" y="100"/>
      <point x="135" y="121" type="curve" smooth="yes"/>
      <point x="135" y="336" type="line" smooth="yes"/>
      <point x="135" y="357"/>
      <point x="153" y="375"/>
      <point x="174" y="375" type="curve" smooth="yes"/>
      <point x="189" y="375" type="line"/>
      <point x="699" y="118" type="line"/>
      <point x="690" y="97"/>
      <point x="673" y="82"/>
      <point x="659" y="82" type="curve" smooth="yes"/>
    </contour>
  </outline>
</glyph>
<glyph name="quotesingle" format="1">
  <advance width="224"/>
  <unicode hex="0027"/>
  <outline>
    <contour>
      <point x="141" y="720" type="line"/>
      <point x="59" y="720" type="line"/>
      <point x="59" y="580" type="line"/>
      <point x="141" y="580" type="line"/>
    </contour>
  </outline>
</glyph>
<glyph name="parenleft" format="1">
  <advance width="277"/>
  <unicode hex="0028"/>
  <outline>
    <contour>
      <point x="173" y="82" type="line" smooth="yes"/>
      <point x="152" y="82"/>
      <point x="134" y="100"/>
      <point x="134" y="121" type="curve" smooth="yes"/>
      <point x="134" y="598" type="line" smooth="yes"/>
      <point x="134" y="619"/>
      <point x="152" y="637"/>
      <point x="173" y="637" type="curve" smooth="yes"/>
      <point x="202" y="637" type="line"/>
      <point x="202" y="720" type="line"/>
      <point x="173" y="720" type="line" smooth="yes"/>
      <point x="106" y="720"/>
      <point x="52" y="666"/>
      <point x="52" y="598" type="curve" smooth="yes"/>
      <point x="52" y="121" type="line" smooth="yes"/>
      <point x="52" y="54"/>
      <point x="106" y="0"/>
      <point x="173" y="0" type="curve" smooth="yes"/>
      <point x="202" y="0" type="line"/>
      <point x="202" y="82" type="line"/>
    </contour>
  </outline>
</glyph>
<glyph name="parenright" format="1">
  <advance width="278"/>
  <unicode hex="0029"/>
  <outline>
    <contour>
      <point x="56" y="0" type="line"/>
      <point x="84" y="0" type="line" smooth="yes"/>
      <point x="151" y="0"/>
      <point x="206" y="54"/>
      <point x="206" y="121" type="curve" smooth="yes"/>
      <point x="206" y="598" type="line" smooth="yes"/>
      <point x="206" y="666"/>
      <point x="151" y="720"/>
      <point x="84" y="720" type="curve" smooth="yes"/>
      <point x="56" y="720" type="line"/>
      <point x="56" y="637" type="line"/>
      <point x="84" y="637" type="line" smooth="yes"/>
      <point x="106" y="637"/>
      <point x="123" y="619"/>
      <point x="123" y="598" type="curve" smooth="yes"/>
      <point x="123" y="121" type="line" smooth="yes"/>
      <point x="123" y="100"/>
      <point x="106" y="82"/>
      <point x="84" y="82" type="curve" smooth="yes"/>
      <point x="56" y="82" type="line"/>
    </contour>
  </outline>
</glyph>
<glyph name="asterisk" format="1">
  <advance width="491"/>
  <unicode hex="002A"/>
  <outline>
    <contour>
      <point x="423" y="614" type="line"/>
      <point x="278" y="566" type="line"/>
      <point x="278" y="719" type="line"/>
      <point x="196" y="719" type="line"/>
      <point x="196" y="565" type="line"/>
      <point x="49" y="614" type="line"/>
      <point x="25" y="535" type="line"/>
      <point x="170" y="488" type="line"/>
      <point x="80" y="362" type="line"/>
      <point x="105" y="344"/>
      <point x="120" y="335"/>
      <point x="147" y="315" type="curve"/>
      <point x="237" y="438" type="line"/>
      <point x="328" y="315" type="line"/>
      <point x="353" y="332"/>
      <point x="367" y="344"/>
      <point x="394" y="363" type="curve"/>
      <point x="366" y="401"/>
      <point x="328" y="453"/>
      <point x="304" y="488" type="curve"/>
      <point x="450" y="535" type="line"/>
    </contour>
  </outline>
</glyph>
<glyph name="plus" format="1">
  <advance width="433"/>
  <unicode hex="002B"/>
  <outline>
    <contour>
      <point x="169" y="490" type="line"/>
      <point x="169" y="337" type="line"/>
      <point x="17" y="337" type="line"/>
      <point x="17" y="255" type="line"/>
      <point x="169" y="255" type="line"/>
      <point x="169" y="100" type="line"/>
      <point x="251" y="100" type="line"/>
      <point x="251" y="255" type="line"/>
      <point x="407" y="255" type="line"/>
      <point x="407" y="337" type="line"/>
      <point x="251" y="337" type="line"/>
      <point x="251" y="490" type="line"/>
    </contour>
  </outline>
</glyph>
<glyph name="comma" format="1">
  <advance width="193"/>
  <unicode hex="002C"/>
  <outline>
    <contour>
      <point x="54" y="82" type="line"/>
      <point x="54" y="-131" type="line"/>
      <point x="102" y="-115"/>
      <point x="136" y="-70"/>
      <point x="136" y="-16" type="curve" smooth="yes"/>
      <point x="136" y="82" type="line"/>
    </contour>
  </outline>
</glyph>
<glyph name="hyphen" format="1">
  <advance width="517"/>
  <unicode hex="002D"/>
  <outline>
    <contour>
      <point x="449" y="337" type="line"/>
      <point x="59" y="337" type="line"/>
      <point x="59" y="255" type="line"/>
      <point x="449" y="255" type="line"/>
    </contour>
  </outline>
</glyph>
<glyph name="period" format="1">
  <advance width="214"/>
  <unicode hex="002E"/>
  <outline>
    <contour>
      <point x="136" y="82" type="line"/>
      <point x="54" y="82" type="line"/>
      <point x="54" y="0" type="line"/>
      <point x="136" y="0" type="line"/>
    </contour>
  </outline>
</glyph>
<glyph name="zero" format="1">
  <advance width="834"/>
  <unicode hex="0030"/>
  <outline>
    <contour>
      <point x="178" y="720" type="line" smooth="yes"/>
      <point x="110" y="720"/>
      <point x="57" y="666"/>
      <point x="57" y="598" type="curve" smooth="yes"/>
      <point x="57" y="121" type="line" smooth="yes"/>
      <point x="57" y="54"/>
      <point x="110" y="0"/>
      <point x="178" y="0" type="curve" smooth="yes"/>
      <point x="663" y="0" type="line" smooth="yes"/>
      <point x="730" y="0"/>
      <point x="784" y="54"/>
      <point x="784" y="121" type="curve" smooth="yes"/>
      <point x="784" y="598" type="line" smooth="yes"/>
      <point x="784" y="666"/>
      <point x="730" y="720"/>
      <point x="663" y="720" type="curve" smooth="yes"/>
    </contour>
    <contour>
      <point x="691" y="637" type="line"/>
      <point x="139" y="181" type="line"/>
      <point x="139" y="598" type="line" smooth="yes"/>
      <point x="139" y="619"/>
      <point x="157" y="637"/>
      <point x="178" y="637" type="curve" smooth="yes"/>
    </contour>
    <contour>
      <point x="149" y="82" type="line"/>
      <point x="702" y="538" type="line"/>
      <point x="702" y="121" type="line" smooth="yes"/>
      <point x="702" y="100"/>
      <point x="684" y="82"/>
      <point x="663" y="82" type="curve" smooth="yes"/>
    </contour>
  </outline>
</glyph>
<glyph name="one" format="1">
  <advance width="391"/>
  <unicode hex="0031"/>
  <outline>
    <contour>
      <point x="1" y="495" type="line"/>
      <point x="108" y="495" type="line"/>
      <point x="137" y="531"/>
      <point x="192" y="594"/>
      <point x="219" y="628" type="curve"/>
      <point x="219" y="0" type="line"/>
      <point x="302" y="0" type="line"/>
      <point x="302" y="720" type="line"/>
      <point x="190" y="720" type="line"/>
    </contour>
  </outline>
</glyph>
<glyph name="two" format="1">
  <advance width="830"/>
  <unicode hex="0032"/>
  <outline>
    <contour>
      <point x="178" y="721" type="line" smooth="yes"/>
      <point x="110" y="721"/>
      <point x="57" y="667"/>
      <point x="57" y="599" type="curve" smooth="yes"/>
      <point x="57" y="571" type="line"/>
      <point x="139" y="571" type="line"/>
      <point x="139" y="599" type="line" smooth="yes"/>
      <point x="139" y="620"/>
      <point x="157" y="638"/>
      <point x="178" y="638" type="curve" smooth="yes"/>
      <point x="663" y="638" type="line" smooth="yes"/>
      <point x="684" y="638"/>
      <point x="702" y="620"/>
      <point x="702" y="599" type="curve" smooth="yes"/>
      <point x="702" y="430" type="line" smooth="yes"/>
      <point x="702" y="409"/>
      <point x="684" y="391"/>
      <point x="663" y="391" type="curve" smooth="yes"/>
      <point x="178" y="391" type="line" smooth="yes"/>
      <point x="110" y="391"/>
      <point x="57" y="338"/>
      <point x="57" y="270" type="curve" smooth="yes"/>
      <point x="57" y="0" type="line"/>
      <point x="784" y="0" type="line"/>
      <point x="784" y="82" type="line"/>
      <point x="178" y="82" type="line" smooth="yes"/>
      <point x="157" y="82"/>
      <point x="139" y="100"/>
      <point x="139" y="121" type="curve" smooth="yes"/>
      <point x="139" y="270" type="line" smooth="yes"/>
      <point x="139" y="291"/>
      <point x="157" y="309"/>
      <point x="178" y="309" type="curve" smooth="yes"/>
      <point x="663" y="309" type="line" smooth="yes"/>
      <point x="730" y="309"/>
      <point x="784" y="363"/>
      <point x="784" y="430" type="curve" smooth="yes"/>
      <point x="784" y="599" type="line" smooth="yes"/>
      <point x="784" y="667"/>
      <point x="730" y="721"/>
      <point x="663" y="721" type="curve" smooth="yes"/>
    </contour>
  </outline>
</glyph>
<glyph name="three" format="1">
  <advance width="826"/>
  <unicode hex="0033"/>
  <outline>
    <contour>
      <point x="737" y="396" type="line"/>
      <point x="744" y="411"/>
      <point x="749" y="429"/>
      <point x="749" y="448" type="curve" smooth="yes"/>
      <point x="749" y="599" type="line" smooth="yes"/>
      <point x="749" y="667"/>
      <point x="696" y="721"/>
      <point x="628" y="721" type="curve" smooth="yes"/>
      <point x="175" y="721" type="line" smooth="yes"/>
      <point x="107" y="721"/>
      <point x="53" y="667"/>
      <point x="53" y="599" type="curve" smooth="yes"/>
      <point x="53" y="573" type="line"/>
      <point x="136" y="573" type="line"/>
      <point x="136" y="599" type="line" smooth="yes"/>
      <point x="136" y="620"/>
      <point x="154" y="638"/>
      <point x="175" y="638" type="curve" smooth="yes"/>
      <point x="628" y="638" type="line" smooth="yes"/>
      <point x="649" y="638"/>
      <point x="667" y="620"/>
      <point x="667" y="599" type="curve" smooth="yes"/>
      <point x="667" y="448" type="line" smooth="yes"/>
      <point x="667" y="427"/>
      <point x="649" y="409"/>
      <point x="628" y="409" type="curve" smooth="yes"/>
      <point x="191" y="409" type="line"/>
      <point x="191" y="327" type="line"/>
      <point x="660" y="327" type="line" smooth="yes"/>
      <point x="681" y="327"/>
      <point x="699" y="309"/>
      <point x="699" y="288" type="curve" smooth="yes"/>
      <point x="699" y="121" type="line" smooth="yes"/>
      <point x="699" y="100"/>
      <point x="681" y="82"/>
      <point x="660" y="82" type="curve" smooth="yes"/>
      <point x="175" y="82" type="line" smooth="yes"/>
      <point x="154" y="82"/>
      <point x="136" y="100"/>
      <point x="136" y="121" type="curve" smooth="yes"/>
      <point x="136" y="137" type="line"/>
      <point x="53" y="137" type="line"/>
      <point x="53" y="121" type="line" smooth="yes"/>
      <point x="53" y="54"/>
      <point x="107" y="0"/>
      <point x="175" y="0" type="curve" smooth="yes"/>
      <point x="660" y="0" type="line" smooth="yes"/>
      <point x="727" y="0"/>
      <point x="781" y="54"/>
      <point x="781" y="121" type="curve" smooth="yes"/>
      <point x="781" y="288" type="line" smooth="yes"/>
      <point x="781" y="323"/>
      <point x="765" y="356"/>
      <point x="741" y="378" type="curve"/>
    </contour>
  </outline>
</glyph>
<glyph name="four" format="1">
  <advance width="730"/>
  <unicode hex="0034"/>
  <outline>
    <contour>
      <point x="590" y="268" type="line"/>
      <point x="590" y="721" type="line"/>
      <point x="498" y="721" type="line"/>
      <point x="334" y="571"/>
      <point x="171" y="427"/>
      <point x="6" y="278" type="curve"/>
      <point x="6" y="186" type="line"/>
      <point x="508" y="186" type="line"/>
      <point x="508" y="0" type="line"/>
      <point x="590" y="0" type="line"/>
      <point x="590" y="186" type="line"/>
      <point x="702" y="186" type="line"/>
      <point x="702" y="268" type="line"/>
    </contour>
    <contour>
      <point x="508" y="590" type="line"/>
      <point x="508" y="268" type="line"/>
      <point x="111" y="268" type="line"/>
    </contour>
  </outline>
</glyph>
<glyph name="five" format="1">
  <advance width="830"/>
  <unicode hex="0035"/>
  <outline>
    <contour>
      <point x="139" y="599" type="line" smooth="yes"/>
      <point x="139" y="620"/>
      <point x="157" y="638"/>
      <point x="178" y="638" type="curve" smooth="yes"/>
      <point x="784" y="638" type="line"/>
      <point x="784" y="721" type="line"/>
      <point x="57" y="721" type="line"/>
      <point x="57" y="330" type="line"/>
      <point x="663" y="330" type="line" smooth="yes"/>
      <point x="684" y="330"/>
      <point x="702" y="312"/>
      <point x="702" y="291" type="curve" smooth="yes"/>
      <point x="702" y="121" type="line" smooth="yes"/>
      <point x="702" y="100"/>
      <point x="684" y="82"/>
      <point x="663" y="82" type="curve" smooth="yes"/>
      <point x="178" y="82" type="line" smooth="yes"/>
      <point x="157" y="82"/>
      <point x="139" y="100"/>
      <point x="139" y="121" type="curve" smooth="yes"/>
      <point x="139" y="150" type="line"/>
      <point x="57" y="150" type="line"/>
      <point x="57" y="121" type="line" smooth="yes"/>
      <point x="57" y="54"/>
      <point x="110" y="0"/>
      <point x="178" y="0" type="curve" smooth="yes"/>
      <point x="663" y="0" type="line" smooth="yes"/>
      <point x="730" y="0"/>
      <point x="784" y="54"/>
      <point x="784" y="121" type="curve" smooth="yes"/>
      <point x="784" y="291" type="line" smooth="yes"/>
      <point x="784" y="359"/>
      <point x="730" y="412"/>
      <point x="663" y="412" type="curve" smooth="yes"/>
      <point x="178" y="412" type="line" smooth="yes"/>
      <point x="157" y="412"/>
      <point x="139" y="430"/>
      <point x="139" y="452" type="curve" smooth="yes"/>
    </contour>
  </outline>
</glyph>
<glyph name="six" format="1">
  <advance width="820"/>
  <unicode hex="0036"/>
  <outline>
    <contour>
      <point x="178" y="415" type="line" smooth="yes"/>
      <point x="157" y="415"/>
      <point x="139" y="433"/>
      <point x="139" y="455" type="curve" smooth="yes"/>
      <point x="139" y="599" type="line" smooth="yes"/>
      <point x="139" y="620"/>
      <point x="157" y="638"/>
      <point x="178" y="638" type="curve" smooth="yes"/>
      <point x="658" y="638" type="line"/>
      <point x="658" y="721" type="line"/>
      <point x="178" y="721" type="line" smooth="yes"/>
      <point x="110" y="721"/>
      <point x="57" y="667"/>
      <point x="57" y="599" type="curve" smooth="yes"/>
      <point x="57" y="121" type="line" smooth="yes"/>
      <point x="57" y="54"/>
      <point x="110" y="0"/>
      <point x="178" y="0" type="curve" smooth="yes"/>
      <point x="663" y="0" type="line" smooth="yes"/>
      <point x="730" y="0"/>
      <point x="784" y="54"/>
      <point x="784" y="121" type="curve" smooth="yes"/>
      <point x="784" y="294" type="line" smooth="yes"/>
      <point x="784" y="362"/>
      <point x="730" y="415"/>
      <point x="663" y="415" type="curve" smooth="yes"/>
    </contour>
    <contour>
      <point x="702" y="121" type="line" smooth="yes"/>
      <point x="702" y="100"/>
      <point x="684" y="82"/>
      <point x="663" y="82" type="curve" smooth="yes"/>
      <point x="178" y="82" type="line" smooth="yes"/>
      <point x="157" y="82"/>
      <point x="139" y="100"/>
      <point x="139" y="121" type="curve" smooth="yes"/>
      <point x="139" y="333" type="line"/>
      <point x="663" y="333" type="line" smooth="yes"/>
      <point x="684" y="333"/>
      <point x="702" y="315"/>
      <point x="702" y="294" type="curve" smooth="yes"/>
    </contour>
  </outline>
</glyph>
<glyph name="seven" format="1">
  <advance width="660"/>
  <unicode hex="0037"/>
  <outline>
    <contour>
      <point x="483" y="638" type="line" smooth="yes"/>
      <point x="504" y="638"/>
      <point x="522" y="620"/>
      <point x="522" y="599" type="curve" smooth="yes"/>
      <point x="522" y="0" type="line"/>
      <point x="604" y="0" type="line"/>
      <point x="604" y="599" type="line" smooth="yes"/>
      <point x="604" y="667"/>
      <point x="550" y="721"/>
      <point x="483" y="721" type="curve" smooth="yes"/>
      <point x="3" y="721" type="line"/>
      <point x="3" y="638" type="line"/>
    </contour>
  </outline>
</glyph>
<glyph name="eight" format="1">
  <advance width="834"/>
  <unicode hex="0038"/>
  <outline>
    <contour>
      <point x="784" y="619" type="line"/>
      <point x="769" y="671"/>
      <point x="719" y="721"/>
      <point x="663" y="721" type="curve" smooth="yes"/>
      <point x="178" y="721" type="line" smooth="yes"/>
      <point x="110" y="721"/>
      <point x="57" y="667"/>
      <point x="57" y="599" type="curve" smooth="yes"/>
      <point x="57" y="452" type="line" smooth="yes"/>
      <point x="57" y="425"/>
      <point x="68" y="397"/>
      <point x="87" y="371" type="curve"/>
      <point x="68" y="346"/>
      <point x="57" y="318"/>
      <point x="57" y="291" type="curve" smooth="yes"/>
      <point x="57" y="121" type="line" smooth="yes"/>
      <point x="57" y="54"/>
      <point x="110" y="0"/>
      <point x="178" y="0" type="curve" smooth="yes"/>
      <point x="663" y="0" type="line" smooth="yes"/>
      <point x="730" y="0"/>
      <point x="784" y="54"/>
      <point x="784" y="121" type="curve" smooth="yes"/>
      <point x="784" y="291" type="line" smooth="yes"/>
      <point x="784" y="318"/>
      <point x="773" y="346"/>
      <point x="754" y="371" type="curve"/>
      <point x="773" y="397"/>
      <point x="784" y="425"/>
      <point x="784" y="452" type="curve" smooth="yes"/>
    </contour>
    <contour>
      <point x="702" y="121" type="line" smooth="yes"/>
      <point x="702" y="100"/>
      <point x="684" y="82"/>
      <point x="663" y="82" type="curve" smooth="yes"/>
      <point x="178" y="82" type="line" smooth="yes"/>
      <point x="157" y="82"/>
      <point x="139" y="100"/>
      <point x="139" y="121" type="curve" smooth="yes"/>
      <point x="139" y="291" type="line" smooth="yes"/>
      <point x="139" y="312"/>
      <point x="157" y="330"/>
      <point x="178" y="330" type="curve" smooth="yes"/>
      <point x="663" y="330" type="line" smooth="yes"/>
      <point x="684" y="330"/>
      <point x="702" y="312"/>
      <point x="702" y="291" type="curve" smooth="yes"/>
    </contour>
    <contour>
      <point x="702" y="440" type="line" smooth="yes"/>
      <point x="702" y="419"/>
      <point x="684" y="401"/>
      <point x="663" y="401" type="curve" smooth="yes"/>
      <point x="178" y="401" type="line" smooth="yes"/>
      <point x="157" y="401"/>
      <point x="139" y="419"/>
      <point x="139" y="440" type="curve" smooth="yes"/>
      <point x="139" y="598" type="line" smooth="yes"/>
      <point x="139" y="619"/>
      <point x="157" y="637"/>
      <point x="178" y="637" type="curve" smooth="yes"/>
      <point x="663" y="637" type="line" smooth="yes"/>
      <point x="684" y="637"/>
      <point x="702" y="619"/>
      <point x="702" y="598" type="curve" smooth="yes"/>
    </contour>
  </outline>
</glyph>
<glyph name="nine" format="1">
  <advance width="828"/>
  <unicode hex="0039"/>
  <outline>
    <contour>
      <point x="658" y="305" type="line" smooth="yes"/>
      <point x="679" y="305"/>
      <point x="697" y="287"/>
      <point x="697" y="266" type="curve" smooth="yes"/>
      <point x="697" y="121" type="line" smooth="yes"/>
      <point x="697" y="100"/>
      <point x="679" y="82"/>
      <point x="658" y="82" type="curve" smooth="yes"/>
      <point x="58" y="82" type="line"/>
      <point x="74" y="34"/>
      <point x="120" y="0"/>
      <point x="173" y="0" type="curve" smooth="yes"/>
      <point x="658" y="0" type="line" smooth="yes"/>
      <point x="725" y="0"/>
      <point x="779" y="54"/>
      <point x="779" y="121" type="curve" smooth="yes"/>
      <point x="779" y="599" type="line" smooth="yes"/>
      <point x="779" y="667"/>
      <point x="725" y="721"/>
      <point x="658" y="721" type="curve" smooth="yes"/>
      <point x="173" y="721" type="line" smooth="yes"/>
      <point x="105" y="721"/>
      <point x="51" y="667"/>
      <point x="51" y="599" type="curve" smooth="yes"/>
      <point x="51" y="426" type="line" smooth="yes"/>
      <point x="51" y="359"/>
      <point x="105" y="305"/>
      <point x="173" y="305" type="curve" smooth="yes"/>
    </contour>
    <contour>
      <point x="134" y="599" type="line" smooth="yes"/>
      <point x="134" y="620"/>
      <point x="152" y="638"/>
      <point x="173" y="638" type="curve" smooth="yes"/>
      <point x="658" y="638" type="line" smooth="yes"/>
      <point x="679" y="638"/>
      <point x="697" y="620"/>
      <point x="697" y="599" type="curve" smooth="yes"/>
      <point x="697" y="387" type="line"/>
      <point x="173" y="387" type="line" smooth="yes"/>
      <point x="152" y="387"/>
      <point x="134" y="405"/>
      <point x="134" y="426" type="curve" smooth="yes"/>
    </contour>
  </outline>
</glyph>
<glyph name="colon" format="1">
  <advance width="214"/>
  <unicode hex="003A"/>
  <outline>
    <contour>
      <point x="54" y="82" type="line"/>
      <point x="54" y="0" type="line"/>
      <point x="136" y="0" type="line"/>
      <point x="136" y="82" type="line"/>
    </contour>
    <contour>
      <point x="136" y="588" type="line"/>
      <point x="54" y="588" type="line"/>
      <point x="54" y="506" type="line"/>
      <point x="136" y="506" type="line"/>
    </contour>
  </outline>
</glyph>
<glyph name="semicolon" format="1">
  <advance width="193"/>
  <unicode hex="003B"/>
  <outline>
    <contour>
      <point x="133" y="588" type="line"/>
      <point x="51" y="588" type="line"/>
      <point x="51" y="506" type="line"/>
      <point x="133" y="506" type="line"/>
    </contour>
    <contour>
      <point x="51" y="82" type="line"/>
      <point x="51" y="-131" type="line"/>
      <point x="99" y="-115"/>
      <point x="133" y="-70"/>
      <point x="133" y="-16" type="curve" smooth="yes"/>
      <point x="133" y="82" type="line"/>
    </contour>
  </outline>
</glyph>
<glyph name="less" format="1">
  <advance width="473"/>
  <unicode hex="003C"/>
  <outline>
    <contour>
      <point x="87" y="296" type="line"/>
      <point x="407" y="481" type="line"/>
      <point x="407" y="576" type="line"/>
      <point x="5" y="345" type="line"/>
      <point x="5" y="248" type="line"/>
      <point x="407" y="16" type="line"/>
      <point x="407" y="111" type="line"/>
    </contour>
  </outline>
</glyph>
<glyph name="equal" format="1">
  <advance width="638"/>
  <unicode hex="003D"/>
  <outline>
    <contour>
      <point x="576" y="233" type="line"/>
      <point x="59" y="233" type="line"/>
      <point x="59" y="151" type="line"/>
      <point x="576" y="151" type="line"/>
    </contour>
    <contour>
      <point x="576" y="433" type="line"/>
      <point x="59" y="433" type="line"/>
      <point x="59" y="351" type="line"/>
      <point x="576" y="351" type="line"/>
    </contour>
  </outline>
</glyph>
<glyph name="greater" format="1">
  <advance width="475"/>
  <unicode hex="003E"/>
  <outline>
    <contour>
      <point x="59" y="14" type="line"/>
      <point x="196" y="93"/>
      <point x="322" y="167"/>
      <point x="461" y="246" type="curve"/>
      <point x="461" y="343" type="line"/>
      <point x="59" y="574" type="line"/>
      <point x="59" y="479" type="line"/>
      <point x="379" y="294" type="line"/>
      <point x="59" y="109" type="line"/>
    </contour>
  </outline>
</glyph>
<glyph name="question" format="1">
  <advance width="678"/>
  <unicode hex="003F"/>
  <outline>
    <contour>
      <point x="31" y="720" type="line" smooth="yes"/>
      <point x="31" y="720"/>
      <point x="31" y="701"/>
      <point x="31" y="636" type="curve"/>
      <point x="548" y="636" type="line" smooth="yes"/>
      <point x="569" y="636"/>
      <point x="587" y="618"/>
      <point x="587" y="597" type="curve" smooth="yes"/>
      <point x="587" y="403" type="line" smooth="yes"/>
      <point x="587" y="382"/>
      <point x="569" y="364"/>
      <point x="548" y="364" type="curve" smooth="yes"/>
      <point x="274" y="364" type="line" smooth="yes"/>
      <point x="207" y="364"/>
      <point x="153" y="311"/>
      <point x="153" y="243" type="curve" smooth="yes"/>
      <point x="153" y="201" type="line"/>
      <point x="235" y="201" type="line"/>
      <point x="235" y="243" type="line" smooth="yes"/>
      <point x="235" y="264"/>
      <point x="253" y="282"/>
      <point x="274" y="282" type="curve" smooth="yes"/>
      <point x="548" y="282" type="line" smooth="yes"/>
      <point x="615" y="282"/>
      <point x="669" y="336"/>
      <point x="669" y="403" type="curve" smooth="yes"/>
      <point x="669" y="597" type="line" smooth="yes"/>
      <point x="669" y="665"/>
      <point x="615" y="719"/>
      <point x="548" y="719" type="curve" smooth="yes"/>
    </contour>
    <contour>
      <point x="235" y="0" type="line"/>
      <point x="235" y="82" type="line"/>
      <point x="153" y="82" type="line"/>
      <point x="153" y="0" type="line"/>
    </contour>
  </outline>
</glyph>
<glyph name="at" format="1">
  <advance width="831"/>
  <unicode hex="0040"/>
  <outline>
    <contour>
      <point x="373" y="519" type="line" smooth="yes"/>
      <point x="305" y="519"/>
      <point x="252" y="465"/>
      <point x="252" y="398" type="curve" smooth="yes"/>
      <point x="252" y="314" type="line" smooth="yes"/>
      <point x="252" y="246"/>
      <point x="305" y="192"/>
      <point x="373" y="192" type="curve" smooth="yes"/>
      <point x="784" y="192" type="line"/>
      <point x="784" y="598" type="line" smooth="yes"/>
      <point x="784" y="666"/>
      <point x="730" y="720"/>
      <point x="663" y="720" type="curve" smooth="yes"/>
      <point x="178" y="720" type="line" smooth="yes"/>
      <point x="110" y="720"/>
      <point x="57" y="666"/>
      <point x="57" y="598" type="curve" smooth="yes"/>
      <point x="57" y="121" type="line" smooth="yes"/>
      <point x="57" y="54"/>
      <point x="110" y="0"/>
      <point x="178" y="0" type="curve" smooth="yes"/>
      <point x="784" y="0" type="line"/>
      <point x="784" y="82" type="line"/>
      <point x="178" y="82" type="line" smooth="yes"/>
      <point x="157" y="82"/>
      <point x="139" y="100"/>
      <point x="139" y="121" type="curve" smooth="yes"/>
      <point x="139" y="598" type="line" smooth="yes"/>
      <point x="139" y="619"/>
      <point x="157" y="637"/>
      <point x="178" y="637" type="curve" smooth="yes"/>
      <point x="663" y="637" type="line" smooth="yes"/>
      <point x="684" y="637"/>
      <point x="702" y="619"/>
      <point x="702" y="598" type="curve" smooth="yes"/>
      <point x="702" y="254" type="line"/>
      <point x="589" y="254" type="line"/>
      <point x="589" y="398" type="line" smooth="yes"/>
      <point x="589" y="465"/>
      <point x="535" y="519"/>
      <point x="468" y="519" type="curve" smooth="yes"/>
    </contour>
    <contour>
      <point x="352" y="254" type="line" smooth="yes"/>
      <point x="331" y="254"/>
      <point x="313" y="271"/>
      <point x="313" y="293" type="curve" smooth="yes"/>
      <point x="313" y="419" type="line" smooth="yes"/>
      <point x="313" y="440"/>
      <point x="331" y="458"/>
      <point x="352" y="458" type="curve" smooth="yes"/>
      <point x="489" y="458" type="line" smooth="yes"/>
      <point x="510" y="458"/>
      <point x="528" y="440"/>
      <point x="528" y="419" type="curve" smooth="yes"/>
      <point x="528" y="254" type="line"/>
    </contour>
  </outline>
</glyph>
<glyph name="A" format="1">
  <advance width="836"/>
  <unicode hex="0041"/>
  <outline>
    <contour>
      <point x="178" y="720" type="line" smooth="yes"/>
      <point x="111" y="720"/>
      <point x="58" y="667"/>
      <point x="58" y="600" type="curve" smooth="yes"/>
      <point x="58" y="0" type="line"/>
      <point x="139" y="0" type="line"/>
      <point x="139" y="263" type="line"/>
      <point x="697" y="263" type="line"/>
      <point x="697" y="0" type="line"/>
      <point x="778" y="0" type="line"/>
      <point x="778" y="600" type="line" smooth="yes"/>
      <point x="778" y="667"/>
      <point x="725" y="720"/>
      <point x="658" y="720" type="curve" smooth="yes"/>
    </contour>
    <contour>
      <point x="139" y="344" type="line"/>
      <point x="139" y="600" type="line" smooth="yes"/>
      <point x="139" y="621"/>
      <point x="157" y="639"/>
      <point x="178" y="639" type="curve" smooth="yes"/>
      <point x="658" y="639" type="line" smooth="yes"/>
      <point x="679" y="639"/>
      <point x="697" y="621"/>
      <point x="697" y="600" type="curve" smooth="yes"/>
      <point x="697" y="344" type="line"/>
    </contour>
  </outline>
</glyph>
<glyph name="B" format="1">
  <advance width="832"/>
  <unicode hex="0042"/>
  <outline>
    <contour>
      <point x="735" y="394" type="line"/>
      <point x="743" y="410"/>
      <point x="748" y="428"/>
      <point x="748" y="447" type="curve" smooth="yes"/>
      <point x="748" y="600" type="line" smooth="yes"/>
      <point x="748" y="667"/>
      <point x="695" y="720"/>
      <point x="628" y="720" type="curve" smooth="yes"/>
      <point x="59" y="720" type="line"/>
      <point x="59" y="0" type="line"/>
      <point x="659" y="0" type="line" smooth="yes"/>
      <point x="726" y="0"/>
      <point x="779" y="53"/>
      <point x="779" y="120" type="curve" smooth="yes"/>
      <point x="779" y="288" type="line" smooth="yes"/>
      <point x="779" y="322"/>
      <point x="763" y="355"/>
      <point x="739" y="377" type="curve"/>
    </contour>
    <contour>
      <point x="628" y="639" type="line" smooth="yes"/>
      <point x="649" y="639"/>
      <point x="666" y="621"/>
      <point x="666" y="600" type="curve" smooth="yes"/>
      <point x="666" y="447" type="line" smooth="yes"/>
      <point x="666" y="426"/>
      <point x="649" y="408"/>
      <point x="628" y="408" type="curve" smooth="yes"/>
      <point x="179" y="408" type="line" smooth="yes"/>
      <point x="158" y="408"/>
      <point x="140" y="426"/>
      <point x="140" y="447" type="curve" smooth="yes"/>
      <point x="140" y="600" type="line" smooth="yes"/>
      <point x="140" y="621"/>
      <point x="158" y="639"/>
      <point x="179" y="639" type="curve" smooth="yes"/>
    </contour>
    <contour>
      <point x="698" y="120" type="line" smooth="yes"/>
      <point x="698" y="99"/>
      <point x="680" y="81"/>
      <point x="659" y="81" type="curve" smooth="yes"/>
      <point x="179" y="81" type="line" smooth="yes"/>
      <point x="158" y="81"/>
      <point x="140" y="99"/>
      <point x="140" y="120" type="curve" smooth="yes"/>
      <point x="140" y="288" type="line" smooth="yes"/>
      <point x="140" y="309"/>
      <point x="158" y="327"/>
      <point x="179" y="327" type="curve" smooth="yes"/>
      <point x="659" y="327" type="line" smooth="yes"/>
      <point x="680" y="327"/>
      <point x="698" y="309"/>
      <point x="698" y="288" type="curve" smooth="yes"/>
    </contour>
  </outline>
</glyph>
<glyph name="D" format="1">
  <advance width="834"/>
  <unicode hex="0044"/>
  <outline>
    <contour>
      <point x="58" y="720" type="line"/>
      <point x="58" y="0" type="line"/>
      <point x="658" y="0" type="line" smooth="yes"/>
      <point x="725" y="0"/>
      <point x="778" y="53"/>
      <point x="778" y="120" type="curve" smooth="yes"/>
      <point x="778" y="600" type="line" smooth="yes"/>
      <point x="778" y="667"/>
      <point x="725" y="720"/>
      <point x="658" y="720" type="curve" smooth="yes"/>
    </contour>
    <contour>
      <point x="697" y="120" type="line" smooth="yes"/>
      <point x="697" y="99"/>
      <point x="679" y="81"/>
      <point x="658" y="81" type="curve" smooth="yes"/>
      <point x="178" y="81" type="line" smooth="yes"/>
      <point x="157" y="81"/>
      <point x="139" y="99"/>
      <point x="139" y="120" type="curve" smooth="yes"/>
      <point x="139" y="600" type="line" smooth="yes"/>
      <point x="139" y="621"/>
      <point x="157" y="639"/>
      <point x="178" y="639" type="curve" smooth="yes"/>
      <point x="658" y="639" type="line" smooth="yes"/>
      <point x="679" y="639"/>
      <point x="697" y="621"/>
      <point x="697" y="600" type="curve" smooth="yes"/>
    </contour>
  </outline>
</glyph>
<glyph name="E" format="1">
  <advance width="766"/>
  <unicode hex="0045"/>
  <outline>
    <contour>
      <point x="715" y="720" type="line"/>
      <point x="58" y="720" type="line"/>
      <point x="58" y="0" type="line"/>
      <point x="715" y="0" type="line"/>
      <point x="715" y="81" type="line"/>
      <point x="139" y="81" type="line"/>
      <point x="139" y="319" type="line"/>
      <point x="602" y="319" type="line"/>
      <point x="602" y="401" type="line"/>
      <point x="139" y="401" type="line"/>
      <point x="139" y="639" type="line"/>
      <point x="715" y="639" type="line"/>
    </contour>
  </outline>
</glyph>
<glyph name="F" format="1">
  <advance width="723"/>
  <unicode hex="0046"/>
  <outline>
    <contour>
      <point x="58" y="720" type="line"/>
      <point x="58" y="0" type="line"/>
      <point x="139" y="0" type="line"/>
      <point x="139" y="319" type="line"/>
      <point x="602" y="319" type="line"/>
      <point x="602" y="401" type="line"/>
      <point x="139" y="401" type="line"/>
      <point x="139" y="639" type="line"/>
      <point x="715" y="639" type="line"/>
      <point x="715" y="720" type="line"/>
    </contour>
  </outline>
</glyph>
<glyph name="G" format="1">
  <advance width="830"/>
  <unicode hex="0047"/>
  <outline>
    <contour>
      <point x="776" y="600" type="line" smooth="yes"/>
      <point x="776" y="667"/>
      <point x="723" y="720"/>
      <point x="656" y="720" type="curve" smooth="yes"/>
      <point x="176" y="720" type="line" smooth="yes"/>
      <point x="109" y="720"/>
      <point x="56" y="667"/>
      <point x="56" y="600" type="curve" smooth="yes"/>
      <point x="56" y="120" type="line" smooth="yes"/>
      <point x="56" y="53"/>
      <point x="109" y="0"/>
      <point x="176" y="0" type="curve" smooth="yes"/>
      <point x="656" y="0" type="line" smooth="yes"/>
      <point x="723" y="0"/>
      <point x="776" y="53"/>
      <point x="776" y="120" type="curve" smooth="yes"/>
      <point x="776" y="380" type="line"/>
      <point x="517" y="380" type="line"/>
      <point x="517" y="298" type="line"/>
      <point x="695" y="298" type="line"/>
      <point x="695" y="120" type="line" smooth="yes"/>
      <point x="695" y="99"/>
      <point x="677" y="81"/>
      <point x="656" y="81" type="curve" smooth="yes"/>
      <point x="176" y="81" type="line" smooth="yes"/>
      <point x="155" y="81"/>
      <point x="137" y="99"/>
      <point x="137" y="120" type="curve" smooth="yes"/>
      <point x="137" y="600" type="line" smooth="yes"/>
      <point x="137" y="621"/>
      <point x="155" y="639"/>
      <point x="176" y="639" type="curve" smooth="yes"/>
      <point x="656" y="639" type="line" smooth="yes"/>
      <point x="677" y="639"/>
      <point x="695" y="621"/>
      <point x="695" y="600" type="curve" smooth="yes"/>
      <point x="695" y="571" type="line"/>
      <point x="776" y="571" type="line"/>
    </contour>
  </outline>
</glyph>
<glyph name="H" format="1">
  <advance width="851"/>
  <unicode hex="0048"/>
  <outline>
    <contour>
      <point x="713" y="720" type="line"/>
      <point x="713" y="401" type="line"/>
      <point x="138" y="401" type="line"/>
      <point x="138" y="720" type="line"/>
      <point x="57" y="720" type="line"/>
      <point x="57" y="0" type="line"/>
      <point x="138" y="0" type="line"/>
      <point x="138" y="319" type="line"/>
      <point x="713" y="319" type="line"/>
      <point x="713" y="0" type="line"/>
      <point x="795" y="0" type="line"/>
      <point x="795" y="720" type="line"/>
    </contour>
  </outline>
</glyph>
<glyph name="I" format="1">
  <advance width="220"/>
  <unicode hex="0049"/>
  <outline>
    <contour>
      <point x="57" y="0" type="line"/>
      <point x="138" y="0" type="line"/>
      <point x="138" y="720" type="line"/>
      <point x="57" y="720" type="line"/>
    </contour>
  </outline>
</glyph>
<glyph name="J" format="1">
  <advance width="780"/>
  <unicode hex="004A"/>
  <outline>
    <contour>
      <point x="643" y="120" type="line" smooth="yes"/>
      <point x="643" y="99"/>
      <point x="625" y="81"/>
      <point x="604" y="81" type="curve" smooth="yes"/>
      <point x="124" y="81" type="line" smooth="yes"/>
      <point x="103" y="81"/>
      <point x="85" y="99"/>
      <point x="85" y="120" type="curve" smooth="yes"/>
      <point x="85" y="177" type="line"/>
      <point x="4" y="177" type="line"/>
      <point x="4" y="120" type="line" smooth="yes"/>
      <point x="4" y="53"/>
      <point x="57" y="0"/>
      <point x="124" y="0" type="curve" smooth="yes"/>
      <point x="604" y="0" type="line" smooth="yes"/>
      <point x="671" y="0"/>
      <point x="724" y="53"/>
      <point x="724" y="120" type="curve" smooth="yes"/>
      <point x="724" y="720" type="line"/>
      <point x="643" y="720" type="line"/>
    </contour>
  </outline>
</glyph>
<glyph name="K" format="1">
  <advance width="797"/>
  <unicode hex="004B"/>
  <outline>
    <contour>
      <point x="639" y="720" type="line"/>
      <point x="552" y="616"/>
      <point x="458" y="505"/>
      <point x="371" y="401" type="curve"/>
      <point x="139" y="401" type="line"/>
      <point x="139" y="720" type="line"/>
      <point x="57" y="720" type="line"/>
      <point x="57" y="0" type="line"/>
      <point x="139" y="0" type="line"/>
      <point x="139" y="319" type="line"/>
      <point x="371" y="319" type="line"/>
      <point x="639" y="0" type="line"/>
      <point x="744" y="0" type="line"/>
      <point x="442" y="360" type="line"/>
      <point x="743" y="720" type="line"/>
    </contour>
  </outline>
</glyph>
<glyph name="M" format="1">
  <advance width="928"/>
  <unicode hex="004D"/>
  <outline>
    <contour>
      <point x="466" y="364" type="line"/>
      <point x="167" y="720" type="line"/>
      <point x="56" y="720" type="line"/>
      <point x="56" y="0" type="line"/>
      <point x="137" y="0" type="line"/>
      <point x="137" y="628" type="line"/>
      <point x="466" y="237" type="line"/>
      <point x="795" y="628" type="line"/>
      <point x="795" y="0" type="line"/>
      <point x="876" y="0" type="line"/>
      <point x="876" y="720" type="line"/>
      <point x="765" y="720" type="line"/>
    </contour>
  </outline>
</glyph>
<glyph name="N" format="1">
  <advance width="832"/>
  <unicode hex="004E"/>
  <outline>
    <contour>
      <point x="695" y="92" type="line"/>
      <point x="167" y="720" type="line"/>
      <point x="56" y="720" type="line"/>
      <point x="56" y="0" type="line"/>
      <point x="137" y="0" type="line"/>
      <point x="137" y="628" type="line"/>
      <point x="665" y="0" type="line"/>
      <point x="776" y="0" type="line"/>
      <point x="776" y="720" type="line"/>
      <point x="695" y="720" type="line"/>
    </contour>
  </outline>
</glyph>
<glyph name="P" format="1">
  <advance width="791"/>
  <unicode hex="0050"/>
  <outline>
    <contour>
      <point x="56" y="719" type="line"/>
      <point x="56" y="0" type="line"/>
      <point x="137" y="0" type="line"/>
      <point x="137" y="272" type="line"/>
      <point x="152" y="270"/>
      <point x="167" y="268"/>
      <point x="176" y="268" type="curve" smooth="yes"/>
      <point x="656" y="268" type="line" smooth="yes"/>
      <point x="723" y="268"/>
      <point x="776" y="322"/>
      <point x="776" y="388" type="curve" smooth="yes"/>
      <point x="776" y="599" type="line" smooth="yes"/>
      <point x="776" y="665"/>
      <point x="723" y="719"/>
      <point x="656" y="719" type="curve" smooth="yes"/>
    </contour>
    <contour>
      <point x="695" y="388" type="line" smooth="yes"/>
      <point x="695" y="367"/>
      <point x="677" y="350"/>
      <point x="656" y="350" type="curve" smooth="yes"/>
      <point x="176" y="350" type="line" smooth="yes"/>
      <point x="155" y="350"/>
      <point x="137" y="367"/>
      <point x="137" y="388" type="curve" smooth="yes"/>
      <point x="137" y="599" type="line" smooth="yes"/>
      <point x="137" y="620"/>
      <point x="155" y="638"/>
      <point x="176" y="638" type="curve" smooth="yes"/>
      <point x="656" y="638" type="line" smooth="yes"/>
      <point x="677" y="638"/>
      <point x="695" y="620"/>
      <point x="695" y="599" type="curve" smooth="yes"/>
    </contour>
  </outline>
</glyph>
<glyph name="R" format="1">
  <advance width="825"/>
  <unicode hex="0052"/>
  <outline>
    <contour>
      <point x="775" y="599" type="line" smooth="yes"/>
      <point x="775" y="665"/>
      <point x="722" y="719"/>
      <point x="655" y="719" type="curve" smooth="yes"/>
      <point x="55" y="719" type="line"/>
      <point x="55" y="0" type="line"/>
      <point x="136" y="0" type="line"/>
      <point x="136" y="272" type="line"/>
      <point x="151" y="270"/>
      <point x="165" y="268"/>
      <point x="175" y="268" type="curve" smooth="yes"/>
      <point x="439" y="268" type="line"/>
      <point x="664" y="0" type="line"/>
      <point x="771" y="0" type="line"/>
      <point x="545" y="268" type="line"/>
      <point x="655" y="268" type="line" smooth="yes"/>
      <point x="722" y="268"/>
      <point x="775" y="322"/>
      <point x="775" y="388" type="curve" smooth="yes"/>
    </contour>
    <contour>
      <point x="175" y="350" type="line" smooth="yes"/>
      <point x="154" y="350"/>
      <point x="136" y="367"/>
      <point x="136" y="388" type="curve" smooth="yes"/>
      <point x="136" y="599" type="line" smooth="yes"/>
      <point x="136" y="620"/>
      <point x="154" y="638"/>
      <point x="175" y="638" type="curve" smooth="yes"/>
      <point x="655" y="638" type="line" smooth="yes"/>
      <point x="676" y="638"/>
      <point x="693" y="620"/>
      <point x="693" y="599" type="curve" smooth="yes"/>
      <point x="693" y="388" type="line" smooth="yes"/>
      <point x="693" y="367"/>
      <point x="676" y="350"/>
      <point x="655" y="350" type="curve" smooth="yes"/>
    </contour>
  </outline>
</glyph>
<glyph name="S" format="1">
  <advance width="822"/>
  <unicode hex="0053"/>
  <outline>
    <contour>
      <point x="771" y="600" type="line" smooth="yes"/>
      <point x="771" y="667"/>
      <point x="718" y="720"/>
      <point x="651" y="720" type="curve" smooth="yes"/>
      <point x="171" y="720" type="line" smooth="yes"/>
      <point x="104" y="720"/>
      <point x="51" y="667"/>
      <point x="51" y="600" type="curve" smooth="yes"/>
      <point x="51" y="439" type="line" smooth="yes"/>
      <point x="51" y="373"/>
      <point x="104" y="319"/>
      <point x="171" y="319" type="curve" smooth="yes"/>
      <point x="651" y="319" type="line" smooth="yes"/>
      <point x="672" y="319"/>
      <point x="690" y="302"/>
      <point x="690" y="281" type="curve" smooth="yes"/>
      <point x="690" y="120" type="line" smooth="yes"/>
      <point x="690" y="99"/>
      <point x="672" y="81"/>
      <point x="651" y="81" type="curve" smooth="yes"/>
      <point x="171" y="81" type="line" smooth="yes"/>
      <point x="150" y="81"/>
      <point x="132" y="99"/>
      <point x="132" y="120" type="curve" smooth="yes"/>
      <point x="132" y="148" type="line"/>
      <point x="51" y="148" type="line"/>
      <point x="51" y="120" type="line" smooth="yes"/>
      <point x="51" y="53"/>
      <point x="104" y="0"/>
      <point x="171" y="0" type="curve" smooth="yes"/>
      <point x="651" y="0" type="line" smooth="yes"/>
      <point x="718" y="0"/>
      <point x="771" y="53"/>
      <point x="771" y="120" type="curve" smooth="yes"/>
      <point x="771" y="281" type="line" smooth="yes"/>
      <point x="771" y="347"/>
      <point x="718" y="401"/>
      <point x="651" y="401" type="curve" smooth="yes"/>
      <point x="171" y="401" type="line" smooth="yes"/>
      <point x="150" y="401"/>
      <point x="132" y="418"/>
      <point x="132" y="439" type="curve" smooth="yes"/>
      <point x="132" y="600" type="line" smooth="yes"/>
      <point x="132" y="621"/>
      <point x="150" y="639"/>
      <point x="171" y="639" type="curve" smooth="yes"/>
      <point x="651" y="639" type="line" smooth="yes"/>
      <point x="672" y="639"/>
      <point x="690" y="621"/>
      <point x="690" y="600" type="curve" smooth="yes"/>
      <point x="690" y="572" type="line"/>
      <point x="771" y="572" type="line"/>
    </contour>
  </outline>
</glyph>
<glyph name="T" format="1">
  <advance width="759"/>
  <unicode hex="0054"/>
  <outline>
    <contour>
      <point x="20" y="720" type="line"/>
      <point x="20" y="639" type="line"/>
      <point x="340" y="639" type="line"/>
      <point x="340" y="0" type="line"/>
      <point x="421" y="0" type="line"/>
      <point x="421" y="639" type="line"/>
      <point x="740" y="639" type="line"/>
      <point x="740" y="720" type="line"/>
    </contour>
  </outline>
</glyph>
<glyph name="U" format="1">
  <advance width="828"/>
  <unicode hex="0055"/>
  <outline>
    <contour>
      <point x="693" y="120" type="line" smooth="yes"/>
      <point x="693" y="99"/>
      <point x="675" y="81"/>
      <point x="654" y="81" type="curve" smooth="yes"/>
      <point x="174" y="81" type="line" smooth="yes"/>
      <point x="153" y="81"/>
      <point x="135" y="99"/>
      <point x="135" y="120" type="curve" smooth="yes"/>
      <point x="135" y="720" type="line"/>
      <point x="54" y="720" type="line"/>
      <point x="54" y="120" type="line" smooth="yes"/>
      <point x="54" y="53"/>
      <point x="107" y="0"/>
      <point x="174" y="0" type="curve" smooth="yes"/>
      <point x="654" y="0" type="line" smooth="yes"/>
      <point x="721" y="0"/>
      <point x="774" y="53"/>
      <point x="774" y="120" type="curve" smooth="yes"/>
      <point x="774" y="720" type="line"/>
      <point x="693" y="720" type="line"/>
    </contour>
  </outline>
</glyph>
<glyph name="V" format="1">
  <advance width="1003"/>
  <unicode hex="0056"/>
  <outline>
    <contour>
      <point x="499" y="79" type="line"/>
      <point x="130" y="720" type="line"/>
      <point x="35" y="720" type="line"/>
      <point x="173" y="478"/>
      <point x="312" y="242"/>
      <point x="452" y="0" type="curve"/>
      <point x="546" y="0" type="line"/>
      <point x="689" y="248"/>
      <point x="819" y="471"/>
      <point x="962" y="720" type="curve"/>
      <point x="867" y="720" type="line"/>
    </contour>
  </outline>
</glyph>
<glyph name="W" format="1">
  <advance width="1179"/>
  <unicode hex="0057"/>
  <outline>
    <contour>
      <point x="1060" y="720" type="line"/>
      <point x="996" y="541"/>
      <point x="914" y="319"/>
      <point x="851" y="142" type="curve"/>
      <point x="640" y="720" type="line"/>
      <point x="542" y="720" type="line"/>
      <point x="477" y="541"/>
      <point x="396" y="319"/>
      <point x="332" y="142" type="curve"/>
      <point x="121" y="720" type="line"/>
      <point x="35" y="720" type="line"/>
      <point x="297" y="0" type="line"/>
      <point x="367" y="0" type="line"/>
      <point x="591" y="615" type="line"/>
      <point x="815" y="0" type="line"/>
      <point x="886" y="0" type="line"/>
      <point x="1148" y="720" type="line"/>
    </contour>
  </outline>
</glyph>
<glyph name="X" format="1">
  <advance width="812"/>
  <unicode hex="0058"/>
  <outline>
    <contour>
      <point x="651" y="720" type="line"/>
      <point x="401" y="423" type="line"/>
      <point x="150" y="720" type="line"/>
      <point x="46" y="720" type="line"/>
      <point x="348" y="360" type="line"/>
      <point x="46" y="0" type="line"/>
      <point x="150" y="0" type="line"/>
      <point x="401" y="297" type="line"/>
      <point x="651" y="0" type="line"/>
      <point x="756" y="0" type="line"/>
      <point x="656" y="117"/>
      <point x="550" y="243"/>
      <point x="453" y="360" type="curve"/>
      <point x="755" y="720" type="line"/>
    </contour>
  </outline>
</glyph>
<glyph name="Y" format="1">
  <advance width="806"/>
  <unicode hex="0059"/>
  <outline>
    <contour>
      <point x="665" y="720" type="line"/>
      <point x="577" y="608"/>
      <point x="476" y="480"/>
      <point x="389" y="368" type="curve"/>
      <point x="110" y="720" type="line"/>
      <point x="17" y="720" type="line"/>
      <point x="126" y="573"/>
      <point x="241" y="418"/>
      <point x="348" y="271" type="curve"/>
      <point x="348" y="0" type="line"/>
      <point x="429" y="0" type="line"/>
      <point x="429" y="271" type="line"/>
      <point x="760" y="720" type="line"/>
    </contour>
  </outline>
</glyph>
<glyph name="Z" format="1">
  <advance width="821"/>
  <unicode hex="005A"/>
  <outline>
    <contour>
      <point x="51" y="639" type="line"/>
      <point x="679" y="639" type="line"/>
      <point x="51" y="111" type="line"/>
      <point x="51" y="0" type="line"/>
      <point x="771" y="0" type="line"/>
      <point x="771" y="81" type="line"/>
      <point x="143" y="81" type="line"/>
      <point x="771" y="609" type="line"/>
      <point x="771" y="720" type="line"/>
      <point x="51" y="720" type="line"/>
    </contour>
  </outline>
</glyph>
<glyph name="bracketleft" format="1">
  <advance width="275"/>
  <unicode hex="005B"/>
  <outline>
    <contour>
      <point x="54" y="0" type="line"/>
      <point x="204" y="0" type="line"/>
      <point x="204" y="82" type="line"/>
      <point x="136" y="82" type="line"/>
      <point x="136" y="638" type="line"/>
      <point x="204" y="638" type="line"/>
      <point x="204" y="721" type="line"/>
      <point x="54" y="721" type="line"/>
    </contour>
  </outline>
</glyph>
<glyph name="backslash" format="1">
  <advance width="520"/>
  <unicode hex="005C"/>
  <outline>
    <contour>
      <point x="511" y="107" type="line"/>
      <point x="5" y="725" type="line"/>
      <point x="5" y="621" type="line"/>
      <point x="511" y="1" type="line"/>
    </contour>
  </outline>
</glyph>
<glyph name="bracketright" format="1">
  <advance width="276"/>
  <unicode hex="005D"/>
  <outline>
    <contour>
      <point x="51" y="638" type="line"/>
      <point x="118" y="638" type="line"/>
      <point x="118" y="82" type="line"/>
      <point x="51" y="82" type="line"/>
      <point x="51" y="0" type="line"/>
      <point x="201" y="0" type="line"/>
      <point x="201" y="721" type="line"/>
      <point x="51" y="721" type="line"/>
    </contour>
  </outline>
</glyph>
<glyph name="underscore" format="1">
  <advance width="828"/>
  <unicode hex="005F"/>
  <outline>
    <contour>
      <point x="782" y="0" type="line"/>
      <point x="54" y="0" type="line"/>
      <point x="54" y="-82" type="line"/>
      <point x="782" y="-82" type="line"/>
    </contour>
  </outline>
</glyph>
<glyph name="grave" format="1">
  <advance width="213"/>
  <unicode hex="0060"/>
  <outline>
    <contour>
      <point x="113" y="1011" type="line"/>
      <point x="32" y="1011" type="line"/>
      <point x="45" y="960"/>
      <point x="54" y="926"/>
      <point x="67" y="872" type="curve"/>
      <point x="147" y="872" type="line"/>
    </contour>
  </outline>
</glyph>
<glyph name="c" format="1">
  <advance width="695"/>
  <unicode hex="0063"/>
  <outline>
    <contour>
      <point x="172" y="82" type="line" smooth="yes"/>
      <point x="151" y="82"/>
      <point x="133" y="100"/>
      <point x="133" y="121" type="curve" smooth="yes"/>
      <point x="133" y="459" type="line" smooth="yes"/>
      <point x="133" y="480"/>
      <point x="151" y="498"/>
      <point x="172" y="498" type="curve" smooth="yes"/>
      <point x="640" y="498" type="line"/>
      <point x="640" y="580" type="line"/>
      <point x="172" y="580" type="line" smooth="yes"/>
      <point x="105" y="580"/>
      <point x="51" y="526"/>
      <point x="51" y="459" type="curve" smooth="yes"/>
      <point x="51" y="121" type="line" smooth="yes"/>
      <point x="51" y="54"/>
      <point x="105" y="0"/>
      <point x="172" y="0" type="curve" smooth="yes"/>
      <point x="642" y="0" type="line"/>
      <point x="642" y="82" type="line"/>
    </contour>
  </outline>
</glyph>
<glyph name="d" format="1">
  <advance width="667"/>
  <unicode hex="0064"/>
  <outline>
    <contour>
      <point x="532" y="770" type="line"/>
      <point x="532" y="580" type="line"/>
      <point x="145" y="580" type="line" smooth="yes"/>
      <point x="77" y="580"/>
      <point x="23" y="526"/>
      <point x="23" y="459" type="curve" smooth="yes"/>
      <point x="23" y="121" type="line" smooth="yes"/>
      <point x="23" y="54"/>
      <point x="77" y="0"/>
      <point x="145" y="0" type="curve" smooth="yes"/>
      <point x="614" y="0" type="line"/>
      <point x="614" y="770" type="line"/>
    </contour>
    <contour>
      <point x="145" y="82" type="line" smooth="yes"/>
      <point x="124" y="82"/>
      <point x="106" y="100"/>
      <point x="106" y="121" type="curve" smooth="yes"/>
      <point x="106" y="459" type="line" smooth="yes"/>
      <point x="106" y="480"/>
      <point x="124" y="498"/>
      <point x="145" y="498" type="curve" smooth="yes"/>
      <point x="493" y="498" type="line" smooth="yes"/>
      <point x="514" y="498"/>
      <point x="532" y="480"/>
      <point x="532" y="459" type="curve" smooth="yes"/>
      <point x="532" y="121" type="line" smooth="yes"/>
      <point x="532" y="100"/>
      <point x="514" y="82"/>
      <point x="493" y="82" type="curve" smooth="yes"/>
    </contour>
  </outline>
</glyph>
<glyph name="f" format="1">
  <advance width="407"/>
  <unicode hex="0066"/>
  <outline>
    <contour>
      <point x="386" y="688" type="line"/>
      <point x="386" y="770" type="line"/>
      <point x="174" y="770" type="line" smooth="yes"/>
      <point x="106" y="770"/>
      <point x="53" y="717"/>
      <point x="53" y="649" type="curve" smooth="yes"/>
      <point x="53" y="0" type="line"/>
      <point x="135" y="0" type="line"/>
      <point x="135" y="498" type="line"/>
      <point x="386" y="498" type="line"/>
      <point x="386" y="580" type="line"/>
      <point x="135" y="580" type="line"/>
      <point x="135" y="649" type="line" smooth="yes"/>
      <point x="135" y="670"/>
      <point x="153" y="688"/>
      <point x="174" y="688" type="curve" smooth="yes"/>
    </contour>
  </outline>
</glyph>
<glyph name="g" format="1">
  <advance width="683"/>
  <unicode hex="0067"/>
  <outline>
    <contour>
      <point x="631" y="459" type="line" smooth="yes"/>
      <point x="631" y="526"/>
      <point x="578" y="580"/>
      <point x="510" y="580" type="curve" smooth="yes"/>
      <point x="162" y="580" type="line" smooth="yes"/>
      <point x="95" y="580"/>
      <point x="41" y="526"/>
      <point x="41" y="459" type="curve" smooth="yes"/>
      <point x="41" y="121" type="line" smooth="yes"/>
      <point x="41" y="54"/>
      <point x="95" y="0"/>
      <point x="162" y="0" type="curve" smooth="yes"/>
      <point x="549" y="0" type="line"/>
      <point x="549" y="-107" type="line" smooth="yes"/>
      <point x="549" y="-128"/>
      <point x="531" y="-146"/>
      <point x="510" y="-146" type="curve" smooth="yes"/>
      <point x="148" y="-146" type="line"/>
      <point x="148" y="-229" type="line"/>
      <point x="510" y="-229" type="line" smooth="yes"/>
      <point x="578" y="-229"/>
      <point x="631" y="-175"/>
      <point x="631" y="-107" type="curve" smooth="yes"/>
    </contour>
    <contour>
      <point x="162" y="82" type="line" smooth="yes"/>
      <point x="141" y="82"/>
      <point x="123" y="100"/>
      <point x="123" y="121" type="curve" smooth="yes"/>
      <point x="123" y="459" type="line" smooth="yes"/>
      <point x="123" y="480"/>
      <point x="141" y="498"/>
      <point x="162" y="498" type="curve" smooth="yes"/>
      <point x="510" y="498" type="line" smooth="yes"/>
      <point x="531" y="498"/>
      <point x="549" y="480"/>
      <point x="549" y="459" type="curve" smooth="yes"/>
      <point x="549" y="121" type="line" smooth="yes"/>
      <point x="549" y="100"/>
      <point x="531" y="82"/>
      <point x="510" y="82" type="curve" smooth="yes"/>
    </contour>
  </outline>
</glyph>
<glyph name="h" format="1">
  <advance width="668"/>
  <unicode hex="0068"/>
  <outline>
    <contour>
      <point x="136" y="580" type="line"/>
      <point x="136" y="770" type="line"/>
      <point x="54" y="770" type="line"/>
      <point x="54" y="0" type="line"/>
      <point x="136" y="0" type="line"/>
      <point x="136" y="459" type="line" smooth="yes"/>
      <point x="136" y="480"/>
      <point x="154" y="498"/>
      <point x="176" y="498" type="curve" smooth="yes"/>
      <point x="524" y="498" type="line" smooth="yes"/>
      <point x="545" y="498"/>
      <point x="563" y="480"/>
      <point x="563" y="459" type="curve" smooth="yes"/>
      <point x="563" y="0" type="line"/>
      <point x="645" y="0" type="line"/>
      <point x="645" y="459" type="line" smooth="yes"/>
      <point x="645" y="526"/>
      <point x="590" y="580"/>
      <point x="524" y="580" type="curve" smooth="yes"/>
    </contour>
  </outline>
</glyph>
<glyph name="j" format="1">
  <advance width="239"/>
  <unicode hex="006A"/>
  <outline>
    <contour>
      <point x="97" y="770" type="line"/>
      <point x="97" y="688" type="line"/>
      <point x="180" y="688" type="line"/>
      <point x="180" y="770" type="line"/>
    </contour>
    <contour>
      <point x="180" y="580" type="line"/>
      <point x="97" y="580" type="line"/>
      <point x="97" y="-121" type="line" smooth="yes"/>
      <point x="97" y="-142"/>
      <point x="79" y="-160"/>
      <point x="58" y="-160" type="curve" smooth="yes"/>
      <point x="-187" y="-160" type="line"/>
      <point x="-187" y="-243" type="line"/>
      <point x="58" y="-243" type="line" smooth="yes"/>
      <point x="126" y="-243"/>
      <point x="180" y="-189"/>
      <point x="180" y="-121" type="curve" smooth="yes"/>
    </contour>
  </outline>
</glyph>
<glyph name="k" format="1">
  <advance width="646"/>
  <unicode hex="006B"/>
  <outline>
    <contour>
      <point x="524" y="580" type="line"/>
      <point x="296" y="331" type="line"/>
      <point x="136" y="331" type="line"/>
      <point x="136" y="770" type="line"/>
      <point x="54" y="770" type="line"/>
      <point x="54" y="0" type="line"/>
      <point x="136" y="0" type="line"/>
      <point x="136" y="249" type="line"/>
      <point x="296" y="249" type="line"/>
      <point x="524" y="0" type="line"/>
      <point x="631" y="0" type="line"/>
      <point x="369" y="290" type="line"/>
      <point x="632" y="580" type="line"/>
    </contour>
  </outline>
</glyph>
<glyph name="l" format="1">
  <advance width="302"/>
  <unicode hex="006C"/>
  <outline>
    <contour>
      <point x="52" y="770" type="line"/>
      <point x="52" y="121" type="line" smooth="yes"/>
      <point x="52" y="54"/>
      <point x="106" y="0"/>
      <point x="173" y="0" type="curve" smooth="yes"/>
      <point x="271" y="0" type="line"/>
      <point x="271" y="82" type="line"/>
      <point x="173" y="82" type="line" smooth="yes"/>
      <point x="152" y="82"/>
      <point x="134" y="100"/>
      <point x="134" y="121" type="curve" smooth="yes"/>
      <point x="134" y="770" type="line"/>
    </contour>
  </outline>
</glyph>
<glyph name="m" format="1">
  <advance width="978"/>
  <unicode hex="006D"/>
  <outline>
    <contour>
      <point x="54" y="580" type="line"/>
      <point x="54" y="0" type="line"/>
      <point x="137" y="0" type="line"/>
      <point x="137" y="459" type="line" smooth="yes"/>
      <point x="137" y="480"/>
      <point x="155" y="498"/>
      <point x="176" y="498" type="curve" smooth="yes"/>
      <point x="418" y="498" type="line" smooth="yes"/>
      <point x="439" y="498"/>
      <point x="457" y="480"/>
      <point x="457" y="459" type="curve" smooth="yes"/>
      <point x="457" y="0" type="line"/>
      <point x="540" y="0" type="line"/>
      <point x="540" y="459" type="line" smooth="yes"/>
      <point x="540" y="480"/>
      <point x="557" y="498"/>
      <point x="579" y="498" type="curve" smooth="yes"/>
      <point x="820" y="498" type="line" smooth="yes"/>
      <point x="842" y="498"/>
      <point x="860" y="480"/>
      <point x="860" y="459" type="curve" smooth="yes"/>
      <point x="860" y="0" type="line"/>
      <point x="941" y="0" type="line"/>
      <point x="941" y="459" type="line" smooth="yes"/>
      <point x="941" y="526"/>
      <point x="888" y="580"/>
      <point x="820" y="580" type="curve" smooth="yes"/>
    </contour>
  </outline>
</glyph>
<glyph name="p" format="1">
  <advance width="664"/>
  <unicode hex="0070"/>
  <outline>
    <contour>
      <point x="54" y="580" type="line"/>
      <point x="54" y="-230" type="line"/>
      <point x="136" y="-230" type="line"/>
      <point x="136" y="0" type="line"/>
      <point x="524" y="0" type="line" smooth="yes"/>
      <point x="591" y="0"/>
      <point x="645" y="54"/>
      <point x="645" y="121" type="curve" smooth="yes"/>
      <point x="645" y="459" type="line" smooth="yes"/>
      <point x="645" y="526"/>
      <point x="591" y="580"/>
      <point x="524" y="580" type="curve" smooth="yes"/>
    </contour>
    <contour>
      <point x="563" y="121" type="line" smooth="yes"/>
      <point x="563" y="100"/>
      <point x="545" y="82"/>
      <point x="524" y="82" type="curve" smooth="yes"/>
      <point x="176" y="82" type="line" smooth="yes"/>
      <point x="154" y="82"/>
      <point x="136" y="100"/>
      <point x="136" y="121" type="curve" smooth="yes"/>
      <point x="136" y="459" type="line" smooth="yes"/>
      <point x="136" y="480"/>
      <point x="154" y="498"/>
      <point x="176" y="498" type="curve" smooth="yes"/>
      <point x="524" y="498" type="line" smooth="yes"/>
      <point x="545" y="498"/>
      <point x="563" y="480"/>
      <point x="563" y="459" type="curve" smooth="yes"/>
    </contour>
  </outline>
</glyph>
<glyph name="q" format="1">
  <advance width="664"/>
  <unicode hex="0071"/>
  <outline>
    <contour>
      <point x="20" y="121" type="line" smooth="yes"/>
      <point x="20" y="54"/>
      <point x="74" y="0"/>
      <point x="142" y="0" type="curve" smooth="yes"/>
      <point x="529" y="0" type="line"/>
      <point x="529" y="-230" type="line"/>
      <point x="611" y="-230" type="line"/>
      <point x="611" y="580" type="line"/>
      <point x="142" y="580" type="line" smooth="yes"/>
      <point x="74" y="580"/>
      <point x="20" y="526"/>
      <point x="20" y="459" type="curve" smooth="yes"/>
    </contour>
    <contour>
      <point x="103" y="459" type="line" smooth="yes"/>
      <point x="103" y="480"/>
      <point x="120" y="498"/>
      <point x="142" y="498" type="curve" smooth="yes"/>
      <point x="490" y="498" type="line" smooth="yes"/>
      <point x="511" y="498"/>
      <point x="529" y="480"/>
      <point x="529" y="459" type="curve" smooth="yes"/>
      <point x="529" y="121" type="line" smooth="yes"/>
      <point x="529" y="100"/>
      <point x="511" y="82"/>
      <point x="490" y="82" type="curve" smooth="yes"/>
      <point x="142" y="82" type="line" smooth="yes"/>
      <point x="120" y="82"/>
      <point x="103" y="100"/>
      <point x="103" y="121" type="curve" smooth="yes"/>
    </contour>
  </outline>
</glyph>
<glyph name="r" format="1">
  <advance width="512"/>
  <unicode hex="0072"/>
  <outline>
    <contour>
      <point x="173" y="580" type="line" smooth="yes"/>
      <point x="106" y="580"/>
      <point x="52" y="526"/>
      <point x="52" y="459" type="curve" smooth="yes"/>
      <point x="52" y="0" type="line"/>
      <point x="134" y="0" type="line"/>
      <point x="134" y="459" type="line" smooth="yes"/>
      <point x="134" y="480"/>
      <point x="152" y="498"/>
      <point x="173" y="498" type="curve" smooth="yes"/>
      <point x="499" y="498" type="line"/>
      <point x="499" y="580" type="line"/>
    </contour>
  </outline>
</glyph>
<glyph name="s" format="1">
  <advance width="686"/>
  <unicode hex="0073"/>
  <outline>
    <contour>
      <point x="639" y="459" type="line" smooth="yes"/>
      <point x="639" y="526"/>
      <point x="585" y="580"/>
      <point x="517" y="580" type="curve" smooth="yes"/>
      <point x="169" y="580" type="line" smooth="yes"/>
      <point x="102" y="580"/>
      <point x="48" y="526"/>
      <point x="48" y="459" type="curve" smooth="yes"/>
      <point x="48" y="370" type="line" smooth="yes"/>
      <point x="48" y="303"/>
      <point x="102" y="249"/>
      <point x="169" y="249" type="curve" smooth="yes"/>
      <point x="517" y="249" type="line" smooth="yes"/>
      <point x="538" y="249"/>
      <point x="556" y="231"/>
      <point x="556" y="210" type="curve" smooth="yes"/>
      <point x="556" y="121" type="line" smooth="yes"/>
      <point x="556" y="100"/>
      <point x="538" y="82"/>
      <point x="517" y="82" type="curve" smooth="yes"/>
      <point x="169" y="82" type="line" smooth="yes"/>
      <point x="148" y="82"/>
      <point x="130" y="100"/>
      <point x="130" y="121" type="curve" smooth="yes"/>
      <point x="130" y="129" type="line"/>
      <point x="48" y="129" type="line"/>
      <point x="48" y="121" type="line" smooth="yes"/>
      <point x="48" y="54"/>
      <point x="102" y="0"/>
      <point x="169" y="0" type="curve" smooth="yes"/>
      <point x="517" y="0" type="line" smooth="yes"/>
      <point x="585" y="0"/>
      <point x="639" y="54"/>
      <point x="639" y="121" type="curve" smooth="yes"/>
      <point x="639" y="210" type="line" smooth="yes"/>
      <point x="639" y="277"/>
      <point x="585" y="331"/>
      <point x="517" y="331" type="curve" smooth="yes"/>
      <point x="169" y="331" type="line" smooth="yes"/>
      <point x="148" y="331"/>
      <point x="130" y="349"/>
      <point x="130" y="370" type="curve" smooth="yes"/>
      <point x="130" y="459" type="line" smooth="yes"/>
      <point x="130" y="480"/>
      <point x="148" y="498"/>
      <point x="169" y="498" type="curve" smooth="yes"/>
      <point x="517" y="498" type="line" smooth="yes"/>
      <point x="538" y="498"/>
      <point x="556" y="480"/>
      <point x="556" y="459" type="curve" smooth="yes"/>
      <point x="556" y="451" type="line"/>
      <point x="639" y="451" type="line"/>
    </contour>
  </outline>
</glyph>
<glyph name="t" format="1">
  <advance width="410"/>
  <unicode hex="0074"/>
  <outline>
    <contour>
      <point x="386" y="498" type="line"/>
      <point x="386" y="580" type="line"/>
      <point x="135" y="580" type="line"/>
      <point x="135" y="770" type="line"/>
      <point x="53" y="770" type="line"/>
      <point x="53" y="121" type="line" smooth="yes"/>
      <point x="53" y="54"/>
      <point x="106" y="0"/>
      <point x="174" y="0" type="curve" smooth="yes"/>
      <point x="386" y="0" type="line"/>
      <point x="386" y="82" type="line"/>
      <point x="174" y="82" type="line" smooth="yes"/>
      <point x="153" y="82"/>
      <point x="135" y="100"/>
      <point x="135" y="121" type="curve" smooth="yes"/>
      <point x="135" y="498" type="line"/>
    </contour>
  </outline>
</glyph>
<glyph name="v" format="1">
  <advance width="790"/>
  <unicode hex="0076"/>
  <outline>
    <contour>
      <point x="661" y="580" type="line"/>
      <point x="389" y="80" type="line"/>
      <point x="117" y="580" type="line"/>
      <point x="21" y="580" type="line"/>
      <point x="127" y="386"/>
      <point x="235" y="195"/>
      <point x="341" y="0" type="curve"/>
      <point x="436" y="0" type="line"/>
      <point x="757" y="580" type="line"/>
    </contour>
  </outline>
</glyph>
<glyph name="w" format="1">
  <advance width="1071"/>
  <unicode hex="0077"/>
  <outline>
    <contour>
      <point x="957" y="580" type="line"/>
      <point x="793" y="149" type="line"/>
      <point x="594" y="580" type="line"/>
      <point x="486" y="580" type="line"/>
      <point x="299" y="148" type="line"/>
      <point x="123" y="580" type="line"/>
      <point x="35" y="580" type="line"/>
      <point x="112" y="384"/>
      <point x="185" y="197"/>
      <point x="263" y="0" type="curve"/>
      <point x="335" y="0" type="line"/>
      <point x="540" y="479" type="line"/>
      <point x="756" y="0" type="line"/>
      <point x="827" y="0" type="line"/>
      <point x="1046" y="580" type="line"/>
    </contour>
  </outline>
</glyph>
<glyph name="x" format="1">
  <advance width="692"/>
  <unicode hex="0078"/>
  <outline>
    <contour>
      <point x="531" y="580" type="line"/>
      <point x="473" y="513"/>
      <point x="398" y="426"/>
      <point x="342" y="360" type="curve"/>
      <point x="154" y="580" type="line"/>
      <point x="46" y="580" type="line"/>
      <point x="288" y="295" type="line"/>
      <point x="46" y="0" type="line"/>
      <point x="154" y="0" type="line"/>
      <point x="213" y="72"/>
      <point x="284" y="161"/>
      <point x="342" y="232" type="curve"/>
      <point x="531" y="0" type="line"/>
      <point x="639" y="0" type="line"/>
      <point x="396" y="295" type="line"/>
      <point x="638" y="580" type="line"/>
    </contour>
  </outline>
</glyph>
<glyph name="y" format="1">
  <advance width="685"/>
  <unicode hex="0079"/>
  <outline>
    <contour>
      <point x="632" y="578" type="line"/>
      <point x="550" y="578" type="line"/>
      <point x="550" y="121" type="line" smooth="yes"/>
      <point x="550" y="100"/>
      <point x="532" y="82"/>
      <point x="511" y="82" type="curve" smooth="yes"/>
      <point x="163" y="82" type="line" smooth="yes"/>
      <point x="142" y="82"/>
      <point x="124" y="100"/>
      <point x="124" y="121" type="curve" smooth="yes"/>
      <point x="124" y="578" type="line"/>
      <point x="42" y="578" type="line"/>
      <point x="42" y="121" type="line" smooth="yes"/>
      <point x="42" y="54"/>
      <point x="96" y="0"/>
      <point x="163" y="0" type="curve" smooth="yes"/>
      <point x="550" y="0" type="line"/>
      <point x="550" y="-108" type="line" smooth="yes"/>
      <point x="550" y="-129"/>
      <point x="532" y="-147"/>
      <point x="511" y="-147" type="curve" smooth="yes"/>
      <point x="149" y="-147" type="line"/>
      <point x="149" y="-230" type="line"/>
      <point x="511" y="-230" type="line" smooth="yes"/>
      <point x="579" y="-230"/>
      <point x="632" y="-176"/>
      <point x="632" y="-108" type="curve" smooth="yes"/>
    </contour>
  </outline>
</glyph>
<glyph name="z" format="1">
  <advance width="698"/>
  <unicode hex="007A"/>
  <outline>
    <contour>
      <point x="54" y="498" type="line"/>
      <point x="555" y="498" type="line"/>
      <point x="54" y="112" type="line"/>
      <point x="54" y="0" type="line"/>
      <point x="645" y="0" type="line"/>
      <point x="645" y="82" type="line"/>
      <point x="144" y="82" type="line"/>
      <point x="645" y="468" type="line"/>
      <point x="645" y="580" type="line"/>
      <point x="54" y="580" type="line"/>
    </contour>
  </outline>
</glyph>
<glyph name="braceleft" format="1">
  <advance width="289"/>
  <unicode hex="007B"/>
  <outline>
    <contour>
      <point x="152" y="291" type="line"/>
      <point x="68" y="360" type="line"/>
      <point x="152" y="427" type="line"/>
      <point x="152" y="598" type="line" smooth="yes"/>
      <point x="152" y="619"/>
      <point x="170" y="637"/>
      <point x="191" y="637" type="curve" smooth="yes"/>
      <point x="220" y="637" type="line"/>
      <point x="220" y="720" type="line"/>
      <point x="191" y="720" type="line" smooth="yes"/>
      <point x="124" y="720"/>
      <point x="70" y="666"/>
      <point x="70" y="598" type="curve" smooth="yes"/>
      <point x="70" y="434" type="line"/>
      <point x="23" y="409" type="line"/>
      <point x="23" y="313" type="line"/>
      <point x="38" y="304"/>
      <point x="58" y="291"/>
      <point x="70" y="284" type="curve"/>
      <point x="70" y="121" type="line" smooth="yes"/>
      <point x="70" y="54"/>
      <point x="124" y="0"/>
      <point x="191" y="0" type="curve" smooth="yes"/>
      <point x="220" y="0" type="line"/>
      <point x="220" y="82" type="line"/>
      <point x="191" y="82" type="line" smooth="yes"/>
      <point x="170" y="82"/>
      <point x="152" y="100"/>
      <point x="152" y="121" type="curve" smooth="yes"/>
    </contour>
  </outline>
</glyph>
<glyph name="bar" format="1">
  <advance width="214"/>
  <unicode hex="007C"/>
  <outline>
    <contour>
      <point x="54" y="-115" type="line"/>
      <point x="136" y="-115" type="line"/>
      <point x="136" y="842" type="line"/>
      <point x="54" y="842" type="line"/>
    </contour>
  </outline>
</glyph>
<glyph name="braceright" format="1">
  <advance width="289"/>
  <unicode hex="007D"/>
  <outline>
    <contour>
      <point x="119" y="121" type="line" smooth="yes"/>
      <point x="119" y="100"/>
      <point x="101" y="82"/>
      <point x="80" y="82" type="curve" smooth="yes"/>
      <point x="51" y="82" type="line"/>
      <point x="51" y="0" type="line"/>
      <point x="80" y="0" type="line" smooth="yes"/>
      <point x="147" y="0"/>
      <point x="201" y="54"/>
      <point x="201" y="121" type="curve" smooth="yes"/>
      <point x="201" y="283" type="line"/>
      <point x="247" y="312" type="line"/>
      <point x="247" y="407" type="line"/>
      <point x="233" y="415"/>
      <point x="215" y="427"/>
      <point x="201" y="434" type="curve"/>
      <point x="201" y="598" type="line" smooth="yes"/>
      <point x="201" y="666"/>
      <point x="147" y="720"/>
      <point x="80" y="720" type="curve" smooth="yes"/>
      <point x="51" y="720" type="line"/>
      <point x="51" y="637" type="line"/>
      <point x="80" y="637" type="line" smooth="yes"/>
      <point x="101" y="637"/>
      <point x="119" y="619"/>
      <point x="119" y="598" type="curve" smooth="yes"/>
      <point x="119" y="425" type="line"/>
      <point x="203" y="359" type="line"/>
      <point x="119" y="290" type="line"/>
    </contour>
  </outline>
</glyph>
<glyph name="asciitilde" format="1">
  <advance width="404"/>
  <unicode hex="007E"/>
  <outline>
    <contour>
      <point x="295" y="283" type="line"/>
      <point x="220" y="291"/>
      <point x="162" y="354"/>
      <point x="86" y="354" type="curve" smooth="yes"/>
      <point x="62" y="354"/>
      <point x="42" y="351"/>
      <point x="24" y="345" type="curve"/>
      <point x="24" y="308" type="line"/>
      <point x="44" y="315"/>
      <point x="70" y="316"/>
      <point x="86" y="316" type="curve" smooth="yes"/>
      <point x="167" y="316"/>
      <point x="224" y="245"/>
      <point x="297" y="245" type="curve" smooth="yes"/>
      <point x="321" y="245"/>
      <point x="344" y="251"/>
      <point x="363" y="258" type="curve"/>
      <point x="363" y="299" type="line"/>
      <point x="342" y="289"/>
      <point x="320" y="283"/>
      <point x="297" y="283" type="curve" smooth="yes"/>
    </contour>
  </outline>
</glyph>
<glyph name="exclamdown" format="1">
  <advance width="210"/>
  <unicode hex="00A1"/>
  <outline>
    <contour>
      <point x="135" y="728" type="line"/>
      <point x="53" y="728" type="line"/>
      <point x="53" y="645" type="line"/>
      <point x="135" y="645" type="line"/>
    </contour>
    <contour>
      <point x="135" y="0" type="line"/>
      <point x="135" y="517" type="line"/>
      <point x="53" y="517" type="line"/>
      <point x="53" y="0" type="line"/>
    </contour>
  </outline>
</glyph>
<glyph name="cent" format="1">
  <advance width="636"/>
  <unicode hex="00A2"/>
  <outline>
    <contour>
      <point x="621" y="508" type="line"/>
      <point x="621" y="591" type="line"/>
      <point x="369" y="591" type="line"/>
      <point x="369" y="726" type="line"/>
      <point x="287" y="726" type="line"/>
      <point x="287" y="591" type="line"/>
      <point x="154" y="591" type="line" smooth="yes"/>
      <point x="86" y="591"/>
      <point x="33" y="537"/>
      <point x="33" y="469" type="curve" smooth="yes"/>
      <point x="33" y="121" type="line" smooth="yes"/>
      <point x="33" y="54"/>
      <point x="86" y="0"/>
      <point x="154" y="0" type="curve" smooth="yes"/>
      <point x="287" y="0" type="line"/>
      <point x="287" y="-115" type="line"/>
      <point x="369" y="-115" type="line"/>
      <point x="369" y="0" type="line"/>
      <point x="621" y="0" type="line"/>
      <point x="621" y="82" type="line"/>
      <point x="369" y="82" type="line"/>
      <point x="369" y="508" type="line"/>
    </contour>
    <contour>
      <point x="287" y="82" type="line"/>
      <point x="154" y="82" type="line" smooth="yes"/>
      <point x="133" y="82"/>
      <point x="115" y="100"/>
      <point x="115" y="121" type="curve" smooth="yes"/>
      <point x="115" y="469" type="line" smooth="yes"/>
      <point x="115" y="490"/>
      <point x="133" y="508"/>
      <point x="154" y="508" type="curve" smooth="yes"/>
      <point x="287" y="508" type="line"/>
    </contour>
  </outline>
</glyph>
<glyph name="sterling" format="1">
  <advance width="734"/>
  <unicode hex="00A3"/>
  <outline>
    <contour>
      <point x="691" y="583" type="line"/>
      <point x="691" y="598" type="line" smooth="yes"/>
      <point x="691" y="666"/>
      <point x="637" y="720"/>
      <point x="569" y="720" type="curve" smooth="yes"/>
      <point x="266" y="720" type="line" smooth="yes"/>
      <point x="198" y="720"/>
      <point x="144" y="666"/>
      <point x="144" y="598" type="curve" smooth="yes"/>
      <point x="144" y="405" type="line"/>
      <point x="39" y="405" type="line"/>
      <point x="39" y="323" type="line"/>
      <point x="144" y="323" type="line"/>
      <point x="144" y="82" type="line"/>
      <point x="39" y="82" type="line"/>
      <point x="39" y="0" type="line"/>
      <point x="691" y="0" type="line"/>
      <point x="691" y="82" type="line"/>
      <point x="227" y="82" type="line"/>
      <point x="227" y="323" type="line"/>
      <point x="579" y="323" type="line"/>
      <point x="579" y="405" type="line"/>
      <point x="227" y="405" type="line"/>
      <point x="227" y="598" type="line" smooth="yes"/>
      <point x="227" y="619"/>
      <point x="245" y="637"/>
      <point x="266" y="637" type="curve" smooth="yes"/>
      <point x="569" y="637" type="line" smooth="yes"/>
      <point x="591" y="637"/>
      <point x="608" y="619"/>
      <point x="608" y="598" type="curve" smooth="yes"/>
      <point x="608" y="583" type="line"/>
    </contour>
  </outline>
</glyph>
<glyph name="dieresis" format="1">
  <advance width="385"/>
  <unicode hex="00A8"/>
  <outline>
    <contour>
      <point x="316" y="954" type="line"/>
      <point x="234" y="954" type="line"/>
      <point x="234" y="872" type="line"/>
      <point x="316" y="872" type="line"/>
    </contour>
    <contour>
      <point x="137" y="954" type="line"/>
      <point x="54" y="954" type="line"/>
      <point x="54" y="872" type="line"/>
      <point x="137" y="872" type="line"/>
    </contour>
  </outline>
</glyph>
<glyph name="degree" format="1">
  <advance width="439"/>
  <unicode hex="00B0"/>
  <outline>
    <contour>
      <point x="167" y="728" type="line" smooth="yes"/>
      <point x="99" y="728"/>
      <point x="45" y="674"/>
      <point x="45" y="606" type="curve" smooth="yes"/>
      <point x="45" y="522" type="line" smooth="yes"/>
      <point x="45" y="455"/>
      <point x="99" y="401"/>
      <point x="167" y="401" type="curve" smooth="yes"/>
      <point x="261" y="401" type="line" smooth="yes"/>
      <point x="329" y="401"/>
      <point x="383" y="455"/>
      <point x="383" y="522" type="curve" smooth="yes"/>
      <point x="383" y="606" type="line" smooth="yes"/>
      <point x="383" y="674"/>
      <point x="329" y="728"/>
      <point x="261" y="728" type="curve" smooth="yes"/>
    </contour>
    <contour>
      <point x="145" y="462" type="line" smooth="yes"/>
      <point x="124" y="462"/>
      <point x="106" y="480"/>
      <point x="106" y="501" type="curve" smooth="yes"/>
      <point x="106" y="627" type="line" smooth="yes"/>
      <point x="106" y="649"/>
      <point x="124" y="666"/>
      <point x="145" y="666" type="curve" smooth="yes"/>
      <point x="283" y="666" type="line" smooth="yes"/>
      <point x="304" y="666"/>
      <point x="322" y="649"/>
      <point x="322" y="627" type="curve" smooth="yes"/>
      <point x="322" y="501" type="line" smooth="yes"/>
      <point x="322" y="480"/>
      <point x="304" y="462"/>
      <point x="283" y="462" type="curve" smooth="yes"/>
    </contour>
  </outline>
</glyph>
<glyph name="acute" format="1">
  <advance width="213"/>
  <unicode hex="00B4"/>
  <outline>
    <contour>
      <point x="33" y="872" type="line"/>
      <point x="113" y="872" type="line"/>
      <point x="147" y="1011" type="line"/>
      <point x="68" y="1011" type="line"/>
    </contour>
  </outline>
</glyph>
<glyph name="paragraph" format="1">
  <advance width="833"/>
  <unicode hex="00B6"/>
  <outline>
    <contour>
      <point x="56" y="392" type="line" smooth="yes"/>
      <point x="56" y="326"/>
      <point x="109" y="271"/>
      <point x="177" y="271" type="curve" smooth="yes"/>
      <point x="481" y="271" type="line"/>
      <point x="481" y="0" type="line"/>
      <point x="563" y="0" type="line"/>
      <point x="563" y="271" type="line"/>
      <point x="701" y="271" type="line"/>
      <point x="701" y="0" type="line"/>
      <point x="783" y="0" type="line"/>
      <point x="783" y="727" type="line"/>
      <point x="177" y="727" type="line" smooth="yes"/>
      <point x="109" y="727"/>
      <point x="56" y="672"/>
      <point x="56" y="605" type="curve" smooth="yes"/>
    </contour>
    <contour>
      <point x="563" y="644" type="line"/>
      <point x="701" y="644" type="line"/>
      <point x="701" y="353" type="line"/>
      <point x="563" y="353" type="line"/>
    </contour>
    <contour>
      <point x="138" y="605" type="line" smooth="yes"/>
      <point x="138" y="626"/>
      <point x="156" y="644"/>
      <point x="177" y="644" type="curve" smooth="yes"/>
      <point x="481" y="644" type="line"/>
      <point x="481" y="353" type="line"/>
      <point x="177" y="353" type="line" smooth="yes"/>
      <point x="156" y="353"/>
      <point x="138" y="371"/>
      <point x="138" y="392" type="curve" smooth="yes"/>
    </contour>
  </outline>
</glyph>
<glyph name="cedilla" format="1">
  <advance width="213"/>
  <unicode hex="00B8"/>
  <outline>
    <contour>
      <point x="33" y="-171" type="line"/>
      <point x="113" y="-171" type="line"/>
      <point x="147" y="-32" type="line"/>
      <point x="68" y="-32" type="line"/>
    </contour>
  </outline>
</glyph>
<glyph name="questiondown" format="1">
  <advance width="675"/>
  <unicode hex="00BF"/>
  <outline>
    <contour>
      <point x="656" y="-8" type="line"/>
      <point x="656" y="-8"/>
      <point x="648" y="16"/>
      <point x="648" y="82" type="curve"/>
      <point x="140" y="82" type="line" smooth="yes"/>
      <point x="119" y="82"/>
      <point x="101" y="100"/>
      <point x="101" y="121" type="curve" smooth="yes"/>
      <point x="101" y="315" type="line" smooth="yes"/>
      <point x="101" y="336"/>
      <point x="119" y="354"/>
      <point x="140" y="354" type="curve" smooth="yes"/>
      <point x="413" y="354" type="line" smooth="yes"/>
      <point x="481" y="354"/>
      <point x="534" y="408"/>
      <point x="534" y="476" type="curve" smooth="yes"/>
      <point x="534" y="524" type="line"/>
      <point x="452" y="524" type="line"/>
      <point x="452" y="476" type="line" smooth="yes"/>
      <point x="452" y="455"/>
      <point x="434" y="437"/>
      <point x="413" y="437" type="curve" smooth="yes"/>
      <point x="140" y="437" type="line" smooth="yes"/>
      <point x="72" y="437"/>
      <point x="19" y="383"/>
      <point x="19" y="315" type="curve" smooth="yes"/>
      <point x="19" y="121" type="line" smooth="yes"/>
      <point x="19" y="54"/>
      <point x="72" y="0"/>
      <point x="140" y="0" type="curve" smooth="yes"/>
    </contour>
    <contour>
      <point x="534" y="728" type="line"/>
      <point x="452" y="728" type="line"/>
      <point x="452" y="645" type="line"/>
      <point x="534" y="645" type="line"/>
    </contour>
  </outline>
</glyph>
<glyph name="Atilde" format="1">
  <advance width="836"/>
  <unicode hex="00C3"/>
  <outline>
    <contour>
      <point x="178" y="720" type="line" smooth="yes"/>
      <point x="111" y="720"/>
      <point x="58" y="667"/>
      <point x="58" y="600" type="curve" smooth="yes"/>
      <point x="58" y="0" type="line"/>
      <point x="139" y="0" type="line"/>
      <point x="139" y="263" type="line"/>
      <point x="697" y="263" type="line"/>
      <point x="697" y="0" type="line"/>
      <point x="778" y="0" type="line"/>
      <point x="778" y="600" type="line" smooth="yes"/>
      <point x="778" y="667"/>
      <point x="725" y="720"/>
      <point x="658" y="720" type="curve" smooth="yes"/>
    </contour>
    <contour>
      <point x="139" y="344" type="line"/>
      <point x="139" y="600" type="line" smooth="yes"/>
      <point x="139" y="621"/>
      <point x="157" y="639"/>
      <point x="178" y="639" type="curve" smooth="yes"/>
      <point x="658" y="639" type="line" smooth="yes"/>
      <point x="679" y="639"/>
      <point x="697" y="621"/>
      <point x="697" y="600" type="curve" smooth="yes"/>
      <point x="697" y="344" type="line"/>
    </contour>
    <contour>
      <point x="513" y="917" type="line"/>
      <point x="437" y="927"/>
      <point x="379" y="989"/>
      <point x="304" y="989" type="curve" smooth="yes"/>
      <point x="280" y="989"/>
      <point x="260" y="986"/>
      <point x="242" y="980" type="curve"/>
      <point x="242" y="933" type="line"/>
      <point x="262" y="940"/>
      <point x="288" y="941"/>
      <point x="304" y="941" type="curve" smooth="yes"/>
      <point x="386" y="941"/>
      <point x="443" y="869"/>
      <point x="515" y="869" type="curve" smooth="yes"/>
      <point x="539" y="869"/>
      <point x="562" y="876"/>
      <point x="581" y="883" type="curve"/>
      <point x="581" y="934" type="line"/>
      <point x="560" y="924"/>
      <point x="538" y="917"/>
      <point x="515" y="917" type="curve" smooth="yes"/>
    </contour>
  </outline>
</glyph>
<glyph name="Aring" format="1">
  <advance width="836"/>
  <unicode hex="00C5"/>
  <outline>
    <contour>
      <point x="178" y="720" type="line" smooth="yes"/>
      <point x="111" y="720"/>
      <point x="58" y="667"/>
      <point x="58" y="600" type="curve" smooth="yes"/>
      <point x="58" y="0" type="line"/>
      <point x="139" y="0" type="line"/>
      <point x="139" y="263" type="line"/>
      <point x="697" y="263" type="line"/>
      <point x="697" y="0" type="line"/>
      <point x="778" y="0" type="line"/>
      <point x="778" y="600" type="line" smooth="yes"/>
      <point x="778" y="667"/>
      <point x="725" y="720"/>
      <point x="658" y="720" type="curve" smooth="yes"/>
    </contour>
    <contour>
      <point x="139" y="344" type="line"/>
      <point x="139" y="600" type="line" smooth="yes"/>
      <point x="139" y="621"/>
      <point x="157" y="639"/>
      <point x="178" y="639" type="curve" smooth="yes"/>
      <point x="658" y="639" type="line" smooth="yes"/>
      <point x="679" y="639"/>
      <point x="697" y="621"/>
      <point x="697" y="600" type="curve" smooth="yes"/>
      <point x="697" y="344" type="line"/>
    </contour>
    <contour>
      <point x="390" y="981" type="line" smooth="yes"/>
      <point x="360" y="981"/>
      <point x="336" y="957"/>
      <point x="336" y="928" type="curve" smooth="yes"/>
      <point x="336" y="874" type="line" smooth="yes"/>
      <point x="336" y="845"/>
      <point x="360" y="821"/>
      <point x="390" y="821" type="curve" smooth="yes"/>
      <point x="446" y="821" type="line" smooth="yes"/>
      <point x="476" y="821"/>
      <point x="500" y="845"/>
      <point x="500" y="874" type="curve" smooth="yes"/>
      <point x="500" y="928" type="line" smooth="yes"/>
      <point x="500" y="957"/>
      <point x="476" y="981"/>
      <point x="446" y="981" type="curve" smooth="yes"/>
    </contour>
    <contour>
      <point x="385" y="861" type="line" smooth="yes"/>
      <point x="380" y="861"/>
      <point x="376" y="865"/>
      <point x="376" y="871" type="curve" smooth="yes"/>
      <point x="376" y="931" type="line" smooth="yes"/>
      <point x="376" y="937"/>
      <point x="380" y="941"/>
      <point x="385" y="941" type="curve" smooth="yes"/>
      <point x="451" y="941" type="line" smooth="yes"/>
      <point x="456" y="941"/>
      <point x="460" y="937"/>
      <point x="460" y="931" type="curve" smooth="yes"/>
      <point x="460" y="871" type="line" smooth="yes"/>
      <point x="460" y="865"/>
      <point x="456" y="861"/>
      <point x="451" y="861" type="curve" smooth="yes"/>
    </contour>
  </outline>
</glyph>
<glyph name="AE" format="1">
  <advance width="1375"/>
  <unicode hex="00C6"/>
  <outline>
    <contour>
      <point x="774" y="639" type="line"/>
      <point x="1350" y="639" type="line"/>
      <point x="1350" y="720" type="line"/>
      <point x="174" y="720" type="line" smooth="yes"/>
      <point x="107" y="720"/>
      <point x="54" y="667"/>
      <point x="54" y="600" type="curve" smooth="yes"/>
      <point x="54" y="0" type="line"/>
      <point x="135" y="0" type="line"/>
      <point x="135" y="263" type="line"/>
      <point x="693" y="263" type="line"/>
      <point x="693" y="0" type="line"/>
      <point x="1350" y="0" type="line"/>
      <point x="1350" y="81" type="line"/>
      <point x="774" y="81" type="line"/>
      <point x="774" y="319" type="line"/>
      <point x="1237" y="319" type="line"/>
      <point x="1237" y="401" type="line"/>
      <point x="774" y="401" type="line"/>
    </contour>
    <contour>
      <point x="693" y="344" type="line"/>
      <point x="135" y="344" type="line"/>
      <point x="135" y="600" type="line" smooth="yes"/>
      <point x="135" y="621"/>
      <point x="153" y="639"/>
      <point x="174" y="639" type="curve" smooth="yes"/>
      <point x="654" y="639" type="line" smooth="yes"/>
      <point x="675" y="639"/>
      <point x="693" y="621"/>
      <point x="693" y="600" type="curve" smooth="yes"/>
    </contour>
  </outline>
</glyph>
<glyph name="Ccedilla" format="1">
  <advance width="822"/>
  <unicode hex="00C7"/>
  <outline>
    <contour>
      <point x="774" y="639" type="line"/>
      <point x="774" y="720" type="line"/>
      <point x="176" y="720" type="line" smooth="yes"/>
      <point x="109" y="720"/>
      <point x="56" y="667"/>
      <point x="56" y="600" type="curve" smooth="yes"/>
      <point x="56" y="120" type="line" smooth="yes"/>
      <point x="56" y="53"/>
      <point x="109" y="0"/>
      <point x="176" y="0" type="curve" smooth="yes"/>
      <point x="372" y="0" type="line"/>
      <point x="337" y="-139" type="line"/>
      <point x="417" y="-139" type="line"/>
      <point x="451" y="0" type="line"/>
      <point x="774" y="0" type="line"/>
      <point x="774" y="81" type="line"/>
      <point x="176" y="81" type="line" smooth="yes"/>
      <point x="155" y="81"/>
      <point x="137" y="99"/>
      <point x="137" y="120" type="curve" smooth="yes"/>
      <point x="137" y="600" type="line" smooth="yes"/>
      <point x="137" y="621"/>
      <point x="155" y="639"/>
      <point x="176" y="639" type="curve" smooth="yes"/>
    </contour>
  </outline>
</glyph>
<glyph name="Egrave" format="1">
  <advance width="766"/>
  <unicode hex="00C8"/>
  <outline>
    <contour>
      <point x="715" y="720" type="line"/>
      <point x="58" y="720" type="line"/>
      <point x="58" y="0" type="line"/>
      <point x="715" y="0" type="line"/>
      <point x="715" y="81" type="line"/>
      <point x="139" y="81" type="line"/>
      <point x="139" y="319" type="line"/>
      <point x="602" y="319" type="line"/>
      <point x="602" y="401" type="line"/>
      <point x="139" y="401" type="line"/>
      <point x="139" y="639" type="line"/>
      <point x="715" y="639" type="line"/>
    </contour>
    <contour>
      <point x="390" y="1004" type="line"/>
      <point x="309" y="1004" type="line"/>
      <point x="322" y="953"/>
      <point x="331" y="919"/>
      <point x="344" y="865" type="curve"/>
      <point x="424" y="865" type="line"/>
    </contour>
  </outline>
</glyph>
<glyph name="Eacute" format="1">
  <advance width="766"/>
  <unicode hex="00C9"/>
  <outline>
    <contour>
      <point x="715" y="720" type="line"/>
      <point x="58" y="720" type="line"/>
      <point x="58" y="0" type="line"/>
      <point x="715" y="0" type="line"/>
      <point x="715" y="81" type="line"/>
      <point x="139" y="81" type="line"/>
      <point x="139" y="319" type="line"/>
      <point x="602" y="319" type="line"/>
      <point x="602" y="401" type="line"/>
      <point x="139" y="401" type="line"/>
      <point x="139" y="639" type="line"/>
      <point x="715" y="639" type="line"/>
    </contour>
    <contour>
      <point x="309" y="865" type="line"/>
      <point x="389" y="865" type="line"/>
      <point x="423" y="1004" type="line"/>
      <point x="344" y="1004" type="line"/>
    </contour>
  </outline>
</glyph>
<glyph name="Ecircumflex" format="1">
  <advance width="766"/>
  <unicode hex="00CA"/>
  <outline>
    <contour>
      <point x="715" y="720" type="line"/>
      <point x="58" y="720" type="line"/>
      <point x="58" y="0" type="line"/>
      <point x="715" y="0" type="line"/>
      <point x="715" y="81" type="line"/>
      <point x="139" y="81" type="line"/>
      <point x="139" y="319" type="line"/>
      <point x="602" y="319" type="line"/>
      <point x="602" y="401" type="line"/>
      <point x="139" y="401" type="line"/>
      <point x="139" y="639" type="line"/>
      <point x="715" y="639" type="line"/>
    </contour>
    <contour>
      <point x="302" y="864" type="line"/>
      <point x="362" y="949" type="line"/>
      <point x="420" y="864" type="line"/>
      <point x="462" y="864" type="line"/>
      <point x="391" y="981" type="line"/>
      <point x="332" y="981" type="line"/>
      <point x="261" y="864" type="line"/>
    </contour>
  </outline>
</glyph>
<glyph name="Edieresis" format="1">
  <advance width="766"/>
  <unicode hex="00CB"/>
  <outline>
    <contour>
      <point x="715" y="720" type="line"/>
      <point x="58" y="720" type="line"/>
      <point x="58" y="0" type="line"/>
      <point x="715" y="0" type="line"/>
      <point x="715" y="81" type="line"/>
      <point x="139" y="81" type="line"/>
      <point x="139" y="319" type="line"/>
      <point x="602" y="319" type="line"/>
      <point x="602" y="401" type="line"/>
      <point x="139" y="401" type="line"/>
      <point x="139" y="639" type="line"/>
      <point x="715" y="639" type="line"/>
    </contour>
    <contour>
      <point x="506" y="947" type="line"/>
      <point x="424" y="947" type="line"/>
      <point x="424" y="865" type="line"/>
      <point x="506" y="865" type="line"/>
    </contour>
    <contour>
      <point x="327" y="947" type="line"/>
      <point x="244" y="947" type="line"/>
      <point x="244" y="865" type="line"/>
      <point x="327" y="865" type="line"/>
    </contour>
  </outline>
</glyph>
<glyph name="Igrave" format="1">
  <advance width="220"/>
  <unicode hex="00CC"/>
  <outline>
    <contour>
      <point x="57" y="0" type="line"/>
      <point x="138" y="0" type="line"/>
      <point x="138" y="720" type="line"/>
      <point x="57" y="720" type="line"/>
    </contour>
    <contour>
      <point x="117" y="1004" type="line"/>
      <point x="36" y="1004" type="line"/>
      <point x="49" y="953"/>
      <point x="58" y="919"/>
      <point x="71" y="865" type="curve"/>
      <point x="151" y="865" type="line"/>
    </contour>
  </outline>
</glyph>
<glyph name="Iacute" format="1">
  <advance width="220"/>
  <unicode hex="00CD"/>
  <outline>
    <contour>
      <point x="57" y="0" type="line"/>
      <point x="138" y="0" type="line"/>
      <point x="138" y="720" type="line"/>
      <point x="57" y="720" type="line"/>
    </contour>
    <contour>
      <point x="36" y="865" type="line"/>
      <point x="116" y="865" type="line"/>
      <point x="150" y="1004" type="line"/>
      <point x="71" y="1004" type="line"/>
    </contour>
  </outline>
</glyph>
<glyph name="Icircumflex" format="1">
  <advance width="220"/>
  <unicode hex="00CE"/>
  <outline>
    <contour>
      <point x="57" y="0" type="line"/>
      <point x="138" y="0" type="line"/>
      <point x="138" y="720" type="line"/>
      <point x="57" y="720" type="line"/>
    </contour>
    <contour>
      <point x="29" y="864" type="line"/>
      <point x="89" y="949" type="line"/>
      <point x="147" y="864" type="line"/>
      <point x="189" y="864" type="line"/>
      <point x="118" y="981" type="line"/>
      <point x="59" y="981" type="line"/>
      <point x="-12" y="864" type="line"/>
    </contour>
  </outline>
</glyph>
<glyph name="Idieresis" format="1">
  <advance width="220"/>
  <unicode hex="00CF"/>
  <outline>
    <contour>
      <point x="57" y="0" type="line"/>
      <point x="138" y="0" type="line"/>
      <point x="138" y="720" type="line"/>
      <point x="57" y="720" type="line"/>
    </contour>
    <contour>
      <point x="233" y="947" type="line"/>
      <point x="151" y="947" type="line"/>
      <point x="151" y="865" type="line"/>
      <point x="233" y="865" type="line"/>
    </contour>
    <contour>
      <point x="54" y="947" type="line"/>
      <point x="-29" y="947" type="line"/>
      <point x="-29" y="865" type="line"/>
      <point x="54" y="865" type="line"/>
    </contour>
  </outline>
</glyph>
<glyph name="Ntilde" format="1">
  <advance width="832"/>
  <unicode hex="00D1"/>
  <outline>
    <contour>
      <point x="695" y="92" type="line"/>
      <point x="167" y="720" type="line"/>
      <point x="56" y="720" type="line"/>
      <point x="56" y="0" type="line"/>
      <point x="137" y="0" type="line"/>
      <point x="137" y="628" type="line"/>
      <point x="665" y="0" type="line"/>
      <point x="776" y="0" type="line"/>
      <point x="776" y="720" type="line"/>
      <point x="695" y="720" type="line"/>
    </contour>
    <contour>
      <point x="511" y="917" type="line"/>
      <point x="435" y="927"/>
      <point x="377" y="989"/>
      <point x="302" y="989" type="curve" smooth="yes"/>
      <point x="278" y="989"/>
      <point x="258" y="986"/>
      <point x="240" y="980" type="curve"/>
      <point x="240" y="933" type="line"/>
      <point x="260" y="940"/>
      <point x="286" y="941"/>
      <point x="302" y="941" type="curve" smooth="yes"/>
      <point x="384" y="941"/>
      <point x="441" y="869"/>
      <point x="513" y="869" type="curve" smooth="yes"/>
      <point x="537" y="869"/>
      <point x="560" y="876"/>
      <point x="579" y="883" type="curve"/>
      <point x="579" y="934" type="line"/>
      <point x="558" y="924"/>
      <point x="536" y="917"/>
      <point x="513" y="917" type="curve" smooth="yes"/>
    </contour>
  </outline>
</glyph>
<glyph name="Oacute" format="1">
  <advance width="828"/>
  <unicode hex="00D3"/>
  <outline>
    <contour>
      <point x="174" y="720" type="line" smooth="yes"/>
      <point x="107" y="720"/>
      <point x="54" y="667"/>
      <point x="54" y="600" type="curve" smooth="yes"/>
      <point x="54" y="120" type="line" smooth="yes"/>
      <point x="54" y="53"/>
      <point x="107" y="0"/>
      <point x="174" y="0" type="curve" smooth="yes"/>
      <point x="654" y="0" type="line" smooth="yes"/>
      <point x="721" y="0"/>
      <point x="774" y="53"/>
      <point x="774" y="120" type="curve" smooth="yes"/>
      <point x="774" y="600" type="line" smooth="yes"/>
      <point x="774" y="667"/>
      <point x="721" y="720"/>
      <point x="654" y="720" type="curve" smooth="yes"/>
    </contour>
    <contour>
      <point x="174" y="81" type="line" smooth="yes"/>
      <point x="153" y="81"/>
      <point x="135" y="99"/>
      <point x="135" y="120" type="curve" smooth="yes"/>
      <point x="135" y="600" type="line" smooth="yes"/>
      <point x="135" y="621"/>
      <point x="153" y="639"/>
      <point x="174" y="639" type="curve" smooth="yes"/>
      <point x="654" y="639" type="line" smooth="yes"/>
      <point x="675" y="639"/>
      <point x="693" y="621"/>
      <point x="693" y="600" type="curve" smooth="yes"/>
      <point x="693" y="120" type="line" smooth="yes"/>
      <point x="693" y="99"/>
      <point x="675" y="81"/>
      <point x="654" y="81" type="curve" smooth="yes"/>
    </contour>
    <contour>
      <point x="340" y="865" type="line"/>
      <point x="420" y="865" type="line"/>
      <point x="454" y="1004" type="line"/>
      <point x="375" y="1004" type="line"/>
    </contour>
  </outline>
</glyph>
<glyph name="Ocircumflex" format="1">
  <advance width="828"/>
  <unicode hex="00D4"/>
  <outline>
    <contour>
      <point x="174" y="720" type="line" smooth="yes"/>
      <point x="107" y="720"/>
      <point x="54" y="667"/>
      <point x="54" y="600" type="curve" smooth="yes"/>
      <point x="54" y="120" type="line" smooth="yes"/>
      <point x="54" y="53"/>
      <point x="107" y="0"/>
      <point x="174" y="0" type="curve" smooth="yes"/>
      <point x="654" y="0" type="line" smooth="yes"/>
      <point x="721" y="0"/>
      <point x="774" y="53"/>
      <point x="774" y="120" type="curve" smooth="yes"/>
      <point x="774" y="600" type="line" smooth="yes"/>
      <point x="774" y="667"/>
      <point x="721" y="720"/>
      <point x="654" y="720" type="curve" smooth="yes"/>
    </contour>
    <contour>
      <point x="174" y="81" type="line" smooth="yes"/>
      <point x="153" y="81"/>
      <point x="135" y="99"/>
      <point x="135" y="120" type="curve" smooth="yes"/>
      <point x="135" y="600" type="line" smooth="yes"/>
      <point x="135" y="621"/>
      <point x="153" y="639"/>
      <point x="174" y="639" type="curve" smooth="yes"/>
      <point x="654" y="639" type="line" smooth="yes"/>
      <point x="675" y="639"/>
      <point x="693" y="621"/>
      <point x="693" y="600" type="curve" smooth="yes"/>
      <point x="693" y="120" type="line" smooth="yes"/>
      <point x="693" y="99"/>
      <point x="675" y="81"/>
      <point x="654" y="81" type="curve" smooth="yes"/>
    </contour>
    <contour>
      <point x="333" y="864" type="line"/>
      <point x="393" y="949" type="line"/>
      <point x="451" y="864" type="line"/>
      <point x="493" y="864" type="line"/>
      <point x="422" y="981" type="line"/>
      <point x="363" y="981" type="line"/>
      <point x="292" y="864" type="line"/>
    </contour>
  </outline>
</glyph>
<glyph name="Otilde" format="1">
  <advance width="828"/>
  <unicode hex="00D5"/>
  <outline>
    <contour>
      <point x="174" y="720" type="line" smooth="yes"/>
      <point x="107" y="720"/>
      <point x="54" y="667"/>
      <point x="54" y="600" type="curve" smooth="yes"/>
      <point x="54" y="120" type="line" smooth="yes"/>
      <point x="54" y="53"/>
      <point x="107" y="0"/>
      <point x="174" y="0" type="curve" smooth="yes"/>
      <point x="654" y="0" type="line" smooth="yes"/>
      <point x="721" y="0"/>
      <point x="774" y="53"/>
      <point x="774" y="120" type="curve" smooth="yes"/>
      <point x="774" y="600" type="line" smooth="yes"/>
      <point x="774" y="667"/>
      <point x="721" y="720"/>
      <point x="654" y="720" type="curve" smooth="yes"/>
    </contour>
    <contour>
      <point x="174" y="81" type="line" smooth="yes"/>
      <point x="153" y="81"/>
      <point x="135" y="99"/>
      <point x="135" y="120" type="curve" smooth="yes"/>
      <point x="135" y="600" type="line" smooth="yes"/>
      <point x="135" y="621"/>
      <point x="153" y="639"/>
      <point x="174" y="639" type="curve" smooth="yes"/>
      <point x="654" y="639" type="line" smooth="yes"/>
      <point x="675" y="639"/>
      <point x="693" y="621"/>
      <point x="693" y="600" type="curve" smooth="yes"/>
      <point x="693" y="120" type="line" smooth="yes"/>
      <point x="693" y="99"/>
      <point x="675" y="81"/>
      <point x="654" y="81" type="curve" smooth="yes"/>
    </contour>
    <contour>
      <point x="509" y="917" type="line"/>
      <point x="433" y="927"/>
      <point x="375" y="989"/>
      <point x="300" y="989" type="curve" smooth="yes"/>
      <point x="276" y="989"/>
      <point x="256" y="986"/>
      <point x="238" y="980" type="curve"/>
      <point x="238" y="933" type="line"/>
      <point x="258" y="940"/>
      <point x="284" y="941"/>
      <point x="300" y="941" type="curve" smooth="yes"/>
      <point x="382" y="941"/>
      <point x="439" y="869"/>
      <point x="511" y="869" type="curve" smooth="yes"/>
      <point x="535" y="869"/>
      <point x="558" y="876"/>
      <point x="577" y="883" type="curve"/>
      <point x="577" y="934" type="line"/>
      <point x="556" y="924"/>
      <point x="534" y="917"/>
      <point x="511" y="917" type="curve" smooth="yes"/>
    </contour>
  </outline>
</glyph>
<glyph name="Odieresis" format="1">
  <advance width="828"/>
  <unicode hex="00D6"/>
  <outline>
    <contour>
      <point x="174" y="720" type="line" smooth="yes"/>
      <point x="107" y="720"/>
      <point x="54" y="667"/>
      <point x="54" y="600" type="curve" smooth="yes"/>
      <point x="54" y="120" type="line" smooth="yes"/>
      <point x="54" y="53"/>
      <point x="107" y="0"/>
      <point x="174" y="0" type="curve" smooth="yes"/>
      <point x="654" y="0" type="line" smooth="yes"/>
      <point x="721" y="0"/>
      <point x="774" y="53"/>
      <point x="774" y="120" type="curve" smooth="yes"/>
      <point x="774" y="600" type="line" smooth="yes"/>
      <point x="774" y="667"/>
      <point x="721" y="720"/>
      <point x="654" y="720" type="curve" smooth="yes"/>
    </contour>
    <contour>
      <point x="174" y="81" type="line" smooth="yes"/>
      <point x="153" y="81"/>
      <point x="135" y="99"/>
      <point x="135" y="120" type="curve" smooth="yes"/>
      <point x="135" y="600" type="line" smooth="yes"/>
      <point x="135" y="621"/>
      <point x="153" y="639"/>
      <point x="174" y="639" type="curve" smooth="yes"/>
      <point x="654" y="639" type="line" smooth="yes"/>
      <point x="675" y="639"/>
      <point x="693" y="621"/>
      <point x="693" y="600" type="curve" smooth="yes"/>
      <point x="693" y="120" type="line" smooth="yes"/>
      <point x="693" y="99"/>
      <point x="675" y="81"/>
      <point x="654" y="81" type="curve" smooth="yes"/>
    </contour>
    <contour>
      <point x="537" y="947" type="line"/>
      <point x="455" y="947" type="line"/>
      <point x="455" y="865" type="line"/>
      <point x="537" y="865" type="line"/>
    </contour>
    <contour>
      <point x="358" y="947" type="line"/>
      <point x="275" y="947" type="line"/>
      <point x="275" y="865" type="line"/>
      <point x="358" y="865" type="line"/>
    </contour>
  </outline>
</glyph>
<glyph name="multiply" format="1">
  <advance width="546"/>
  <unicode hex="00D7"/>
  <outline>
    <contour>
      <point x="161" y="506" type="line"/>
      <point x="53" y="506" type="line"/>
      <point x="104" y="440"/>
      <point x="162" y="366"/>
      <point x="212" y="301" type="curve"/>
      <point x="54" y="95" type="line"/>
      <point x="161" y="95" type="line"/>
      <point x="193" y="139"/>
      <point x="236" y="197"/>
      <point x="266" y="239" type="curve"/>
      <point x="372" y="95" type="line"/>
      <point x="478" y="95" type="line"/>
      <point x="320" y="301" type="line"/>
      <point x="478" y="506" type="line"/>
      <point x="372" y="506" type="line"/>
      <point x="340" y="462"/>
      <point x="297" y="404"/>
      <point x="266" y="362" type="curve"/>
    </contour>
  </outline>
</glyph>
<glyph name="Uacute" format="1">
  <advance width="828"/>
  <unicode hex="00DA"/>
  <outline>
    <contour>
      <point x="693" y="120" type="line" smooth="yes"/>
      <point x="693" y="99"/>
      <point x="675" y="81"/>
      <point x="654" y="81" type="curve" smooth="yes"/>
      <point x="174" y="81" type="line" smooth="yes"/>
      <point x="153" y="81"/>
      <point x="135" y="99"/>
      <point x="135" y="120" type="curve" smooth="yes"/>
      <point x="135" y="720" type="line"/>
      <point x="54" y="720" type="line"/>
      <point x="54" y="120" type="line" smooth="yes"/>
      <point x="54" y="53"/>
      <point x="107" y="0"/>
      <point x="174" y="0" type="curve" smooth="yes"/>
      <point x="654" y="0" type="line" smooth="yes"/>
      <point x="721" y="0"/>
      <point x="774" y="53"/>
      <point x="774" y="120" type="curve" smooth="yes"/>
      <point x="774" y="720" type="line"/>
      <point x="693" y="720" type="line"/>
    </contour>
    <contour>
      <point x="340" y="865" type="line"/>
      <point x="420" y="865" type="line"/>
      <point x="454" y="1004" type="line"/>
      <point x="375" y="1004" type="line"/>
    </contour>
  </outline>
</glyph>
<glyph name="Ucircumflex" format="1">
  <advance width="828"/>
  <unicode hex="00DB"/>
  <outline>
    <contour>
      <point x="693" y="120" type="line" smooth="yes"/>
      <point x="693" y="99"/>
      <point x="675" y="81"/>
      <point x="654" y="81" type="curve" smooth="yes"/>
      <point x="174" y="81" type="line" smooth="yes"/>
      <point x="153" y="81"/>
      <point x="135" y="99"/>
      <point x="135" y="120" type="curve" smooth="yes"/>
      <point x="135" y="720" type="line"/>
      <point x="54" y="720" type="line"/>
      <point x="54" y="120" type="line" smooth="yes"/>
      <point x="54" y="53"/>
      <point x="107" y="0"/>
      <point x="174" y="0" type="curve" smooth="yes"/>
      <point x="654" y="0" type="line" smooth="yes"/>
      <point x="721" y="0"/>
      <point x="774" y="53"/>
      <point x="774" y="120" type="curve" smooth="yes"/>
      <point x="774" y="720" type="line"/>
      <point x="693" y="720" type="line"/>
    </contour>
    <contour>
      <point x="333" y="864" type="line"/>
      <point x="393" y="949" type="line"/>
      <point x="451" y="864" type="line"/>
      <point x="493" y="864" type="line"/>
      <point x="422" y="981" type="line"/>
      <point x="363" y="981" type="line"/>
      <point x="292" y="864" type="line"/>
    </contour>
  </outline>
</glyph>
<glyph name="Udieresis" format="1">
  <advance width="828"/>
  <unicode hex="00DC"/>
  <outline>
    <contour>
      <point x="693" y="120" type="line" smooth="yes"/>
      <point x="693" y="99"/>
      <point x="675" y="81"/>
      <point x="654" y="81" type="curve" smooth="yes"/>
      <point x="174" y="81" type="line" smooth="yes"/>
      <point x="153" y="81"/>
      <point x="135" y="99"/>
      <point x="135" y="120" type="curve" smooth="yes"/>
      <point x="135" y="720" type="line"/>
      <point x="54" y="720" type="line"/>
      <point x="54" y="120" type="line" smooth="yes"/>
      <point x="54" y="53"/>
      <point x="107" y="0"/>
      <point x="174" y="0" type="curve" smooth="yes"/>
      <point x="654" y="0" type="line" smooth="yes"/>
      <point x="721" y="0"/>
      <point x="774" y="53"/>
      <point x="774" y="120" type="curve" smooth="yes"/>
      <point x="774" y="720" type="line"/>
      <point x="693" y="720" type="line"/>
    </contour>
    <contour>
      <point x="537" y="947" type="line"/>
      <point x="455" y="947" type="line"/>
      <point x="455" y="865" type="line"/>
      <point x="537" y="865" type="line"/>
    </contour>
    <contour>
      <point x="358" y="947" type="line"/>
      <point x="275" y="947" type="line"/>
      <point x="275" y="865" type="line"/>
      <point x="358" y="865" type="line"/>
    </contour>
  </outline>
</glyph>
<glyph name="Yacute" format="1">
  <advance width="806"/>
  <unicode hex="00DD"/>
  <outline>
    <contour>
      <point x="665" y="720" type="line"/>
      <point x="577" y="608"/>
      <point x="476" y="480"/>
      <point x="389" y="368" type="curve"/>
      <point x="110" y="720" type="line"/>
      <point x="17" y="720" type="line"/>
      <point x="126" y="573"/>
      <point x="241" y="418"/>
      <point x="348" y="271" type="curve"/>
      <point x="348" y="0" type="line"/>
      <point x="429" y="0" type="line"/>
      <point x="429" y="271" type="line"/>
      <point x="760" y="720" type="line"/>
    </contour>
    <contour>
      <point x="329" y="865" type="line"/>
      <point x="409" y="865" type="line"/>
      <point x="443" y="1004" type="line"/>
      <point x="364" y="1004" type="line"/>
    </contour>
  </outline>
</glyph>
<glyph name="germandbls" format="1">
  <advance width="833"/>
  <unicode hex="00DF"/>
  <outline>
    <contour>
      <point x="784" y="626" type="line"/>
      <point x="769" y="678"/>
      <point x="719" y="728"/>
      <point x="663" y="728" type="curve" smooth="yes"/>
      <point x="178" y="728" type="line" smooth="yes"/>
      <point x="110" y="728"/>
      <point x="57" y="674"/>
      <point x="57" y="606" type="curve" smooth="yes"/>
      <point x="57" y="0" type="line"/>
      <point x="139" y="0" type="line"/>
      <point x="139" y="605" type="line" smooth="yes"/>
      <point x="139" y="626"/>
      <point x="157" y="644"/>
      <point x="178" y="644" type="curve" smooth="yes"/>
      <point x="663" y="644" type="line" smooth="yes"/>
      <point x="684" y="644"/>
      <point x="702" y="626"/>
      <point x="702" y="605" type="curve" smooth="yes"/>
      <point x="702" y="443" type="line" smooth="yes"/>
      <point x="702" y="422"/>
      <point x="684" y="404"/>
      <point x="663" y="404" type="curve" smooth="yes"/>
      <point x="284" y="404" type="line"/>
      <point x="284" y="333" type="line"/>
      <point x="663" y="333" type="line" smooth="yes"/>
      <point x="684" y="333"/>
      <point x="702" y="315"/>
      <point x="702" y="294" type="curve" smooth="yes"/>
      <point x="702" y="121" type="line" smooth="yes"/>
      <point x="702" y="100"/>
      <point x="684" y="82"/>
      <point x="663" y="82" type="curve" smooth="yes"/>
      <point x="284" y="82" type="line"/>
      <point x="284" y="0" type="line"/>
      <point x="663" y="0" type="line" smooth="yes"/>
      <point x="730" y="0"/>
      <point x="784" y="54"/>
      <point x="784" y="121" type="curve" smooth="yes"/>
      <point x="784" y="294" type="line" smooth="yes"/>
      <point x="784" y="321"/>
      <point x="773" y="349"/>
      <point x="754" y="374" type="curve"/>
      <point x="773" y="400"/>
      <point x="784" y="428"/>
      <point x="784" y="455" type="curve" smooth="yes"/>
    </contour>
  </outline>
</glyph>
<glyph name="agrave" format="1">
  <advance width="725"/>
  <unicode hex="00E0"/>
  <outline>
    <contour>
      <point x="52" y="580" type="line"/>
      <point x="52" y="498" type="line"/>
      <point x="521" y="498" type="line" smooth="yes"/>
      <point x="543" y="498"/>
      <point x="560" y="480"/>
      <point x="560" y="459" type="curve" smooth="yes"/>
      <point x="560" y="331" type="line"/>
      <point x="52" y="331" type="line"/>
      <point x="52" y="121" type="line" smooth="yes"/>
      <point x="52" y="54"/>
      <point x="106" y="0"/>
      <point x="173" y="0" type="curve" smooth="yes"/>
      <point x="643" y="0" type="line"/>
      <point x="643" y="459" type="line" smooth="yes"/>
      <point x="643" y="526"/>
      <point x="589" y="580"/>
      <point x="521" y="580" type="curve" smooth="yes"/>
    </contour>
    <contour>
      <point x="560" y="82" type="line"/>
      <point x="173" y="82" type="line" smooth="yes"/>
      <point x="152" y="82"/>
      <point x="134" y="100"/>
      <point x="134" y="121" type="curve" smooth="yes"/>
      <point x="134" y="249" type="line"/>
      <point x="560" y="249" type="line"/>
    </contour>
    <contour>
      <point x="369" y="902" type="line"/>
      <point x="288" y="902" type="line"/>
      <point x="301" y="851"/>
      <point x="310" y="817"/>
      <point x="323" y="763" type="curve"/>
      <point x="403" y="763" type="line"/>
    </contour>
  </outline>
</glyph>
<glyph name="atilde" format="1">
  <advance width="725"/>
  <unicode hex="00E3"/>
  <outline>
    <contour>
      <point x="52" y="580" type="line"/>
      <point x="52" y="498" type="line"/>
      <point x="521" y="498" type="line" smooth="yes"/>
      <point x="543" y="498"/>
      <point x="560" y="480"/>
      <point x="560" y="459" type="curve" smooth="yes"/>
      <point x="560" y="331" type="line"/>
      <point x="52" y="331" type="line"/>
      <point x="52" y="121" type="line" smooth="yes"/>
      <point x="52" y="54"/>
      <point x="106" y="0"/>
      <point x="173" y="0" type="curve" smooth="yes"/>
      <point x="643" y="0" type="line"/>
      <point x="643" y="459" type="line" smooth="yes"/>
      <point x="643" y="526"/>
      <point x="589" y="580"/>
      <point x="521" y="580" type="curve" smooth="yes"/>
    </contour>
    <contour>
      <point x="560" y="82" type="line"/>
      <point x="173" y="82" type="line" smooth="yes"/>
      <point x="152" y="82"/>
      <point x="134" y="100"/>
      <point x="134" y="121" type="curve" smooth="yes"/>
      <point x="134" y="249" type="line"/>
      <point x="560" y="249" type="line"/>
    </contour>
    <contour>
      <point x="457" y="814" type="line"/>
      <point x="381" y="824"/>
      <point x="323" y="886"/>
      <point x="248" y="886" type="curve" smooth="yes"/>
      <point x="224" y="886"/>
      <point x="204" y="883"/>
      <point x="186" y="877" type="curve"/>
      <point x="186" y="830" type="line"/>
      <point x="206" y="837"/>
      <point x="232" y="838"/>
      <point x="248" y="838" type="curve" smooth="yes"/>
      <point x="330" y="838"/>
      <point x="387" y="766"/>
      <point x="459" y="766" type="curve" smooth="yes"/>
      <point x="483" y="766"/>
      <point x="506" y="773"/>
      <point x="525" y="780" type="curve"/>
      <point x="525" y="831" type="line"/>
      <point x="504" y="821"/>
      <point x="482" y="814"/>
      <point x="459" y="814" type="curve" smooth="yes"/>
    </contour>
  </outline>
</glyph>
<glyph name="aring" format="1">
  <advance width="725"/>
  <unicode hex="00E5"/>
  <outline>
    <contour>
      <point x="52" y="580" type="line"/>
      <point x="52" y="498" type="line"/>
      <point x="521" y="498" type="line" smooth="yes"/>
      <point x="543" y="498"/>
      <point x="560" y="480"/>
      <point x="560" y="459" type="curve" smooth="yes"/>
      <point x="560" y="331" type="line"/>
      <point x="52" y="331" type="line"/>
      <point x="52" y="121" type="line" smooth="yes"/>
      <point x="52" y="54"/>
      <point x="106" y="0"/>
      <point x="173" y="0" type="curve" smooth="yes"/>
      <point x="643" y="0" type="line"/>
      <point x="643" y="459" type="line" smooth="yes"/>
      <point x="643" y="526"/>
      <point x="589" y="580"/>
      <point x="521" y="580" type="curve" smooth="yes"/>
    </contour>
    <contour>
      <point x="560" y="82" type="line"/>
      <point x="173" y="82" type="line" smooth="yes"/>
      <point x="152" y="82"/>
      <point x="134" y="100"/>
      <point x="134" y="121" type="curve" smooth="yes"/>
      <point x="134" y="249" type="line"/>
      <point x="560" y="249" type="line"/>
    </contour>
    <contour>
      <point x="334" y="878" type="line" smooth="yes"/>
      <point x="304" y="878"/>
      <point x="280" y="854"/>
      <point x="280" y="825" type="curve" smooth="yes"/>
      <point x="280" y="771" type="line" smooth="yes"/>
      <point x="280" y="742"/>
      <point x="304" y="718"/>
      <point x="334" y="718" type="curve" smooth="yes"/>
      <point x="390" y="718" type="line" smooth="yes"/>
      <point x="420" y="718"/>
      <point x="444" y="742"/>
      <point x="444" y="771" type="curve" smooth="yes"/>
      <point x="444" y="825" type="line" smooth="yes"/>
      <point x="444" y="854"/>
      <point x="420" y="878"/>
      <point x="390" y="878" type="curve" smooth="yes"/>
    </contour>
    <contour>
      <point x="329" y="758" type="line" smooth="yes"/>
      <point x="324" y="758"/>
      <point x="320" y="762"/>
      <point x="320" y="768" type="curve" smooth="yes"/>
      <point x="320" y="828" type="line" smooth="yes"/>
      <point x="320" y="834"/>
      <point x="324" y="838"/>
      <point x="329" y="838" type="curve" smooth="yes"/>
      <point x="395" y="838" type="line" smooth="yes"/>
      <point x="400" y="838"/>
      <point x="404" y="834"/>
      <point x="404" y="828" type="curve" smooth="yes"/>
      <point x="404" y="768" type="line" smooth="yes"/>
      <point x="404" y="762"/>
      <point x="400" y="758"/>
      <point x="395" y="758" type="curve" smooth="yes"/>
    </contour>
  </outline>
</glyph>
<glyph name="ae" format="1">
  <advance width="1178"/>
  <unicode hex="00E6"/>
  <outline>
    <contour>
      <point x="53" y="580" type="line"/>
      <point x="53" y="498" type="line"/>
      <point x="522" y="498" type="line" smooth="yes"/>
      <point x="543" y="498"/>
      <point x="561" y="480"/>
      <point x="561" y="459" type="curve" smooth="yes"/>
      <point x="561" y="331" type="line"/>
      <point x="53" y="331" type="line"/>
      <point x="53" y="121" type="line" smooth="yes"/>
      <point x="53" y="54"/>
      <point x="106" y="0"/>
      <point x="174" y="0" type="curve" smooth="yes"/>
      <point x="1151" y="0" type="line"/>
      <point x="1151" y="82" type="line"/>
      <point x="682" y="82" type="line" smooth="yes"/>
      <point x="662" y="82"/>
      <point x="645" y="97"/>
      <point x="643" y="117" type="curve"/>
      <point x="643" y="249" type="line"/>
      <point x="1151" y="249" type="line"/>
      <point x="1151" y="459" type="line" smooth="yes"/>
      <point x="1151" y="526"/>
      <point x="1098" y="580"/>
      <point x="1030" y="580" type="curve" smooth="yes"/>
    </contour>
    <contour>
      <point x="561" y="82" type="line"/>
      <point x="174" y="82" type="line" smooth="yes"/>
      <point x="153" y="82"/>
      <point x="135" y="100"/>
      <point x="135" y="121" type="curve" smooth="yes"/>
      <point x="135" y="249" type="line"/>
      <point x="561" y="249" type="line"/>
    </contour>
    <contour>
      <point x="643" y="331" type="line"/>
      <point x="643" y="459" type="line" smooth="yes"/>
      <point x="643" y="480"/>
      <point x="661" y="498"/>
      <point x="682" y="498" type="curve" smooth="yes"/>
      <point x="1030" y="498" type="line" smooth="yes"/>
      <point x="1051" y="498"/>
      <point x="1069" y="480"/>
      <point x="1069" y="459" type="curve" smooth="yes"/>
      <point x="1069" y="331" type="line"/>
    </contour>
  </outline>
</glyph>
<glyph name="eacute" format="1">
  <advance width="638"/>
  <unicode hex="00E9"/>
  <outline>
    <contour>
      <point x="172" y="580" type="line" smooth="yes"/>
      <point x="105" y="580"/>
      <point x="51" y="526"/>
      <point x="51" y="459" type="curve" smooth="yes"/>
      <point x="51" y="121" type="line" smooth="yes"/>
      <point x="51" y="54"/>
      <point x="105" y="0"/>
      <point x="172" y="0" type="curve" smooth="yes"/>
      <point x="642" y="0" type="line"/>
      <point x="642" y="82" type="line"/>
      <point x="172" y="82" type="line" smooth="yes"/>
      <point x="151" y="82"/>
      <point x="133" y="100"/>
      <point x="133" y="121" type="curve" smooth="yes"/>
      <point x="133" y="249" type="line"/>
      <point x="642" y="249" type="line"/>
      <point x="642" y="459" type="line" smooth="yes"/>
      <point x="642" y="526"/>
      <point x="588" y="580"/>
      <point x="520" y="580" type="curve" smooth="yes"/>
    </contour>
    <contour>
      <point x="133" y="331" type="line"/>
      <point x="133" y="459" type="line" smooth="yes"/>
      <point x="133" y="480"/>
      <point x="151" y="498"/>
      <point x="172" y="498" type="curve" smooth="yes"/>
      <point x="520" y="498" type="line" smooth="yes"/>
      <point x="542" y="498"/>
      <point x="559" y="480"/>
      <point x="559" y="459" type="curve" smooth="yes"/>
      <point x="559" y="331" type="line"/>
    </contour>
    <contour>
      <point x="245" y="764" type="line"/>
      <point x="325" y="764" type="line"/>
      <point x="359" y="903" type="line"/>
      <point x="280" y="903" type="line"/>
    </contour>
  </outline>
</glyph>
<glyph name="ecircumflex" format="1">
  <advance width="638"/>
  <unicode hex="00EA"/>
  <outline>
    <contour>
      <point x="172" y="580" type="line" smooth="yes"/>
      <point x="105" y="580"/>
      <point x="51" y="526"/>
      <point x="51" y="459" type="curve" smooth="yes"/>
      <point x="51" y="121" type="line" smooth="yes"/>
      <point x="51" y="54"/>
      <point x="105" y="0"/>
      <point x="172" y="0" type="curve" smooth="yes"/>
      <point x="642" y="0" type="line"/>
      <point x="642" y="82" type="line"/>
      <point x="172" y="82" type="line" smooth="yes"/>
      <point x="151" y="82"/>
      <point x="133" y="100"/>
      <point x="133" y="121" type="curve" smooth="yes"/>
      <point x="133" y="249" type="line"/>
      <point x="642" y="249" type="line"/>
      <point x="642" y="459" type="line" smooth="yes"/>
      <point x="642" y="526"/>
      <point x="588" y="580"/>
      <point x="520" y="580" type="curve" smooth="yes"/>
    </contour>
    <contour>
      <point x="133" y="331" type="line"/>
      <point x="133" y="459" type="line" smooth="yes"/>
      <point x="133" y="480"/>
      <point x="151" y="498"/>
      <point x="172" y="498" type="curve" smooth="yes"/>
      <point x="520" y="498" type="line" smooth="yes"/>
      <point x="542" y="498"/>
      <point x="559" y="480"/>
      <point x="559" y="459" type="curve" smooth="yes"/>
      <point x="559" y="331" type="line"/>
    </contour>
    <contour>
      <point x="238" y="763" type="line"/>
      <point x="298" y="848" type="line"/>
      <point x="356" y="763" type="line"/>
      <point x="398" y="763" type="line"/>
      <point x="327" y="880" type="line"/>
      <point x="268" y="880" type="line"/>
      <point x="197" y="763" type="line"/>
    </contour>
  </outline>
</glyph>
<glyph name="edieresis" format="1">
  <advance width="638"/>
  <unicode hex="00EB"/>
  <outline>
    <contour>
      <point x="172" y="580" type="line" smooth="yes"/>
      <point x="105" y="580"/>
      <point x="51" y="526"/>
      <point x="51" y="459" type="curve" smooth="yes"/>
      <point x="51" y="121" type="line" smooth="yes"/>
      <point x="51" y="54"/>
      <point x="105" y="0"/>
      <point x="172" y="0" type="curve" smooth="yes"/>
      <point x="642" y="0" type="line"/>
      <point x="642" y="82" type="line"/>
      <point x="172" y="82" type="line" smooth="yes"/>
      <point x="151" y="82"/>
      <point x="133" y="100"/>
      <point x="133" y="121" type="curve" smooth="yes"/>
      <point x="133" y="249" type="line"/>
      <point x="642" y="249" type="line"/>
      <point x="642" y="459" type="line" smooth="yes"/>
      <point x="642" y="526"/>
      <point x="588" y="580"/>
      <point x="520" y="580" type="curve" smooth="yes"/>
    </contour>
    <contour>
      <point x="133" y="331" type="line"/>
      <point x="133" y="459" type="line" smooth="yes"/>
      <point x="133" y="480"/>
      <point x="151" y="498"/>
      <point x="172" y="498" type="curve" smooth="yes"/>
      <point x="520" y="498" type="line" smooth="yes"/>
      <point x="542" y="498"/>
      <point x="559" y="480"/>
      <point x="559" y="459" type="curve" smooth="yes"/>
      <point x="559" y="331" type="line"/>
    </contour>
    <contour>
      <point x="442" y="845" type="line"/>
      <point x="360" y="845" type="line"/>
      <point x="360" y="763" type="line"/>
      <point x="442" y="763" type="line"/>
    </contour>
    <contour>
      <point x="263" y="845" type="line"/>
      <point x="180" y="845" type="line"/>
      <point x="180" y="763" type="line"/>
      <point x="263" y="763" type="line"/>
    </contour>
  </outline>
</glyph>
<glyph name="igrave" format="1">
  <advance width="214"/>
  <unicode hex="00EC"/>
  <outline>
    <contour>
      <point x="56" y="0" type="line"/>
      <point x="138" y="0" type="line"/>
      <point x="138" y="580" type="line"/>
      <point x="56" y="580" type="line"/>
    </contour>
    <contour>
      <point x="97" y="903" type="line"/>
      <point x="16" y="903" type="line"/>
      <point x="29" y="852"/>
      <point x="38" y="818"/>
      <point x="51" y="764" type="curve"/>
      <point x="131" y="764" type="line"/>
    </contour>
  </outline>
</glyph>
<glyph name="iacute" format="1">
  <advance width="214"/>
  <unicode hex="00ED"/>
  <outline>
    <contour>
      <point x="51" y="0" type="line"/>
      <point x="133" y="0" type="line"/>
      <point x="133" y="580" type="line"/>
      <point x="51" y="580" type="line"/>
    </contour>
    <contour>
      <point x="49" y="763" type="line"/>
      <point x="129" y="763" type="line"/>
      <point x="163" y="902" type="line"/>
      <point x="84" y="902" type="line"/>
    </contour>
  </outline>
</glyph>
<glyph name="icircumflex" format="1">
  <advance width="214"/>
  <unicode hex="00EE"/>
  <outline>
    <contour>
      <point x="51" y="0" type="line"/>
      <point x="133" y="0" type="line"/>
      <point x="133" y="580" type="line"/>
      <point x="51" y="580" type="line"/>
    </contour>
    <contour>
      <point x="26" y="763" type="line"/>
      <point x="86" y="848" type="line"/>
      <point x="144" y="763" type="line"/>
      <point x="186" y="763" type="line"/>
      <point x="115" y="880" type="line"/>
      <point x="56" y="880" type="line"/>
      <point x="-15" y="763" type="line"/>
    </contour>
  </outline>
</glyph>
<glyph name="idieresis" format="1">
  <advance width="214"/>
  <unicode hex="00EF"/>
  <outline>
    <contour>
      <point x="55" y="0" type="line"/>
      <point x="137" y="0" type="line"/>
      <point x="137" y="580" type="line"/>
      <point x="55" y="580" type="line"/>
    </contour>
    <contour>
      <point x="230" y="847" type="line"/>
      <point x="148" y="847" type="line"/>
      <point x="148" y="765" type="line"/>
      <point x="230" y="765" type="line"/>
    </contour>
    <contour>
      <point x="51" y="847" type="line"/>
      <point x="-32" y="847" type="line"/>
      <point x="-32" y="765" type="line"/>
      <point x="51" y="765" type="line"/>
    </contour>
  </outline>
</glyph>
<glyph name="ntilde" format="1">
  <advance width="708"/>
  <unicode hex="00F1"/>
  <outline>
    <contour>
      <point x="54" y="580" type="line"/>
      <point x="54" y="0" type="line"/>
      <point x="136" y="0" type="line"/>
      <point x="136" y="459" type="line" smooth="yes"/>
      <point x="136" y="480"/>
      <point x="154" y="498"/>
      <point x="176" y="498" type="curve" smooth="yes"/>
      <point x="524" y="498" type="line" smooth="yes"/>
      <point x="545" y="498"/>
      <point x="563" y="480"/>
      <point x="563" y="459" type="curve" smooth="yes"/>
      <point x="563" y="0" type="line"/>
      <point x="645" y="0" type="line"/>
      <point x="645" y="459" type="line" smooth="yes"/>
      <point x="645" y="526"/>
      <point x="591" y="580"/>
      <point x="524" y="580" type="curve" smooth="yes"/>
    </contour>
    <contour>
      <point x="449" y="813" type="line"/>
      <point x="373" y="823"/>
      <point x="315" y="885"/>
      <point x="240" y="885" type="curve" smooth="yes"/>
      <point x="216" y="885"/>
      <point x="196" y="882"/>
      <point x="178" y="876" type="curve"/>
      <point x="178" y="829" type="line"/>
      <point x="198" y="836"/>
      <point x="224" y="837"/>
      <point x="240" y="837" type="curve" smooth="yes"/>
      <point x="322" y="837"/>
      <point x="379" y="765"/>
      <point x="451" y="765" type="curve" smooth="yes"/>
      <point x="475" y="765"/>
      <point x="498" y="772"/>
      <point x="517" y="779" type="curve"/>
      <point x="517" y="830" type="line"/>
      <point x="496" y="820"/>
      <point x="474" y="813"/>
      <point x="451" y="813" type="curve" smooth="yes"/>
    </contour>
  </outline>
</glyph>
<glyph name="ocircumflex" format="1">
  <advance width="692"/>
  <unicode hex="00F4"/>
  <outline>
    <contour>
      <point x="172" y="580" type="line" smooth="yes"/>
      <point x="105" y="580"/>
      <point x="51" y="526"/>
      <point x="51" y="459" type="curve" smooth="yes"/>
      <point x="51" y="121" type="line" smooth="yes"/>
      <point x="51" y="54"/>
      <point x="105" y="0"/>
      <point x="172" y="0" type="curve" smooth="yes"/>
      <point x="520" y="0" type="line" smooth="yes"/>
      <point x="588" y="0"/>
      <point x="642" y="54"/>
      <point x="642" y="121" type="curve" smooth="yes"/>
      <point x="642" y="459" type="line" smooth="yes"/>
      <point x="642" y="526"/>
      <point x="588" y="580"/>
      <point x="520" y="580" type="curve" smooth="yes"/>
    </contour>
    <contour>
      <point x="520" y="498" type="line" smooth="yes"/>
      <point x="542" y="498"/>
      <point x="559" y="480"/>
      <point x="559" y="459" type="curve" smooth="yes"/>
      <point x="559" y="121" type="line" smooth="yes"/>
      <point x="559" y="100"/>
      <point x="542" y="82"/>
      <point x="520" y="82" type="curve" smooth="yes"/>
      <point x="172" y="82" type="line" smooth="yes"/>
      <point x="151" y="82"/>
      <point x="133" y="100"/>
      <point x="133" y="121" type="curve" smooth="yes"/>
      <point x="133" y="459" type="line" smooth="yes"/>
      <point x="133" y="480"/>
      <point x="151" y="498"/>
      <point x="172" y="498" type="curve" smooth="yes"/>
    </contour>
    <contour>
      <point x="265" y="763" type="line"/>
      <point x="325" y="848" type="line"/>
      <point x="383" y="763" type="line"/>
      <point x="425" y="763" type="line"/>
      <point x="354" y="880" type="line"/>
      <point x="295" y="880" type="line"/>
      <point x="224" y="763" type="line"/>
    </contour>
  </outline>
</glyph>
<glyph name="otilde" format="1">
  <advance width="692"/>
  <unicode hex="00F5"/>
  <outline>
    <contour>
      <point x="172" y="580" type="line" smooth="yes"/>
      <point x="105" y="580"/>
      <point x="51" y="526"/>
      <point x="51" y="459" type="curve" smooth="yes"/>
      <point x="51" y="121" type="line" smooth="yes"/>
      <point x="51" y="54"/>
      <point x="105" y="0"/>
      <point x="172" y="0" type="curve" smooth="yes"/>
      <point x="520" y="0" type="line" smooth="yes"/>
      <point x="588" y="0"/>
      <point x="642" y="54"/>
      <point x="642" y="121" type="curve" smooth="yes"/>
      <point x="642" y="459" type="line" smooth="yes"/>
      <point x="642" y="526"/>
      <point x="588" y="580"/>
      <point x="520" y="580" type="curve" smooth="yes"/>
    </contour>
    <contour>
      <point x="520" y="498" type="line" smooth="yes"/>
      <point x="542" y="498"/>
      <point x="559" y="480"/>
      <point x="559" y="459" type="curve" smooth="yes"/>
      <point x="559" y="121" type="line" smooth="yes"/>
      <point x="559" y="100"/>
      <point x="542" y="82"/>
      <point x="520" y="82" type="curve" smooth="yes"/>
      <point x="172" y="82" type="line" smooth="yes"/>
      <point x="151" y="82"/>
      <point x="133" y="100"/>
      <point x="133" y="121" type="curve" smooth="yes"/>
      <point x="133" y="459" type="line" smooth="yes"/>
      <point x="133" y="480"/>
      <point x="151" y="498"/>
      <point x="172" y="498" type="curve" smooth="yes"/>
    </contour>
    <contour>
      <point x="441" y="813" type="line"/>
      <point x="365" y="823"/>
      <point x="307" y="885"/>
      <point x="232" y="885" type="curve" smooth="yes"/>
      <point x="208" y="885"/>
      <point x="188" y="882"/>
      <point x="170" y="876" type="curve"/>
      <point x="170" y="829" type="line"/>
      <point x="190" y="836"/>
      <point x="216" y="837"/>
      <point x="232" y="837" type="curve" smooth="yes"/>
      <point x="314" y="837"/>
      <point x="371" y="765"/>
      <point x="443" y="765" type="curve" smooth="yes"/>
      <point x="467" y="765"/>
      <point x="490" y="772"/>
      <point x="509" y="779" type="curve"/>
      <point x="509" y="830" type="line"/>
      <point x="488" y="820"/>
      <point x="466" y="813"/>
      <point x="443" y="813" type="curve" smooth="yes"/>
    </contour>
  </outline>
</glyph>
<glyph name="odieresis" format="1">
  <advance width="692"/>
  <unicode hex="00F6"/>
  <outline>
    <contour>
      <point x="172" y="580" type="line" smooth="yes"/>
      <point x="105" y="580"/>
      <point x="51" y="526"/>
      <point x="51" y="459" type="curve" smooth="yes"/>
      <point x="51" y="121" type="line" smooth="yes"/>
      <point x="51" y="54"/>
      <point x="105" y="0"/>
      <point x="172" y="0" type="curve" smooth="yes"/>
      <point x="520" y="0" type="line" smooth="yes"/>
      <point x="588" y="0"/>
      <point x="642" y="54"/>
      <point x="642" y="121" type="curve" smooth="yes"/>
      <point x="642" y="459" type="line" smooth="yes"/>
      <point x="642" y="526"/>
      <point x="588" y="580"/>
      <point x="520" y="580" type="curve" smooth="yes"/>
    </contour>
    <contour>
      <point x="520" y="498" type="line" smooth="yes"/>
      <point x="542" y="498"/>
      <point x="559" y="480"/>
      <point x="559" y="459" type="curve" smooth="yes"/>
      <point x="559" y="121" type="line" smooth="yes"/>
      <point x="559" y="100"/>
      <point x="542" y="82"/>
      <point x="520" y="82" type="curve" smooth="yes"/>
      <point x="172" y="82" type="line" smooth="yes"/>
      <point x="151" y="82"/>
      <point x="133" y="100"/>
      <point x="133" y="121" type="curve" smooth="yes"/>
      <point x="133" y="459" type="line" smooth="yes"/>
      <point x="133" y="480"/>
      <point x="151" y="498"/>
      <point x="172" y="498" type="curve" smooth="yes"/>
    </contour>
    <contour>
      <point x="469" y="847" type="line"/>
      <point x="387" y="847" type="line"/>
      <point x="387" y="765" type="line"/>
      <point x="469" y="765" type="line"/>
    </contour>
    <contour>
      <point x="290" y="847" type="line"/>
      <point x="207" y="847" type="line"/>
      <point x="207" y="765" type="line"/>
      <point x="290" y="765" type="line"/>
    </contour>
  </outline>
</glyph>
<glyph name="divide" format="1">
  <advance width="508"/>
  <unicode hex="00F7"/>
  <outline>
    <contour>
      <point x="492" y="337" type="line"/>
      <point x="18" y="337" type="line"/>
      <point x="18" y="255" type="line"/>
      <point x="492" y="255" type="line"/>
    </contour>
    <contour>
      <point x="215" y="83" type="line"/>
      <point x="215" y="1" type="line"/>
      <point x="297" y="1" type="line"/>
      <point x="297" y="83" type="line"/>
    </contour>
    <contour>
      <point x="297" y="579" type="line"/>
      <point x="215" y="579" type="line"/>
      <point x="215" y="497" type="line"/>
      <point x="297" y="497" type="line"/>
    </contour>
  </outline>
</glyph>
<glyph name="uacute" format="1">
  <advance width="695"/>
  <unicode hex="00FA"/>
  <outline>
    <contour>
      <point x="562" y="580" type="line"/>
      <point x="562" y="121" type="line" smooth="yes"/>
      <point x="562" y="100"/>
      <point x="544" y="82"/>
      <point x="522" y="82" type="curve" smooth="yes"/>
      <point x="174" y="82" type="line" smooth="yes"/>
      <point x="153" y="82"/>
      <point x="135" y="100"/>
      <point x="135" y="121" type="curve" smooth="yes"/>
      <point x="135" y="580" type="line"/>
      <point x="53" y="580" type="line"/>
      <point x="53" y="121" type="line" smooth="yes"/>
      <point x="53" y="54"/>
      <point x="107" y="0"/>
      <point x="174" y="0" type="curve" smooth="yes"/>
      <point x="522" y="0" type="line" smooth="yes"/>
      <point x="590" y="0"/>
      <point x="644" y="54"/>
      <point x="644" y="121" type="curve" smooth="yes"/>
      <point x="644" y="580" type="line"/>
    </contour>
    <contour>
      <point x="273" y="764" type="line"/>
      <point x="353" y="764" type="line"/>
      <point x="387" y="903" type="line"/>
      <point x="308" y="903" type="line"/>
    </contour>
  </outline>
</glyph>
<glyph name="ucircumflex" format="1">
  <advance width="695"/>
  <unicode hex="00FB"/>
  <outline>
    <contour>
      <point x="562" y="580" type="line"/>
      <point x="562" y="121" type="line" smooth="yes"/>
      <point x="562" y="100"/>
      <point x="544" y="82"/>
      <point x="522" y="82" type="curve" smooth="yes"/>
      <point x="174" y="82" type="line" smooth="yes"/>
      <point x="153" y="82"/>
      <point x="135" y="100"/>
      <point x="135" y="121" type="curve" smooth="yes"/>
      <point x="135" y="580" type="line"/>
      <point x="53" y="580" type="line"/>
      <point x="53" y="121" type="line" smooth="yes"/>
      <point x="53" y="54"/>
      <point x="107" y="0"/>
      <point x="174" y="0" type="curve" smooth="yes"/>
      <point x="522" y="0" type="line" smooth="yes"/>
      <point x="590" y="0"/>
      <point x="644" y="54"/>
      <point x="644" y="121" type="curve" smooth="yes"/>
      <point x="644" y="580" type="line"/>
    </contour>
    <contour>
      <point x="266" y="764" type="line"/>
      <point x="326" y="849" type="line"/>
      <point x="384" y="764" type="line"/>
      <point x="426" y="764" type="line"/>
      <point x="355" y="881" type="line"/>
      <point x="296" y="881" type="line"/>
      <point x="225" y="764" type="line"/>
    </contour>
  </outline>
</glyph>
<glyph name="udieresis" format="1">
  <advance width="695"/>
  <unicode hex="00FC"/>
  <outline>
    <contour>
      <point x="562" y="580" type="line"/>
      <point x="562" y="121" type="line" smooth="yes"/>
      <point x="562" y="100"/>
      <point x="544" y="82"/>
      <point x="522" y="82" type="curve" smooth="yes"/>
      <point x="174" y="82" type="line" smooth="yes"/>
      <point x="153" y="82"/>
      <point x="135" y="100"/>
      <point x="135" y="121" type="curve" smooth="yes"/>
      <point x="135" y="580" type="line"/>
      <point x="53" y="580" type="line"/>
      <point x="53" y="121" type="line" smooth="yes"/>
      <point x="53" y="54"/>
      <point x="107" y="0"/>
      <point x="174" y="0" type="curve" smooth="yes"/>
      <point x="522" y="0" type="line" smooth="yes"/>
      <point x="590" y="0"/>
      <point x="644" y="54"/>
      <point x="644" y="121" type="curve" smooth="yes"/>
      <point x="644" y="580" type="line"/>
    </contour>
    <contour>
      <point x="470" y="845" type="line"/>
      <point x="388" y="845" type="line"/>
      <point x="388" y="763" type="line"/>
      <point x="470" y="763" type="line"/>
    </contour>
    <contour>
      <point x="291" y="845" type="line"/>
      <point x="208" y="845" type="line"/>
      <point x="208" y="763" type="line"/>
      <point x="291" y="763" type="line"/>
    </contour>
  </outline>
</glyph>
<glyph name="yacute" format="1">
  <advance width="688"/>
  <unicode hex="00FD"/>
  <outline>
    <contour>
      <point x="632" y="578" type="line"/>
      <point x="550" y="578" type="line"/>
      <point x="550" y="121" type="line" smooth="yes"/>
      <point x="550" y="100"/>
      <point x="532" y="82"/>
      <point x="511" y="82" type="curve" smooth="yes"/>
      <point x="163" y="82" type="line" smooth="yes"/>
      <point x="142" y="82"/>
      <point x="124" y="100"/>
      <point x="124" y="121" type="curve" smooth="yes"/>
      <point x="124" y="578" type="line"/>
      <point x="42" y="578" type="line"/>
      <point x="42" y="121" type="line" smooth="yes"/>
      <point x="42" y="54"/>
      <point x="96" y="0"/>
      <point x="163" y="0" type="curve" smooth="yes"/>
      <point x="550" y="0" type="line"/>
      <point x="550" y="-108" type="line" smooth="yes"/>
      <point x="550" y="-129"/>
      <point x="532" y="-147"/>
      <point x="511" y="-147" type="curve" smooth="yes"/>
      <point x="149" y="-147" type="line"/>
      <point x="149" y="-230" type="line"/>
      <point x="511" y="-230" type="line" smooth="yes"/>
      <point x="579" y="-230"/>
      <point x="632" y="-176"/>
      <point x="632" y="-108" type="curve" smooth="yes"/>
    </contour>
    <contour>
      <point x="270" y="764" type="line"/>
      <point x="350" y="764" type="line"/>
      <point x="384" y="903" type="line"/>
      <point x="305" y="903" type="line"/>
    </contour>
  </outline>
</glyph>
<glyph name="ydieresis" format="1">
  <advance width="688"/>
  <unicode hex="00FF"/>
  <outline>
    <contour>
      <point x="632" y="578" type="line"/>
      <point x="550" y="578" type="line"/>
      <point x="550" y="121" type="line" smooth="yes"/>
      <point x="550" y="100"/>
      <point x="532" y="82"/>
      <point x="511" y="82" type="curve" smooth="yes"/>
      <point x="163" y="82" type="line" smooth="yes"/>
      <point x="142" y="82"/>
      <point x="124" y="100"/>
      <point x="124" y="121" type="curve" smooth="yes"/>
      <point x="124" y="578" type="line"/>
      <point x="42" y="578" type="line"/>
      <point x="42" y="121" type="line" smooth="yes"/>
      <point x="42" y="54"/>
      <point x="96" y="0"/>
      <point x="163" y="0" type="curve" smooth="yes"/>
      <point x="550" y="0" type="line"/>
      <point x="550" y="-108" type="line" smooth="yes"/>
      <point x="550" y="-129"/>
      <point x="532" y="-147"/>
      <point x="511" y="-147" type="curve" smooth="yes"/>
      <point x="149" y="-147" type="line"/>
      <point x="149" y="-230" type="line"/>
      <point x="511" y="-230" type="line" smooth="yes"/>
      <point x="579" y="-230"/>
      <point x="632" y="-176"/>
      <point x="632" y="-108" type="curve" smooth="yes"/>
    </contour>
    <contour>
      <point x="467" y="847" type="line"/>
      <point x="385" y="847" type="line"/>
      <point x="385" y="765" type="line"/>
      <point x="467" y="765" type="line"/>
    </contour>
    <contour>
      <point x="288" y="847" type="line"/>
      <point x="205" y="847" type="line"/>
      <point x="205" y="765" type="line"/>
      <point x="288" y="765" type="line"/>
    </contour>
  </outline>
</glyph>
<glyph name="OE" format="1">
  <advance width="1374"/>
  <unicode hex="0152"/>
  <outline>
    <contour>
      <point x="773" y="639" type="line"/>
      <point x="1349" y="639" type="line"/>
      <point x="1349" y="720" type="line"/>
      <point x="173" y="720" type="line" smooth="yes"/>
      <point x="106" y="720"/>
      <point x="53" y="667"/>
      <point x="53" y="600" type="curve" smooth="yes"/>
      <point x="53" y="120" type="line" smooth="yes"/>
      <point x="53" y="53"/>
      <point x="106" y="0"/>
      <point x="173" y="0" type="curve" smooth="yes"/>
      <point x="1349" y="0" type="line"/>
      <point x="1349" y="81" type="line"/>
      <point x="773" y="81" type="line"/>
      <point x="773" y="319" type="line"/>
      <point x="1236" y="319" type="line"/>
      <point x="1236" y="401" type="line"/>
      <point x="773" y="401" type="line"/>
    </contour>
    <contour>
      <point x="173" y="81" type="line" smooth="yes"/>
      <point x="152" y="81"/>
      <point x="134" y="99"/>
      <point x="134" y="120" type="curve" smooth="yes"/>
      <point x="134" y="600" type="line" smooth="yes"/>
      <point x="134" y="621"/>
      <point x="152" y="639"/>
      <point x="173" y="639" type="curve" smooth="yes"/>
      <point x="653" y="639" type="line" smooth="yes"/>
      <point x="674" y="639"/>
      <point x="692" y="621"/>
      <point x="692" y="600" type="curve" smooth="yes"/>
      <point x="692" y="120" type="line" smooth="yes"/>
      <point x="692" y="99"/>
      <point x="674" y="81"/>
      <point x="653" y="81" type="curve" smooth="yes"/>
    </contour>
  </outline>
</glyph>
<glyph name="oe" format="1">
  <advance width="1177"/>
  <unicode hex="0153"/>
  <outline>
    <contour>
      <point x="1150" y="249" type="line"/>
      <point x="1150" y="459" type="line" smooth="yes"/>
      <point x="1150" y="526"/>
      <point x="1097" y="580"/>
      <point x="1029" y="580" type="curve" smooth="yes"/>
      <point x="173" y="580" type="line" smooth="yes"/>
      <point x="105" y="580"/>
      <point x="52" y="526"/>
      <point x="52" y="459" type="curve" smooth="yes"/>
      <point x="52" y="121" type="line" smooth="yes"/>
      <point x="52" y="54"/>
      <point x="105" y="0"/>
      <point x="173" y="0" type="curve" smooth="yes"/>
      <point x="1150" y="0" type="line"/>
      <point x="1150" y="82" type="line"/>
      <point x="681" y="82" type="line" smooth="yes"/>
      <point x="660" y="82"/>
      <point x="642" y="100"/>
      <point x="642" y="121" type="curve" smooth="yes"/>
      <point x="642" y="249" type="line"/>
    </contour>
    <contour>
      <point x="1029" y="498" type="line" smooth="yes"/>
      <point x="1050" y="498"/>
      <point x="1068" y="480"/>
      <point x="1068" y="459" type="curve" smooth="yes"/>
      <point x="1068" y="331" type="line"/>
      <point x="642" y="331" type="line"/>
      <point x="642" y="459" type="line" smooth="yes"/>
      <point x="642" y="480"/>
      <point x="660" y="498"/>
      <point x="681" y="498" type="curve" smooth="yes"/>
    </contour>
    <contour>
      <point x="173" y="82" type="line" smooth="yes"/>
      <point x="152" y="82"/>
      <point x="134" y="100"/>
      <point x="134" y="121" type="curve" smooth="yes"/>
      <point x="134" y="459" type="line" smooth="yes"/>
      <point x="134" y="480"/>
      <point x="152" y="498"/>
      <point x="173" y="498" type="curve" smooth="yes"/>
      <point x="521" y="498" type="line" smooth="yes"/>
      <point x="542" y="498"/>
      <point x="560" y="480"/>
      <point x="560" y="459" type="curve" smooth="yes"/>
      <point x="560" y="121" type="line" smooth="yes"/>
      <point x="560" y="100"/>
      <point x="542" y="82"/>
      <point x="521" y="82" type="curve" smooth="yes"/>
    </contour>
  </outline>
</glyph>
<glyph name="scaron" format="1">
  <advance width="687"/>
  <unicode hex="0161"/>
  <outline>
    <contour>
      <point x="639" y="459" type="line" smooth="yes"/>
      <point x="639" y="526"/>
      <point x="585" y="580"/>
      <point x="517" y="580" type="curve" smooth="yes"/>
      <point x="169" y="580" type="line" smooth="yes"/>
      <point x="102" y="580"/>
      <point x="48" y="526"/>
      <point x="48" y="459" type="curve" smooth="yes"/>
      <point x="48" y="370" type="line" smooth="yes"/>
      <point x="48" y="303"/>
      <point x="102" y="249"/>
      <point x="169" y="249" type="curve" smooth="yes"/>
      <point x="517" y="249" type="line" smooth="yes"/>
      <point x="538" y="249"/>
      <point x="556" y="231"/>
      <point x="556" y="210" type="curve" smooth="yes"/>
      <point x="556" y="121" type="line" smooth="yes"/>
      <point x="556" y="100"/>
      <point x="538" y="82"/>
      <point x="517" y="82" type="curve" smooth="yes"/>
      <point x="169" y="82" type="line" smooth="yes"/>
      <point x="148" y="82"/>
      <point x="130" y="100"/>
      <point x="130" y="121" type="curve" smooth="yes"/>
      <point x="130" y="129" type="line"/>
      <point x="48" y="129" type="line"/>
      <point x="48" y="121" type="line" smooth="yes"/>
      <point x="48" y="54"/>
      <point x="102" y="0"/>
      <point x="169" y="0" type="curve" smooth="yes"/>
      <point x="517" y="0" type="line" smooth="yes"/>
      <point x="585" y="0"/>
      <point x="639" y="54"/>
      <point x="639" y="121" type="curve" smooth="yes"/>
      <point x="639" y="210" type="line" smooth="yes"/>
      <point x="639" y="277"/>
      <point x="585" y="331"/>
      <point x="517" y="331" type="curve" smooth="yes"/>
      <point x="169" y="331" type="line" smooth="yes"/>
      <point x="148" y="331"/>
      <point x="130" y="349"/>
      <point x="130" y="370" type="curve" smooth="yes"/>
      <point x="130" y="459" type="line" smooth="yes"/>
      <point x="130" y="480"/>
      <point x="148" y="498"/>
      <point x="169" y="498" type="curve" smooth="yes"/>
      <point x="517" y="498" type="line" smooth="yes"/>
      <point x="538" y="498"/>
      <point x="556" y="480"/>
      <point x="556" y="459" type="curve" smooth="yes"/>
      <point x="556" y="451" type="line"/>
      <point x="639" y="451" type="line"/>
    </contour>
    <contour>
      <point x="221" y="880" type="line"/>
      <point x="293" y="763" type="line"/>
      <point x="352" y="763" type="line"/>
      <point x="422" y="880" type="line"/>
      <point x="381" y="880" type="line"/>
      <point x="323" y="795" type="line"/>
      <point x="263" y="880" type="line"/>
    </contour>
  </outline>
</glyph>
<glyph name="Ydieresis" format="1">
  <advance width="806"/>
  <unicode hex="0178"/>
  <outline>
    <contour>
      <point x="665" y="720" type="line"/>
      <point x="577" y="608"/>
      <point x="476" y="480"/>
      <point x="389" y="368" type="curve"/>
      <point x="110" y="720" type="line"/>
      <point x="17" y="720" type="line"/>
      <point x="126" y="573"/>
      <point x="241" y="418"/>
      <point x="348" y="271" type="curve"/>
      <point x="348" y="0" type="line"/>
      <point x="429" y="0" type="line"/>
      <point x="429" y="271" type="line"/>
      <point x="760" y="720" type="line"/>
    </contour>
    <contour>
      <point x="526" y="947" type="line"/>
      <point x="444" y="947" type="line"/>
      <point x="444" y="865" type="line"/>
      <point x="526" y="865" type="line"/>
    </contour>
    <contour>
      <point x="347" y="947" type="line"/>
      <point x="264" y="947" type="line"/>
      <point x="264" y="865" type="line"/>
      <point x="347" y="865" type="line"/>
    </contour>
  </outline>
</glyph>
<glyph name="Zcaron" format="1">
  <advance width="821"/>
  <unicode hex="017D"/>
  <outline>
    <contour>
      <point x="51" y="639" type="line"/>
      <point x="679" y="639" type="line"/>
      <point x="51" y="111" type="line"/>
      <point x="51" y="0" type="line"/>
      <point x="771" y="0" type="line"/>
      <point x="771" y="81" type="line"/>
      <point x="143" y="81" type="line"/>
      <point x="771" y="609" type="line"/>
      <point x="771" y="720" type="line"/>
      <point x="51" y="720" type="line"/>
    </contour>
    <contour>
      <point x="288" y="981" type="line"/>
      <point x="360" y="864" type="line"/>
      <point x="419" y="864" type="line"/>
      <point x="489" y="981" type="line"/>
      <point x="448" y="981" type="line"/>
      <point x="390" y="896" type="line"/>
      <point x="330" y="981" type="line"/>
    </contour>
  </outline>
</glyph>
<glyph name="zcaron" format="1">
  <advance width="698"/>
  <unicode hex="017E"/>
  <outline>
    <contour>
      <point x="54" y="498" type="line"/>
      <point x="555" y="498" type="line"/>
      <point x="54" y="112" type="line"/>
      <point x="54" y="0" type="line"/>
      <point x="645" y="0" type="line"/>
      <point x="645" y="82" type="line"/>
      <point x="144" y="82" type="line"/>
      <point x="645" y="468" type="line"/>
      <point x="645" y="580" type="line"/>
      <point x="54" y="580" type="line"/>
    </contour>
    <contour>
      <point x="227" y="883" type="line"/>
      <point x="299" y="766" type="line"/>
      <point x="358" y="766" type="line"/>
      <point x="428" y="883" type="line"/>
      <point x="387" y="883" type="line"/>
      <point x="329" y="798" type="line"/>
      <point x="269" y="883" type="line"/>
    </contour>
  </outline>
</glyph>
<glyph name="circumflex" format="1">
  <advance width="300"/>
  <unicode hex="02C6"/>
  <outline>
    <contour>
      <point x="69" y="871" type="line"/>
      <point x="129" y="956" type="line"/>
      <point x="187" y="871" type="line"/>
      <point x="229" y="871" type="line"/>
      <point x="158" y="988" type="line"/>
      <point x="99" y="988" type="line"/>
      <point x="28" y="871" type="line"/>
    </contour>
  </outline>
</glyph>
<glyph name="caron" format="1">
  <advance width="297"/>
  <unicode hex="02C7"/>
  <outline>
    <contour>
      <point x="27" y="988" type="line"/>
      <point x="99" y="871" type="line"/>
      <point x="158" y="871" type="line"/>
      <point x="228" y="988" type="line"/>
      <point x="187" y="988" type="line"/>
      <point x="129" y="903" type="line"/>
      <point x="69" y="988" type="line"/>
    </contour>
  </outline>
</glyph>
<glyph name="breve" format="1">
  <advance width="287"/>
  <unicode hex="02D8"/>
  <outline>
    <contour>
      <point x="194" y="939" type="line"/>
      <point x="194" y="937"/>
      <point x="194" y="935"/>
      <point x="194" y="933" type="curve" smooth="yes"/>
      <point x="194" y="916"/>
      <point x="189" y="905"/>
      <point x="173" y="905" type="curve" smooth="yes"/>
      <point x="93" y="905" type="line" smooth="yes"/>
      <point x="75" y="905"/>
      <point x="72" y="918"/>
      <point x="72" y="939" type="curve"/>
      <point x="40" y="939" type="line"/>
      <point x="41" y="906"/>
      <point x="62" y="872"/>
      <point x="105" y="872" type="curve" smooth="yes"/>
      <point x="160" y="872" type="line" smooth="yes"/>
      <point x="204" y="872"/>
      <point x="224" y="906"/>
      <point x="225" y="939" type="curve"/>
    </contour>
  </outline>
</glyph>
<glyph name="dotaccent" format="1">
  <advance width="233"/>
  <unicode hex="02D9"/>
  <outline>
    <contour>
      <point x="86" y="989" type="line" smooth="yes"/>
      <point x="63" y="989"/>
      <point x="45" y="971"/>
      <point x="45" y="949" type="curve" smooth="yes"/>
      <point x="45" y="913" type="line" smooth="yes"/>
      <point x="45" y="891"/>
      <point x="63" y="873"/>
      <point x="86" y="873" type="curve" smooth="yes"/>
      <point x="124" y="873" type="line" smooth="yes"/>
      <point x="147" y="873"/>
      <point x="165" y="891"/>
      <point x="165" y="913" type="curve" smooth="yes"/>
      <point x="165" y="949" type="line" smooth="yes"/>
      <point x="165" y="971"/>
      <point x="147" y="989"/>
      <point x="124" y="989" type="curve" smooth="yes"/>
    </contour>
  </outline>
</glyph>
<glyph name="ring" format="1">
  <advance width="233"/>
  <unicode hex="02DA"/>
  <outline>
    <contour>
      <point x="89" y="988" type="line" smooth="yes"/>
      <point x="59" y="988"/>
      <point x="35" y="964"/>
      <point x="35" y="935" type="curve" smooth="yes"/>
      <point x="35" y="881" type="line" smooth="yes"/>
      <point x="35" y="852"/>
      <point x="59" y="828"/>
      <point x="89" y="828" type="curve" smooth="yes"/>
      <point x="145" y="828" type="line" smooth="yes"/>
      <point x="175" y="828"/>
      <point x="199" y="852"/>
      <point x="199" y="881" type="curve" smooth="yes"/>
      <point x="199" y="935" type="line" smooth="yes"/>
      <point x="199" y="964"/>
      <point x="175" y="988"/>
      <point x="145" y="988" type="curve" smooth="yes"/>
    </contour>
    <contour>
      <point x="84" y="868" type="line" smooth="yes"/>
      <point x="79" y="868"/>
      <point x="75" y="872"/>
      <point x="75" y="878" type="curve" smooth="yes"/>
      <point x="75" y="938" type="line" smooth="yes"/>
      <point x="75" y="944"/>
      <point x="79" y="948"/>
      <point x="84" y="948" type="curve" smooth="yes"/>
      <point x="150" y="948" type="line" smooth="yes"/>
      <point x="155" y="948"/>
      <point x="159" y="944"/>
      <point x="159" y="938" type="curve" smooth="yes"/>
      <point x="159" y="878" type="line" smooth="yes"/>
      <point x="159" y="872"/>
      <point x="155" y="868"/>
      <point x="150" y="868" type="curve" smooth="yes"/>
    </contour>
  </outline>
</glyph>
<glyph name="tilde" format="1">
  <advance width="403"/>
  <unicode hex="02DC"/>
  <outline>
    <contour>
      <point x="294" y="924" type="line"/>
      <point x="218" y="934"/>
      <point x="160" y="996"/>
      <point x="85" y="996" type="curve" smooth="yes"/>
      <point x="61" y="996"/>
      <point x="41" y="993"/>
      <point x="23" y="987" type="curve"/>
      <point x="23" y="940" type="line"/>
      <point x="43" y="947"/>
      <point x="69" y="948"/>
      <point x="85" y="948" type="curve" smooth="yes"/>
      <point x="167" y="948"/>
      <point x="224" y="876"/>
      <point x="296" y="876" type="curve" smooth="yes"/>
      <point x="320" y="876"/>
      <point x="343" y="883"/>
      <point x="362" y="890" type="curve"/>
      <point x="362" y="941" type="line"/>
      <point x="341" y="931"/>
      <point x="319" y="924"/>
      <point x="296" y="924" type="curve" smooth="yes"/>
    </contour>
  </outline>
</glyph>
<glyph name="endash" format="1">
  <advance width="708"/>
  <unicode hex="2013"/>
  <outline>
    <contour>
      <point x="655" y="336" type="line"/>
      <point x="54" y="336" type="line"/>
      <point x="54" y="254" type="line"/>
      <point x="655" y="254" type="line"/>
    </contour>
  </outline>
</glyph>
<glyph name="emdash" format="1">
  <advance width="822"/>
  <unicode hex="2014"/>
  <outline>
    <contour>
      <point x="775" y="336" type="line"/>
      <point x="54" y="336" type="line"/>
      <point x="54" y="254" type="line"/>
      <point x="775" y="254" type="line"/>
    </contour>
  </outline>
</glyph>
<glyph name="quoteleft" format="1">
  <advance width="168"/>
  <unicode hex="2018"/>
  <outline>
    <contour>
      <point x="116" y="503" type="line"/>
      <point x="116" y="716" type="line"/>
      <point x="67" y="701"/>
      <point x="33" y="655"/>
      <point x="33" y="601" type="curve" smooth="yes"/>
      <point x="33" y="503" type="line"/>
    </contour>
  </outline>
</glyph>
<glyph name="quoteright" format="1">
  <advance width="166"/>
  <unicode hex="2019"/>
  <outline>
    <contour>
      <point x="54" y="721" type="line"/>
      <point x="54" y="508" type="line"/>
      <point x="102" y="523"/>
      <point x="136" y="569"/>
      <point x="136" y="623" type="curve" smooth="yes"/>
      <point x="136" y="721" type="line"/>
    </contour>
  </outline>
</glyph>
<glyph name="quotedblleft" format="1">
  <advance width="363"/>
  <unicode hex="201C"/>
  <outline>
    <contour>
      <point x="130" y="502" type="line"/>
      <point x="130" y="715" type="line"/>
      <point x="81" y="700"/>
      <point x="47" y="654"/>
      <point x="47" y="600" type="curve" smooth="yes"/>
      <point x="47" y="502" type="line"/>
    </contour>
    <contour>
      <point x="310" y="502" type="line"/>
      <point x="310" y="715" type="line"/>
      <point x="261" y="700"/>
      <point x="228" y="654"/>
      <point x="228" y="600" type="curve" smooth="yes"/>
      <point x="228" y="502" type="line"/>
    </contour>
  </outline>
</glyph>
<glyph name="quotedblright" format="1">
  <advance width="363"/>
  <unicode hex="201D"/>
  <outline>
    <contour>
      <point x="235" y="721" type="line"/>
      <point x="235" y="508" type="line"/>
      <point x="283" y="523"/>
      <point x="317" y="569"/>
      <point x="317" y="623" type="curve" smooth="yes"/>
      <point x="317" y="721" type="line"/>
    </contour>
    <contour>
      <point x="54" y="721" type="line"/>
      <point x="54" y="508" type="line"/>
      <point x="103" y="523"/>
      <point x="137" y="569"/>
      <point x="137" y="623" type="curve" smooth="yes"/>
      <point x="137" y="721" type="line"/>
    </contour>
  </outline>
</glyph>
<glyph name="bullet" format="1">
  <advance width="371"/>
  <unicode hex="2022"/>
  <outline>
    <contour>
      <point x="172" y="403" type="line" smooth="yes"/>
      <point x="155" y="403"/>
      <point x="144" y="392"/>
      <point x="144" y="374" type="curve" smooth="yes"/>
      <point x="144" y="353" type="line" smooth="yes"/>
      <point x="144" y="335"/>
      <point x="155" y="325"/>
      <point x="172" y="325" type="curve" smooth="yes"/>
      <point x="197" y="325" type="line" smooth="yes"/>
      <point x="216" y="325"/>
      <point x="226" y="335"/>
      <point x="226" y="353" type="curve" smooth="yes"/>
      <point x="226" y="374" type="line" smooth="yes"/>
      <point x="226" y="392"/>
      <point x="216" y="403"/>
      <point x="197" y="403" type="curve" smooth="yes"/>
    </contour>
  </outline>
</glyph>
<glyph name="ellipsis" format="1">
  <advance width="574"/>
  <unicode hex="2026"/>
  <outline>
    <contour>
      <point x="136" y="82" type="line"/>
      <point x="54" y="82" type="line"/>
      <point x="54" y="0" type="line"/>
      <point x="136" y="0" type="line"/>
    </contour>
    <contour>
      <point x="514" y="82" type="line"/>
      <point x="431" y="82" type="line"/>
      <point x="431" y="0" type="line"/>
      <point x="514" y="0" type="line"/>
    </contour>
    <contour>
      <point x="325" y="82" type="line"/>
      <point x="243" y="82" type="line"/>
      <point x="243" y="0" type="line"/>
      <point x="325" y="0" type="line"/>
    </contour>
  </outline>
</glyph>
<glyph name="Euro" format="1">
  <advance width="799"/>
  <unicode hex="20AC"/>
  <outline>
    <contour>
      <point x="262" y="82" type="line" smooth="yes"/>
      <point x="241" y="82"/>
      <point x="223" y="100"/>
      <point x="223" y="121" type="curve" smooth="yes"/>
      <point x="223" y="230" type="line"/>
      <point x="647" y="230" type="line"/>
      <point x="647" y="312" type="line"/>
      <point x="223" y="312" type="line"/>
      <point x="223" y="415" type="line"/>
      <point x="647" y="415" type="line"/>
      <point x="647" y="498" type="line"/>
      <point x="223" y="498" type="line"/>
      <point x="223" y="599" type="line" smooth="yes"/>
      <point x="223" y="620"/>
      <point x="241" y="638"/>
      <point x="262" y="638" type="curve" smooth="yes"/>
      <point x="761" y="638" type="line"/>
      <point x="761" y="721" type="line"/>
      <point x="262" y="721" type="line" smooth="yes"/>
      <point x="194" y="721"/>
      <point x="140" y="667"/>
      <point x="140" y="599" type="curve" smooth="yes"/>
      <point x="140" y="498" type="line"/>
      <point x="35" y="498" type="line"/>
      <point x="35" y="415" type="line"/>
      <point x="140" y="415" type="line"/>
      <point x="140" y="312" type="line"/>
      <point x="35" y="312" type="line"/>
      <point x="35" y="230" type="line"/>
      <point x="140" y="230" type="line"/>
      <point x="140" y="121" type="line" smooth="yes"/>
      <point x="140" y="54"/>
      <point x="194" y="0"/>
      <point x="262" y="0" type="curve" smooth="yes"/>
      <point x="761" y="0" type="line"/>
      <point x="761" y="82" type="line"/>
    </contour>
  </outline>
</glyph>
<glyph name="A.alt" format="1">
  <advance width="774"/>
  <outline>
    <contour>
      <point x="111" y="0" type="line"/>
      <point x="281" y="202" type="line"/>
      <point x="645" y="202" type="line"/>
      <point x="645" y="0" type="line"/>
      <point x="728" y="0" type="line"/>
      <point x="728" y="721" type="line"/>
      <point x="616" y="721" type="line"/>
      <point x="4" y="0" type="line"/>
    </contour>
    <contour>
      <point x="645" y="629" type="line"/>
      <point x="645" y="285" type="line"/>
      <point x="351" y="285" type="line"/>
    </contour>
  </outline>
</glyph>
<glyph name="A.alt2" format="1">
  <advance width="774"/>
  <outline>
    <contour>
      <point x="54" y="721" type="line"/>
      <point x="54" y="0" type="line"/>
      <point x="137" y="0" type="line"/>
      <point x="137" y="202" type="line"/>
      <point x="499" y="202" type="line"/>
      <point x="670" y="0" type="line"/>
      <point x="778" y="0" type="line"/>
      <point x="166" y="721" type="line"/>
    </contour>
    <contour>
      <point x="137" y="629" type="line"/>
      <point x="432" y="285" type="line"/>
      <point x="137" y="285" type="line"/>
    </contour>
  </outline>
</glyph>
<glyph name="A.alt3" format="1">
  <advance width="827"/>
  <outline>
    <contour>
      <point x="837" y="0" type="line"/>
      <point x="708" y="243"/>
      <point x="581" y="477"/>
      <point x="452" y="720" type="curve"/>
      <point x="358" y="720" type="line"/>
      <point x="225" y="472"/>
      <point x="104" y="248"/>
      <point x="-28" y="0" type="curve"/>
      <point x="67" y="0" type="line"/>
      <point x="100" y="58"/>
      <point x="141" y="125"/>
      <point x="173" y="183" type="curve"/>
      <point x="637" y="183" type="line"/>
      <point x="742" y="0" type="line"/>
    </contour>
    <contour>
      <point x="405" y="644" type="line"/>
      <point x="588" y="264" type="line"/>
      <point x="220" y="264" type="line"/>
    </contour>
  </outline>
</glyph>
<glyph name="C.alt" format="1">
  <advance width="822"/>
  <outline>
    <contour>
      <point x="770" y="620" type="line"/>
      <point x="755" y="671"/>
      <point x="706" y="720"/>
      <point x="652" y="720" type="curve" smooth="yes"/>
      <point x="172" y="720" type="line" smooth="yes"/>
      <point x="105" y="720"/>
      <point x="52" y="667"/>
      <point x="52" y="600" type="curve" smooth="yes"/>
      <point x="52" y="120" type="line" smooth="yes"/>
      <point x="52" y="53"/>
      <point x="105" y="0"/>
      <point x="172" y="0" type="curve" smooth="yes"/>
      <point x="652" y="0" type="line" smooth="yes"/>
      <point x="706" y="0"/>
      <point x="755" y="49"/>
      <point x="770" y="100" type="curve"/>
      <point x="770" y="194" type="line"/>
      <point x="692" y="194" type="line"/>
      <point x="692" y="81" type="line"/>
      <point x="172" y="81" type="line" smooth="yes"/>
      <point x="151" y="81"/>
      <point x="133" y="99"/>
      <point x="133" y="120" type="curve" smooth="yes"/>
      <point x="133" y="600" type="line" smooth="yes"/>
      <point x="133" y="621"/>
      <point x="151" y="639"/>
      <point x="172" y="639" type="curve" smooth="yes"/>
      <point x="692" y="639" type="line"/>
      <point x="692" y="526" type="line"/>
      <point x="773" y="526" type="line"/>
    </contour>
  </outline>
</glyph>
<glyph name="I.alt" format="1">
  <advance width="818"/>
  <outline>
    <contour>
      <point x="769" y="720" type="line"/>
      <point x="49" y="720" type="line"/>
      <point x="49" y="639" type="line"/>
      <point x="368" y="639" type="line"/>
      <point x="368" y="81" type="line"/>
      <point x="49" y="81" type="line"/>
      <point x="49" y="0" type="line"/>
      <point x="769" y="0" type="line"/>
      <point x="769" y="81" type="line"/>
      <point x="450" y="81" type="line"/>
      <point x="450" y="639" type="line"/>
      <point x="769" y="639" type="line"/>
    </contour>
  </outline>
</glyph>
<glyph name="J.alt" format="1">
  <advance width="645"/>
  <outline>
    <contour>
      <point x="506" y="120" type="line" smooth="yes"/>
      <point x="506" y="99"/>
      <point x="489" y="81"/>
      <point x="468" y="81" type="curve" smooth="yes"/>
      <point x="3" y="81" type="line"/>
      <point x="3" y="0" type="line"/>
      <point x="468" y="0" type="line" smooth="yes"/>
      <point x="534" y="0"/>
      <point x="588" y="53"/>
      <point x="588" y="120" type="curve" smooth="yes"/>
      <point x="588" y="720" type="line"/>
      <point x="506" y="720" type="line"/>
    </contour>
  </outline>
</glyph>
<glyph name="K.alt" format="1">
  <advance width="829"/>
  <outline>
    <contour>
      <point x="694" y="436" type="line" smooth="yes"/>
      <point x="694" y="415"/>
      <point x="676" y="398"/>
      <point x="655" y="398" type="curve" smooth="yes"/>
      <point x="174" y="398" type="line" smooth="yes"/>
      <point x="153" y="398"/>
      <point x="135" y="415"/>
      <point x="135" y="436" type="curve" smooth="yes"/>
      <point x="135" y="720" type="line"/>
      <point x="54" y="720" type="line"/>
      <point x="54" y="0" type="line"/>
      <point x="135" y="0" type="line"/>
      <point x="135" y="278" type="line" smooth="yes"/>
      <point x="135" y="298"/>
      <point x="153" y="316"/>
      <point x="174" y="316" type="curve" smooth="yes"/>
      <point x="654" y="316" type="line" smooth="yes"/>
      <point x="675" y="316"/>
      <point x="693" y="298"/>
      <point x="693" y="278" type="curve" smooth="yes"/>
      <point x="693" y="0" type="line"/>
      <point x="774" y="0" type="line"/>
      <point x="774" y="257" type="line" smooth="yes"/>
      <point x="774" y="298"/>
      <point x="718" y="357"/>
      <point x="636" y="357" type="curve"/>
      <point x="718" y="357"/>
      <point x="775" y="414"/>
      <point x="775" y="457" type="curve" smooth="yes"/>
      <point x="775" y="720" type="line"/>
      <point x="694" y="720" type="line"/>
    </contour>
  </outline>
</glyph>
<glyph name="M.alt" format="1">
  <advance width="1155"/>
  <outline>
    <contour>
      <point x="54" y="720" type="line"/>
      <point x="54" y="0" type="line"/>
      <point x="136" y="0" type="line"/>
      <point x="136" y="639" type="line"/>
      <point x="494" y="639" type="line" smooth="yes"/>
      <point x="515" y="639"/>
      <point x="532" y="621"/>
      <point x="532" y="600" type="curve" smooth="yes"/>
      <point x="532" y="0" type="line"/>
      <point x="614" y="0" type="line"/>
      <point x="614" y="639" type="line"/>
      <point x="997" y="639" type="line" smooth="yes"/>
      <point x="1018" y="639"/>
      <point x="1035" y="621"/>
      <point x="1035" y="600" type="curve" smooth="yes"/>
      <point x="1035" y="0" type="line"/>
      <point x="1117" y="0" type="line"/>
      <point x="1117" y="600" type="line" smooth="yes"/>
      <point x="1117" y="667"/>
      <point x="1063" y="720"/>
      <point x="997" y="720" type="curve" smooth="yes"/>
    </contour>
  </outline>
</glyph>
<glyph name="N.alt" format="1">
  <advance width="827"/>
  <outline>
    <contour>
      <point x="135" y="0" type="line"/>
      <point x="135" y="639" type="line"/>
      <point x="654" y="639" type="line" smooth="yes"/>
      <point x="675" y="639"/>
      <point x="693" y="621"/>
      <point x="693" y="600" type="curve" smooth="yes"/>
      <point x="693" y="0" type="line"/>
      <point x="774" y="0" type="line"/>
      <point x="774" y="600" type="line" smooth="yes"/>
      <point x="774" y="667"/>
      <point x="721" y="720"/>
      <point x="654" y="720" type="curve" smooth="yes"/>
      <point x="54" y="720" type="line"/>
      <point x="54" y="0" type="line"/>
    </contour>
  </outline>
</glyph>
<glyph name="O.alt" format="1">
  <advance width="824"/>
  <outline>
    <contour>
      <point x="172" y="720" type="line" smooth="yes"/>
      <point x="105" y="720"/>
      <point x="52" y="667"/>
      <point x="52" y="600" type="curve" smooth="yes"/>
      <point x="52" y="120" type="line" smooth="yes"/>
      <point x="52" y="53"/>
      <point x="105" y="0"/>
      <point x="172" y="0" type="curve" smooth="yes"/>
      <point x="652" y="0" type="line" smooth="yes"/>
      <point x="719" y="0"/>
      <point x="772" y="53"/>
      <point x="772" y="120" type="curve" smooth="yes"/>
      <point x="772" y="600" type="line" smooth="yes"/>
      <point x="772" y="667"/>
      <point x="719" y="720"/>
      <point x="652" y="720" type="curve" smooth="yes"/>
    </contour>
    <contour>
      <point x="691" y="120" type="line" smooth="yes"/>
      <point x="691" y="99"/>
      <point x="673" y="81"/>
      <point x="652" y="81" type="curve" smooth="yes"/>
      <point x="172" y="81" type="line" smooth="yes"/>
      <point x="151" y="81"/>
      <point x="133" y="99"/>
      <point x="133" y="120" type="curve" smooth="yes"/>
      <point x="133" y="600" type="line" smooth="yes"/>
      <point x="133" y="621"/>
      <point x="151" y="639"/>
      <point x="172" y="639" type="curve" smooth="yes"/>
      <point x="652" y="639" type="line" smooth="yes"/>
      <point x="673" y="639"/>
      <point x="691" y="621"/>
      <point x="691" y="600" type="curve" smooth="yes"/>
    </contour>
    <contour>
      <point x="453" y="319" type="line"/>
      <point x="453" y="401" type="line"/>
      <point x="371" y="401" type="line"/>
      <point x="371" y="319" type="line"/>
    </contour>
  </outline>
</glyph>
<glyph name="R.alt" format="1">
  <advance width="826"/>
  <outline>
    <contour>
      <point x="774" y="599" type="line" smooth="yes"/>
      <point x="774" y="665"/>
      <point x="721" y="719"/>
      <point x="654" y="719" type="curve" smooth="yes"/>
      <point x="54" y="720" type="line"/>
      <point x="54" y="0" type="line"/>
      <point x="135" y="0" type="line"/>
      <point x="135" y="230" type="line" smooth="yes"/>
      <point x="135" y="250"/>
      <point x="153" y="268"/>
      <point x="174" y="268" type="curve" smooth="yes"/>
      <point x="654" y="268" type="line" smooth="yes"/>
      <point x="675" y="268"/>
      <point x="693" y="250"/>
      <point x="693" y="230" type="curve" smooth="yes"/>
      <point x="693" y="0" type="line"/>
      <point x="774" y="0" type="line"/>
      <point x="774" y="230" type="line" smooth="yes"/>
      <point x="774" y="287"/>
      <point x="696" y="309"/>
      <point x="667" y="309" type="curve"/>
      <point x="695" y="309"/>
      <point x="774" y="331"/>
      <point x="774" y="388" type="curve" smooth="yes"/>
    </contour>
    <contour>
      <point x="654" y="638" type="line" smooth="yes"/>
      <point x="675" y="638"/>
      <point x="693" y="620"/>
      <point x="693" y="599" type="curve" smooth="yes"/>
      <point x="693" y="388" type="line" smooth="yes"/>
      <point x="693" y="367"/>
      <point x="675" y="350"/>
      <point x="654" y="350" type="curve" smooth="yes"/>
      <point x="174" y="350" type="line" smooth="yes"/>
      <point x="153" y="350"/>
      <point x="135" y="367"/>
      <point x="135" y="388" type="curve" smooth="yes"/>
      <point x="135" y="599" type="line" smooth="yes"/>
      <point x="135" y="620"/>
      <point x="153" y="638"/>
      <point x="174" y="638" type="curve" smooth="yes"/>
    </contour>
  </outline>
</glyph>
<glyph name="S.alt" format="1">
  <advance width="812"/>
  <outline>
    <contour>
      <point x="166" y="401" type="line" smooth="yes"/>
      <point x="145" y="401"/>
      <point x="127" y="418"/>
      <point x="127" y="439" type="curve" smooth="yes"/>
      <point x="127" y="600" type="line" smooth="yes"/>
      <point x="127" y="621"/>
      <point x="145" y="639"/>
      <point x="166" y="639" type="curve" smooth="yes"/>
      <point x="766" y="639" type="line"/>
      <point x="766" y="720" type="line"/>
      <point x="166" y="720" type="line" smooth="yes"/>
      <point x="99" y="720"/>
      <point x="46" y="667"/>
      <point x="46" y="600" type="curve" smooth="yes"/>
      <point x="46" y="439" type="line" smooth="yes"/>
      <point x="46" y="373"/>
      <point x="99" y="319"/>
      <point x="166" y="319" type="curve" smooth="yes"/>
      <point x="646" y="319" type="line" smooth="yes"/>
      <point x="667" y="319"/>
      <point x="684" y="302"/>
      <point x="684" y="281" type="curve" smooth="yes"/>
      <point x="684" y="120" type="line" smooth="yes"/>
      <point x="684" y="99"/>
      <point x="667" y="81"/>
      <point x="646" y="81" type="curve" smooth="yes"/>
      <point x="46" y="81" type="line"/>
      <point x="46" y="0" type="line"/>
      <point x="646" y="0" type="line" smooth="yes"/>
      <point x="713" y="0"/>
      <point x="766" y="53"/>
      <point x="766" y="120" type="curve" smooth="yes"/>
      <point x="766" y="281" type="line" smooth="yes"/>
      <point x="766" y="347"/>
      <point x="713" y="401"/>
      <point x="646" y="401" type="curve" smooth="yes"/>
    </contour>
  </outline>
</glyph>
<glyph name="V.alt" format="1">
  <advance width="774"/>
  <outline>
    <contour>
      <point x="54" y="721" type="line"/>
      <point x="54" y="0" type="line"/>
      <point x="166" y="0" type="line"/>
      <point x="777" y="721" type="line"/>
      <point x="670" y="721" type="line"/>
      <point x="502" y="519"/>
      <point x="304" y="293"/>
      <point x="137" y="93" type="curve"/>
      <point x="137" y="721" type="line"/>
    </contour>
  </outline>
</glyph>
<glyph name="V.alt2" format="1">
  <advance width="774"/>
  <outline>
    <contour>
      <point x="635" y="92" type="line"/>
      <point x="107" y="720" type="line"/>
      <point x="0" y="720" type="line"/>
      <point x="605" y="0" type="line"/>
      <point x="716" y="0" type="line"/>
      <point x="716" y="720" type="line"/>
      <point x="635" y="720" type="line"/>
    </contour>
  </outline>
</glyph>
<glyph name="V.alt3" format="1">
  <advance width="827"/>
  <outline>
    <contour>
      <point x="692" y="720" type="line"/>
      <point x="692" y="81" type="line"/>
      <point x="173" y="81" type="line" smooth="yes"/>
      <point x="152" y="81"/>
      <point x="134" y="99"/>
      <point x="134" y="120" type="curve" smooth="yes"/>
      <point x="134" y="720" type="line"/>
      <point x="53" y="720" type="line"/>
      <point x="53" y="120" type="line" smooth="yes"/>
      <point x="53" y="53"/>
      <point x="106" y="0"/>
      <point x="173" y="0" type="curve" smooth="yes"/>
      <point x="773" y="0" type="line"/>
      <point x="773" y="720" type="line"/>
    </contour>
  </outline>
</glyph>
<glyph name="W.alt" format="1">
  <advance width="1171"/>
  <outline>
    <contour>
      <point x="1065" y="720" type="line"/>
      <point x="896" y="518"/>
      <point x="699" y="293"/>
      <point x="531" y="93" type="curve"/>
      <point x="531" y="442" type="line"/>
      <point x="770" y="720" type="line"/>
      <point x="665" y="720" type="line"/>
      <point x="496" y="518"/>
      <point x="299" y="293"/>
      <point x="131" y="93" type="curve"/>
      <point x="131" y="720" type="line"/>
      <point x="49" y="720" type="line"/>
      <point x="49" y="0" type="line"/>
      <point x="161" y="0" type="line"/>
      <point x="449" y="343" type="line"/>
      <point x="449" y="0" type="line"/>
      <point x="561" y="0" type="line"/>
      <point x="1171" y="720" type="line"/>
    </contour>
  </outline>
</glyph>
<glyph name="W.alt2" format="1">
  <advance width="1168"/>
  <outline>
    <contour>
      <point x="612" y="0" type="line"/>
      <point x="724" y="0" type="line"/>
      <point x="724" y="343" type="line"/>
      <point x="1012" y="0" type="line"/>
      <point x="1123" y="0" type="line"/>
      <point x="1123" y="720" type="line"/>
      <point x="1041" y="720" type="line"/>
      <point x="1041" y="93" type="line"/>
      <point x="507" y="720" type="line"/>
      <point x="401" y="720" type="line"/>
      <point x="641" y="442" type="line"/>
      <point x="641" y="93" type="line"/>
      <point x="108" y="720" type="line"/>
      <point x="0" y="720" type="line"/>
    </contour>
  </outline>
</glyph>
<glyph name="W.alt3" format="1">
  <advance width="1028"/>
  <outline>
    <contour>
      <point x="518" y="421" type="line"/>
      <point x="872" y="0" type="line"/>
      <point x="983" y="0" type="line"/>
      <point x="983" y="720" type="line"/>
      <point x="901" y="720" type="line"/>
      <point x="901" y="92" type="line"/>
      <point x="518" y="549" type="line"/>
      <point x="135" y="92" type="line"/>
      <point x="135" y="720" type="line"/>
      <point x="54" y="720" type="line"/>
      <point x="54" y="0" type="line"/>
      <point x="164" y="0" type="line"/>
    </contour>
  </outline>
</glyph>
<glyph name="W.alt4" format="1">
  <advance width="1155"/>
  <outline>
    <contour>
      <point x="1116" y="0" type="line"/>
      <point x="1116" y="720" type="line"/>
      <point x="1034" y="720" type="line"/>
      <point x="1034" y="81" type="line"/>
      <point x="676" y="81" type="line" smooth="yes"/>
      <point x="655" y="81"/>
      <point x="638" y="99"/>
      <point x="638" y="120" type="curve" smooth="yes"/>
      <point x="638" y="720" type="line"/>
      <point x="556" y="720" type="line"/>
      <point x="556" y="81" type="line"/>
      <point x="173" y="81" type="line" smooth="yes"/>
      <point x="153" y="81"/>
      <point x="135" y="99"/>
      <point x="135" y="120" type="curve" smooth="yes"/>
      <point x="135" y="720" type="line"/>
      <point x="53" y="720" type="line"/>
      <point x="53" y="120" type="line" smooth="yes"/>
      <point x="53" y="53"/>
      <point x="107" y="0"/>
      <point x="173" y="0" type="curve" smooth="yes"/>
    </contour>
  </outline>
</glyph>
<glyph name="X.alt" format="1">
  <advance width="829"/>
  <outline>
    <contour>
      <point x="694" y="720" type="line"/>
      <point x="694" y="436" type="line" smooth="yes"/>
      <point x="694" y="415"/>
      <point x="676" y="398"/>
      <point x="655" y="398" type="curve" smooth="yes"/>
      <point x="174" y="398" type="line" smooth="yes"/>
      <point x="153" y="398"/>
      <point x="135" y="415"/>
      <point x="135" y="436" type="curve" smooth="yes"/>
      <point x="135" y="720" type="line"/>
      <point x="54" y="720" type="line"/>
      <point x="54" y="457" type="line" smooth="yes"/>
      <point x="54" y="406"/>
      <point x="120" y="357"/>
      <point x="193" y="357" type="curve"/>
      <point x="120" y="357"/>
      <point x="55" y="308"/>
      <point x="55" y="257" type="curve" smooth="yes"/>
      <point x="55" y="0" type="line"/>
      <point x="136" y="0" type="line"/>
      <point x="136" y="278" type="line" smooth="yes"/>
      <point x="136" y="298"/>
      <point x="154" y="316"/>
      <point x="175" y="316" type="curve" smooth="yes"/>
      <point x="654" y="316" type="line" smooth="yes"/>
      <point x="675" y="316"/>
      <point x="693" y="298"/>
      <point x="693" y="278" type="curve" smooth="yes"/>
      <point x="693" y="0" type="line"/>
      <point x="774" y="0" type="line"/>
      <point x="774" y="257" type="line" smooth="yes"/>
      <point x="774" y="308"/>
      <point x="708" y="357"/>
      <point x="636" y="357" type="curve"/>
      <point x="708" y="357"/>
      <point x="775" y="406"/>
      <point x="775" y="457" type="curve" smooth="yes"/>
      <point x="775" y="720" type="line"/>
    </contour>
  </outline>
</glyph>
